<svg width="130" height="48" viewBox="0 0 130 48" fill="none" xmlns="http://www.w3.org/2000/svg">
<g clip-path="url(#clip0_863_1467)">
<path d="M45.4356 34.7749V20.2199H45.6949L56.2896 34.7749H59.6236V13.4006H55.9192V27.919H55.6598L45.0652 13.4006H41.7312V34.7749H45.4356ZM70.1071 35.1049C74.997 35.1049 77.9976 31.9519 77.9976 26.6725C77.9976 21.4297 74.997 18.2401 70.1071 18.2401C65.2543 18.2401 62.2167 21.4297 62.2167 26.6725C62.2537 31.9519 65.2173 35.1049 70.1071 35.1049ZM70.1071 32.0252C67.514 32.0252 66.0322 30.0821 66.0322 26.6725C66.0322 23.2995 67.514 21.3198 70.1071 21.3198C72.7002 21.3198 74.182 23.2995 74.182 26.6725C74.182 30.0821 72.7002 32.0252 70.1071 32.0252ZM81.3686 14.6105V18.6801H78.7755V21.6131H81.3686V30.4487C81.3686 33.6017 82.8504 34.8483 86.6289 34.8483C87.3327 34.8483 88.0366 34.7749 88.5922 34.6649V31.8053C88.1477 31.8419 87.8513 31.8786 87.3327 31.8786C85.7769 31.8786 85.073 31.182 85.073 29.5688V21.6131H88.5922V18.6801H85.073V14.6105H81.3686ZM90.8149 34.7749H94.5193V18.5701H90.8149V34.7749ZM92.6671 15.8937C93.8896 15.8937 94.8898 14.9038 94.8898 13.6939C94.8898 12.4474 93.8896 11.4575 92.6671 11.4575C91.4446 11.4575 90.4444 12.4474 90.4444 13.6939C90.4444 14.9038 91.4446 15.8937 92.6671 15.8937ZM104.669 35.1049C109.559 35.1049 112.56 31.9519 112.56 26.6725C112.56 21.4297 109.559 18.2401 104.669 18.2401C99.8166 18.2401 96.779 21.4297 96.779 26.6725C96.779 31.9519 99.7426 35.1049 104.669 35.1049ZM104.669 32.0252C102.076 32.0252 100.595 30.0821 100.595 26.6725C100.595 23.2995 102.076 21.3198 104.669 21.3198C107.226 21.3198 108.744 23.2995 108.744 26.6725C108.707 30.0821 107.226 32.0252 104.669 32.0252ZM114.745 34.7749H118.45V25.3526C118.45 22.9696 119.858 21.4664 122.043 21.4664C124.303 21.4664 125.34 22.7129 125.34 25.1693V34.7749H129.045V24.2894C129.045 20.4032 127.044 18.2401 123.414 18.2401C120.969 18.2401 119.339 19.34 118.561 21.1731H118.302V18.5701H114.708C114.745 18.5701 114.745 34.7749 114.745 34.7749Z" fill="black"/>
<path fill-rule="evenodd" clip-rule="evenodd" d="M6.21206 12.0326C7.29023 12.9024 7.68021 12.8337 9.69893 12.6964L28.7162 11.5519C29.1291 11.5519 28.785 11.1399 28.6474 11.0941L25.4816 8.82806C24.8852 8.37028 24.0594 7.82093 22.5224 7.95826L4.12452 9.30874C3.45926 9.37741 3.32162 9.72075 3.5969 9.97254L6.21206 12.0326ZM7.35905 16.4502V36.4098C7.35905 37.4857 7.88667 37.8748 9.10249 37.8061L30.0008 36.593C31.2166 36.5243 31.3543 35.7918 31.3543 34.922V15.0998C31.3543 14.23 31.0102 13.7493 30.2761 13.818L8.43723 15.0998C7.63433 15.1684 7.35905 15.5804 7.35905 16.4502ZM27.9821 17.5261C28.1197 18.1212 27.9821 18.7392 27.3857 18.8079L26.3763 19.0139V33.7547C25.5046 34.2125 24.7017 34.4871 24.0135 34.4871C22.9353 34.4871 22.66 34.1438 21.8571 33.1367L15.2733 22.8135V32.7933L17.3609 33.2511C17.3609 33.2511 17.3609 34.4642 15.6863 34.4642L11.0524 34.7389C10.9148 34.4642 11.0524 33.8005 11.5112 33.6631L12.727 33.3198V20.1354L11.0524 19.9981C10.9148 19.403 11.2589 18.5332 12.1994 18.4645L17.1774 18.1212L24.0364 28.5588V19.3343L22.293 19.1283C22.1553 18.3959 22.7059 17.8465 23.3712 17.7778L27.9821 17.5261ZM2.58754 7.47759L21.7424 6.08133C24.0823 5.87532 24.7017 6.01266 26.1698 7.08847L32.2719 11.3688C33.2812 12.1013 33.6253 12.3073 33.6253 13.1084V36.6159C33.6253 38.0808 33.0977 38.9506 31.2166 39.0879L8.98779 40.4384C7.56552 40.5071 6.90026 40.3011 6.16618 39.3626L1.647 33.5258C0.8441 32.45 0.5 31.6488 0.5 30.7104V9.81231C0.5 8.59917 1.05056 7.61492 2.58754 7.47759Z" fill="black"/>
</g>
<defs>
<clipPath id="clip0_863_1467">
<rect width="129" height="48" fill="white" transform="translate(0.5)"/>
</clipPath>
</defs>
</svg>
