<?xml version="1.0" encoding="UTF-8"?>
<!DOCTYPE svg PUBLIC "-//W3C//DTD SVG 1.1//EN" "http://www.w3.org/Graphics/SVG/1.1/DTD/svg11.dtd">
<svg xmlns="http://www.w3.org/2000/svg" version="1.1" width="866px" height="288px" style="shape-rendering:geometricPrecision; text-rendering:geometricPrecision; image-rendering:optimizeQuality; fill-rule:evenodd; clip-rule:evenodd" xmlns:xlink="http://www.w3.org/1999/xlink">
<g><path style="opacity:0.666" fill="#000000" d="M 276.5,155.5 C 283.604,148.815 286.938,140.482 286.5,130.5C 285.48,111.636 275.813,99.8022 257.5,95C 234.507,92.8404 220.007,102.34 214,123.5C 211.719,139.762 217.219,152.595 230.5,162C 234.858,164.908 239.524,165.908 244.5,165C 242.699,165.317 242.366,165.984 243.5,167C 246.833,167.667 250.167,167.667 253.5,167C 249.61,165.064 246.61,162.231 244.5,158.5C 245.212,156.954 246.378,155.954 248,155.5C 253.626,159.057 259.126,162.724 264.5,166.5C 264.66,168.199 264.494,169.866 264,171.5C 260.911,175.354 258.078,179.354 255.5,183.5C 248.405,187.412 246.071,185.412 248.5,177.5C 250.287,176.553 251.953,175.387 253.5,174C 233.354,174.187 218.854,165.354 210,147.5C 202.355,121.982 210.188,103.149 233.5,91C 257.48,83.7121 276.146,90.5454 289.5,111.5C 295.658,125.681 294.825,139.681 287,153.5C 284.277,156.557 281.944,159.89 280,163.5C 279.667,163.167 279.333,162.833 279,162.5C 276.161,165.409 273.994,165.075 272.5,161.5C 273.347,159.129 274.68,157.129 276.5,155.5 Z"/></g>
<g><path style="opacity:0.726" fill="#000000" d="M 275.5,154.5 C 274.185,155.476 272.852,156.476 271.5,157.5C 263.84,144.183 256.673,130.517 250,116.5C 248.214,119.736 246.714,123.07 245.5,126.5C 240.325,135.516 235.659,144.849 231.5,154.5C 230.928,156.119 230.595,157.785 230.5,159.5C 229.094,158.049 227.594,156.716 226,155.5C 225.333,154.167 225.333,152.833 226,151.5C 233.633,137.456 240.8,123.123 247.5,108.5C 249.167,107.167 250.833,107.167 252.5,108.5C 260.18,123.86 267.847,139.193 275.5,154.5 Z"/></g>
<g><path style="opacity:0.004" fill="#000000" d="M 245.5,126.5 C 246.833,127.167 246.833,127.167 245.5,126.5 Z"/></g>
<g><path style="opacity:0.532" fill="#000000" d="M 264.5,166.5 C 260.485,156.136 255.652,146.136 250,136.5C 245.849,144.802 241.682,153.136 237.5,161.5C 233.917,162.73 232.751,161.396 234,157.5C 238.412,148.63 242.912,139.797 247.5,131C 248.098,129.699 249.098,128.865 250.5,128.5C 258.558,143.615 266.392,158.948 274,174.5C 274.333,174.167 274.667,173.833 275,173.5C 275.199,175.402 276.033,176.902 277.5,178C 276.167,179.333 276.167,180.667 277.5,182C 276.167,182.667 274.833,182.667 273.5,182C 270.852,176.525 267.852,171.358 264.5,166.5 Z"/></g>
<g><path style="opacity:0.004" fill="#000000" d="M 492.5,128.5 C 493.833,129.167 493.833,129.167 492.5,128.5 Z"/></g>
<g><path style="opacity:0.008" fill="#000000" d="M 496.5,128.5 C 497.833,129.167 497.833,129.167 496.5,128.5 Z"/></g>
<g><path style="opacity:0.008" fill="#000000" d="M 336.5,129.5 C 337.833,130.167 337.833,130.167 336.5,129.5 Z"/></g>
<g><path style="opacity:0.004" fill="#000000" d="M 343.5,129.5 C 344.833,130.167 344.833,130.167 343.5,129.5 Z"/></g>
<g><path style="opacity:0.004" fill="#000000" d="M 397.5,130.5 C 397.897,129.475 398.563,129.308 399.5,130C 398.906,130.464 398.239,130.631 397.5,130.5 Z"/></g>
<g><path style="opacity:0.804" fill="#000000" d="M 397.5,160.5 C 396.525,163.311 395.858,166.311 395.5,169.5C 396.833,169.5 398.167,169.5 399.5,169.5C 400.843,175.18 398.676,177.847 393,177.5C 390.083,177.665 387.417,176.998 385,175.5C 385.076,167.708 386.243,160.041 388.5,152.5C 388.314,149.927 387.314,149.26 385.5,150.5C 385.195,148.081 385.195,145.414 385.5,142.5C 387.288,142.785 388.955,142.452 390.5,141.5C 391.642,138.601 392.308,135.601 392.5,132.5C 395.85,132.665 399.183,132.498 402.5,132C 400.729,131.465 400.396,130.631 401.5,129.5C 403.167,129.833 404.167,130.833 404.5,132.5C 402.287,135.471 401.287,138.804 401.5,142.5C 402.833,142.5 404.167,142.5 405.5,142.5C 405.326,144.861 404.993,147.194 404.5,149.5C 402.712,149.215 401.045,149.548 399.5,150.5C 398.198,153.708 397.531,157.041 397.5,160.5 Z"/></g>
<g><path style="opacity:0.004" fill="#000000" d="M 393.5,130.5 C 394.833,131.167 394.833,131.167 393.5,130.5 Z"/></g>
<g><path style="opacity:0.004" fill="#000000" d="M 395.5,130.5 C 396.833,131.167 396.833,131.167 395.5,130.5 Z"/></g>
<g><path style="opacity:0.705" fill="#000000" d="M 491.5,130.5 C 494.833,130.5 498.167,130.5 501.5,130.5C 501.492,133.545 501.159,136.545 500.5,139.5C 497.223,139.216 494.057,139.549 491,140.5C 490.828,137.174 490.995,133.841 491.5,130.5 Z"/></g>
<g><path style="opacity:0.83" fill="#000000" d="M 335.5,131.5 C 340.167,131.5 344.833,131.5 349.5,131.5C 349.927,146.849 350.594,162.183 351.5,177.5C 347.833,177.5 344.167,177.5 340.5,177.5C 340.5,174.167 340.5,170.833 340.5,167.5C 337.15,167.335 333.817,167.502 330.5,168C 328.765,170.637 327.432,173.47 326.5,176.5C 322.893,177.489 319.226,177.823 315.5,177.5C 318.865,167.6 323.198,158.1 328.5,149C 326.068,147.913 326.402,147.413 329.5,147.5C 331.5,142.167 333.5,136.833 335.5,131.5 Z M 335.5,156.5 C 340.354,140.619 341.687,141.286 339.5,158.5C 337.712,158.785 336.045,158.452 334.5,157.5C 334.624,156.893 334.957,156.56 335.5,156.5 Z"/></g>
<g><path style="opacity:0.817" fill="#000000" d="M 536.5,131.5 C 539.833,131.5 543.167,131.5 546.5,131.5C 543.758,146.879 540.758,162.212 537.5,177.5C 534.167,177.5 530.833,177.5 527.5,177.5C 530.069,162.085 533.069,146.752 536.5,131.5 Z"/></g>
<g><path style="opacity:0.785" fill="#000000" d="M 575.5,144.5 C 574.596,145.209 574.263,146.209 574.5,147.5C 570.5,147.5 566.5,147.5 562.5,147.5C 561.649,140.989 564.316,136.156 570.5,133C 577.565,130.734 584.398,131.234 591,134.5C 593.948,141.984 592.448,148.317 586.5,153.5C 588.174,155.349 589.174,157.516 589.5,160C 586.133,177.317 576.133,182.651 559.5,176C 555.618,171.545 555.284,167.045 558.5,162.5C 562.407,162.143 566.407,162.143 570.5,162.5C 570.5,164.5 570.5,166.5 570.5,168.5C 573.361,168.487 574.361,167.321 573.5,165C 574.26,163.559 574.926,162.059 575.5,160.5C 573.167,159.833 570.833,159.167 568.5,158.5C 569.167,155.833 569.833,153.167 570.5,150.5C 571.242,149.713 572.075,149.047 573,148.5C 573.718,149.451 574.551,149.617 575.5,149C 576.833,147 578.167,145 579.5,143C 577.296,140.931 575.963,141.431 575.5,144.5 Z"/></g>
<g><path style="opacity:0.815" fill="#000000" d="M 607.5,131.5 C 611.514,131.334 615.514,131.501 619.5,132C 625.207,134.176 627.207,138.176 625.5,144C 624.5,144.5 623.5,145 622.5,145.5C 618.953,145.22 615.287,145.22 611.5,145.5C 611.33,144.178 611.663,143.011 612.5,142C 611.216,141.316 610.049,141.483 609,142.5C 608.727,144.101 608.227,145.601 607.5,147C 609.796,147.091 612.13,146.924 614.5,146.5C 621.25,146.417 624.417,149.75 624,156.5C 624.714,150.538 626.381,144.871 629,139.5C 634.971,131.797 642.804,129.297 652.5,132C 656.18,134.857 658.18,138.69 658.5,143.5C 657.591,152.469 655.425,161.135 652,169.5C 645.852,178.085 637.685,180.585 627.5,177C 625.658,175.656 623.992,174.156 622.5,172.5C 622.709,171.914 623.043,171.414 623.5,171C 622.751,169.266 622.251,167.433 622,165.5C 617.256,176.123 609.089,180.29 597.5,178C 594.243,176.738 591.577,174.738 589.5,172C 589.77,160.351 592.27,149.184 597,138.5C 599.701,134.748 603.201,132.415 607.5,131.5 Z M 641.5,141.5 C 643.103,141.312 644.437,141.812 645.5,143C 644.145,147.389 642.479,151.722 640.5,156C 641.293,159.111 641.126,162.277 640,165.5C 639.632,166.91 638.799,167.91 637.5,168.5C 637.198,159.308 638.531,150.308 641.5,141.5 Z M 606.5,157.5 C 607.675,157.281 608.675,157.614 609.5,158.5C 608.926,160.059 608.26,161.559 607.5,163C 607.833,163.333 608.167,163.667 608.5,164C 607.776,166.67 606.109,168.17 603.5,168.5C 603.726,164.593 604.726,160.926 606.5,157.5 Z"/></g>
<g><path style="opacity:0.004" fill="#000000" d="M 333.5,132.5 C 334.833,133.167 334.833,133.167 333.5,132.5 Z"/></g>
<g><path style="opacity:0.004" fill="#000000" d="M 402.5,138.5 C 403.833,139.167 403.833,139.167 402.5,138.5 Z"/></g>
<g><path style="opacity:0.004" fill="#000000" d="M 501.5,138.5 C 502.833,139.167 502.833,139.167 501.5,138.5 Z"/></g>
<g><path style="opacity:0.008" fill="#000000" d="M 405.5,140.5 C 406.833,141.167 406.833,141.167 405.5,140.5 Z"/></g>
<g><path style="opacity:0.006" fill="#000000" d="M 415.5,141.5 C 415.897,140.475 416.563,140.308 417.5,141C 416.906,141.464 416.239,141.631 415.5,141.5 Z"/></g>
<g><path style="opacity:0.004" fill="#000000" d="M 427.5,140.5 C 428.833,141.167 428.833,141.167 427.5,140.5 Z"/></g>
<g><path style="opacity:0.004" fill="#000000" d="M 433.5,141.5 C 432.833,140.167 432.833,140.167 433.5,141.5 Z"/></g>
<g><path style="opacity:0.004" fill="#000000" d="M 478.5,140.5 C 479.833,141.167 479.833,141.167 478.5,140.5 Z"/></g>
<g><path style="opacity:0.008" fill="#000000" d="M 238.5,141.5 C 239.833,142.167 239.833,142.167 238.5,141.5 Z"/></g>
<g><path style="opacity:0.794" fill="#000000" d="M 378.5,172.5 C 372.024,178.735 364.691,179.902 356.5,176C 354.808,173.425 353.808,170.592 353.5,167.5C 353.456,158.162 356.789,150.328 363.5,144C 369.653,140.518 375.653,140.685 381.5,144.5C 383.256,148.288 383.922,152.288 383.5,156.5C 380.326,156.002 376.993,156.002 373.5,156.5C 373.5,154.167 373.5,151.833 373.5,149.5C 368.249,149.572 366.249,152.072 367.5,157C 364.663,159.519 363.996,162.519 365.5,166C 363.1,167.844 363.433,169.344 366.5,170.5C 369.647,168.896 371.313,166.229 371.5,162.5C 374.833,162.5 378.167,162.5 381.5,162.5C 380.901,165.963 379.901,169.296 378.5,172.5 Z"/></g>
<g><path style="opacity:0.823" fill="#000000" d="M 433.5,141.5 C 431.972,152.993 429.805,164.66 427,176.5C 423.404,178.101 420.071,177.768 417,175.5C 412.672,178.804 408.172,179.137 403.5,176.5C 402.063,174.979 401.396,173.145 401.5,171C 403.298,161.807 404.965,152.307 406.5,142.5C 410.226,142.177 413.893,142.511 417.5,143.5C 415.197,152.046 413.53,160.713 412.5,169.5C 414.467,169.739 416.301,169.406 418,168.5C 420.41,159.948 422.244,151.281 423.5,142.5C 427.042,142.813 430.375,142.479 433.5,141.5 Z"/></g>
<g><path style="opacity:0.802" fill="#000000" d="M 445.5,141.5 C 450.267,141.191 454.934,141.691 459.5,143C 460.701,143.903 461.535,145.069 462,146.5C 460.508,156.791 459.008,167.124 457.5,177.5C 454.482,177.665 451.482,177.498 448.5,177C 448,176.5 447.5,176 447,175.5C 441.663,179.773 436.663,179.44 432,174.5C 431.109,169.402 432.109,164.735 435,160.5C 439.385,157.527 444.218,155.694 449.5,155C 451.325,153.534 451.825,151.701 451,149.5C 447.424,148.8 445.591,150.467 445.5,154.5C 442.102,154.82 438.768,154.487 435.5,153.5C 436.801,150.573 437.801,147.573 438.5,144.5C 441.063,143.912 443.396,142.912 445.5,141.5 Z M 447.5,168.5 C 445.951,170.405 444.118,170.739 442,169.5C 441.308,168.563 441.475,167.897 442.5,167.5C 442.263,166.209 442.596,165.209 443.5,164.5C 449.799,159.96 451.132,161.293 447.5,168.5 Z"/></g>
<g><path style="opacity:0.806" fill="#000000" d="M 478.5,141.5 C 478.369,142.239 478.536,142.906 479,143.5C 481.565,141.821 484.398,141.154 487.5,141.5C 487.196,144.522 486.696,147.522 486,150.5C 483.931,151.264 481.764,151.764 479.5,152C 477.667,152.5 476.5,153.667 476,155.5C 474.179,162.782 472.679,170.115 471.5,177.5C 468.167,177.5 464.833,177.5 461.5,177.5C 463.137,166.176 465.47,155.009 468.5,144C 468.167,143.667 467.833,143.333 467.5,143C 471.252,142.76 474.919,142.26 478.5,141.5 Z"/></g>
<g><path style="opacity:0.799" fill="#000000" d="M 511.5,141.5 C 515.182,141.335 518.848,141.501 522.5,142C 524.492,142.574 525.992,143.741 527,145.5C 526.298,156.19 525.131,166.857 523.5,177.5C 519.649,178.029 516.149,177.362 513,175.5C 508.502,178.872 503.835,179.205 499,176.5C 495.806,167.743 498.306,161.243 506.5,157C 510.019,156.605 513.352,155.605 516.5,154C 517.939,151.695 517.439,149.862 515,148.5C 512.09,149.45 510.923,151.45 511.5,154.5C 508.167,154.5 504.833,154.5 501.5,154.5C 501.9,147.782 505.233,143.448 511.5,141.5 Z M 514.5,161.5 C 515.097,161.735 515.43,162.235 515.5,163C 514.495,167.512 511.828,170.012 507.5,170.5C 507.331,165.959 507.998,165.626 509.5,169.5C 509.833,169.333 510.167,169.167 510.5,169C 509.167,168 509.167,167 510.5,166C 509.833,165.667 509.167,165.333 508.5,165C 510.432,163.541 512.432,162.375 514.5,161.5 Z"/></g>
<g><path style="opacity:0.809" fill="#000000" d="M 489.5,142.5 C 492.833,142.5 496.167,142.5 499.5,142.5C 497.059,154.146 494.726,165.813 492.5,177.5C 489.167,177.5 485.833,177.5 482.5,177.5C 484.197,165.68 486.531,154.013 489.5,142.5 Z"/></g>
<g><path style="opacity:0.008" fill="#000000" d="M 575.5,144.5 C 576.833,145.167 576.833,145.167 575.5,144.5 Z"/></g>
<g><path style="opacity:0.004" fill="#000000" d="M 273.5,146.5 C 274.833,147.167 274.833,147.167 273.5,146.5 Z"/></g>
<g><path style="opacity:0.004" fill="#000000" d="M 234.5,152.5 C 234.369,151.761 234.536,151.094 235,150.5C 235.692,151.437 235.525,152.103 234.5,152.5 Z"/></g>
<g><path style="opacity:0.004" fill="#000000" d="M 275.5,151.5 C 275.897,150.475 276.563,150.308 277.5,151C 276.906,151.464 276.239,151.631 275.5,151.5 Z"/></g>
<g><path style="opacity:0.004" fill="#000000" d="M 385.5,150.5 C 386.833,151.167 386.833,151.167 385.5,150.5 Z"/></g>
<g><path style="opacity:0.008" fill="#000000" d="M 447.5,150.5 C 448.833,151.167 448.833,151.167 447.5,150.5 Z"/></g>
<g><path style="opacity:0.004" fill="#000000" d="M 449.5,150.5 C 450.833,151.167 450.833,151.167 449.5,150.5 Z"/></g>
<g><path style="opacity:0.004" fill="#000000" d="M 514.5,151.5 C 514.897,150.475 515.563,150.308 516.5,151C 515.906,151.464 515.239,151.631 514.5,151.5 Z"/></g>
<g><path style="opacity:0.004" fill="#000000" d="M 512.5,151.5 C 513.525,151.897 513.692,152.563 513,153.5C 512.536,152.906 512.369,152.239 512.5,151.5 Z"/></g>
<g><path style="opacity:0.008" fill="#000000" d="M 234.5,152.5 C 233.833,153.167 233.833,153.167 234.5,152.5 Z"/></g>
<g><path style="opacity:0.004" fill="#000000" d="M 245.5,153.5 C 244.833,152.167 244.833,152.167 245.5,153.5 Z"/></g>
<g><path style="opacity:0.02" fill="#000000" d="M 276.5,152.5 C 277.833,153.167 277.833,153.167 276.5,152.5 Z"/></g>
<g><path style="opacity:0.004" fill="#000000" d="M 233.5,153.5 C 232.833,154.167 232.833,154.167 233.5,153.5 Z"/></g>
<g><path style="opacity:0.008" fill="#000000" d="M 245.5,153.5 C 246.833,154.167 246.833,154.167 245.5,153.5 Z"/></g>
<g><path style="opacity:0.008" fill="#000000" d="M 384.5,153.5 C 385.289,153.783 385.956,154.283 386.5,155C 385.184,155.528 384.517,155.028 384.5,153.5 Z"/></g>
<g><path style="opacity:0.004" fill="#000000" d="M 446.5,153.5 C 447.833,154.167 447.833,154.167 446.5,153.5 Z"/></g>
<g><path style="opacity:0.006" fill="#000000" d="M 231.5,154.5 C 231.833,154.5 232.167,154.5 232.5,154.5C 232.167,157.167 231.833,157.167 231.5,154.5 Z"/></g>
<g><path style="opacity:0.004" fill="#000000" d="M 275.5,154.5 C 276.167,154.5 276.5,154.833 276.5,155.5C 276.167,155.167 275.833,154.833 275.5,154.5 Z"/></g>
<g><path style="opacity:0.004" fill="#000000" d="M 367.5,154.5 C 368.833,155.167 368.833,155.167 367.5,154.5 Z"/></g>
<g><path style="opacity:0.008" fill="#000000" d="M 437.5,155.5 C 438.833,156.167 438.833,156.167 437.5,155.5 Z"/></g>
<g><path style="opacity:0.004" fill="#000000" d="M 500.5,155.5 C 501.833,156.167 501.833,156.167 500.5,155.5 Z"/></g>
<g><path style="opacity:0.004" fill="#000000" d="M 399.5,156.5 C 400.833,157.167 400.833,157.167 399.5,156.5 Z"/></g>
<g><path style="opacity:0.012" fill="#000000" d="M 366.5,158.5 C 367.833,159.167 367.833,159.167 366.5,158.5 Z"/></g>
<g><path style="opacity:0.004" fill="#000000" d="M 432.5,158.5 C 433.833,159.167 433.833,159.167 432.5,158.5 Z"/></g>
<g><path style="opacity:0.004" fill="#000000" d="M 432.5,159.5 C 431.833,160.167 431.833,160.167 432.5,159.5 Z"/></g>
<g><path style="opacity:0.008" fill="#000000" d="M 369.5,160.5 C 370.833,161.167 370.833,161.167 369.5,160.5 Z"/></g>
<g><path style="opacity:0.004" fill="#000000" d="M 397.5,160.5 C 398.525,160.897 398.692,161.563 398,162.5C 397.536,161.906 397.369,161.239 397.5,160.5 Z"/></g>
<g><path style="opacity:0.008" fill="#000000" d="M 369.5,161.5 C 368.833,162.167 368.833,162.167 369.5,161.5 Z"/></g>
<g><path style="opacity:0.006" fill="#000000" d="M 475.5,161.5 C 476.525,161.897 476.692,162.563 476,163.5C 475.536,162.906 475.369,162.239 475.5,161.5 Z"/></g>
<g><path style="opacity:0.004" fill="#000000" d="M 281.5,162.5 C 282.833,163.167 282.833,163.167 281.5,162.5 Z"/></g>
<g><path style="opacity:0.004" fill="#000000" d="M 417.5,162.5 C 418.833,163.167 418.833,163.167 417.5,162.5 Z"/></g>
<g><path style="opacity:0.004" fill="#000000" d="M 460.5,162.5 C 461.833,163.167 461.833,163.167 460.5,162.5 Z"/></g>
<g><path style="opacity:0.722" fill="#000000" d="M 287.5,176.5 C 288.804,181.277 290.804,185.777 293.5,190C 293.043,190.414 292.709,190.914 292.5,191.5C 264.506,192.667 236.506,192.833 208.5,192C 207.446,190.612 207.28,189.112 208,187.5C 211.519,179.787 215.519,172.453 220,165.5C 221.833,166 223,167.167 223.5,169C 222.43,171.806 221.097,174.473 219.5,177C 220.167,177.333 220.833,177.667 221.5,178C 220.773,179.399 220.273,180.899 220,182.5C 219.667,181.167 219.333,179.833 219,178.5C 217.878,180.407 217.045,182.407 216.5,184.5C 215.957,184.56 215.624,184.893 215.5,185.5C 238.5,186.833 261.5,186.833 284.5,185.5C 281.697,180.061 279.031,174.561 276.5,169C 277.27,167.225 278.437,165.725 280,164.5C 282.275,168.732 284.775,172.732 287.5,176.5 Z"/></g>
<g><path style="opacity:0.004" fill="#000000" d="M 555.5,164.5 C 556.833,165.167 556.833,165.167 555.5,164.5 Z"/></g>
<g><path style="opacity:0.005" fill="#000000" d="M 442.5,167.5 C 443.363,166.537 444.03,166.537 444.5,167.5C 443.743,168.773 443.077,168.773 442.5,167.5 Z"/></g>
<g><path style="opacity:0.004" fill="#000000" d="M 365.5,168.5 C 366.833,169.167 366.833,169.167 365.5,168.5 Z"/></g>
<g><path style="opacity:0.004" fill="#000000" d="M 284.5,169.5 C 285.833,170.167 285.833,170.167 284.5,169.5 Z"/></g>
<g><path style="opacity:0.008" fill="#000000" d="M 337.5,169.5 C 338.833,170.167 338.833,170.167 337.5,169.5 Z"/></g>
<g><path style="opacity:0.393" fill="#000000" d="M 227.5,182.5 C 225.288,183.4 223.621,182.566 222.5,180C 225.693,176.923 226.026,174.256 223.5,172C 225.556,171.689 227.556,171.189 229.5,170.5C 230.881,171 231.547,172 231.5,173.5C 229.877,176.409 228.543,179.409 227.5,182.5 Z"/></g>
<g><path style="opacity:0.004" fill="#000000" d="M 285.5,172.5 C 285.897,171.475 286.563,171.308 287.5,172C 286.906,172.464 286.239,172.631 285.5,172.5 Z"/></g>
<g><path style="opacity:0.004" fill="#000000" d="M 381.5,171.5 C 382.833,172.167 382.833,172.167 381.5,171.5 Z"/></g>
<g><path style="opacity:0.004" fill="#000000" d="M 378.5,172.5 C 379.833,173.167 379.833,173.167 378.5,172.5 Z"/></g>
<g><path style="opacity:0.007" fill="#000000" d="M 222.5,173.5 C 223.776,174.386 223.776,175.386 222.5,176.5C 221.913,175.767 221.913,174.767 222.5,173.5 Z"/></g>
<g><path style="opacity:0.004" fill="#000000" d="M 352.5,173.5 C 353.833,174.167 353.833,174.167 352.5,173.5 Z"/></g>
<g><path style="opacity:0.008" fill="#000000" d="M 382.5,173.5 C 383.833,174.167 383.833,174.167 382.5,173.5 Z"/></g>
<g><path style="opacity:0.004" fill="#000000" d="M 287.5,175.5 C 288.833,176.167 288.833,176.167 287.5,175.5 Z"/></g>
<g><path style="opacity:0.004" fill="#000000" d="M 376.5,175.5 C 377.833,176.167 377.833,176.167 376.5,175.5 Z"/></g>
<g><path style="opacity:0.004" fill="#000000" d="M 382.5,175.5 C 383.833,176.167 383.833,176.167 382.5,175.5 Z"/></g>
<g><path style="opacity:0.008" fill="#000000" d="M 248.5,177.5 C 247.833,176.167 247.833,176.167 248.5,177.5 Z"/></g>
<g><path style="opacity:0.004" fill="#000000" d="M 247.5,177.5 C 246.833,178.167 246.833,178.167 247.5,177.5 Z"/></g>
<g><path style="opacity:0.004" fill="#000000" d="M 277.5,179.5 C 278.833,180.167 278.833,180.167 277.5,179.5 Z"/></g>
<g><path style="opacity:0.004" fill="#000000" d="M 290.5,181.5 C 291.833,182.167 291.833,182.167 290.5,181.5 Z"/></g>
<g><path style="opacity:0.012" fill="#000000" d="M 227.5,182.5 C 228.833,183.167 228.833,183.167 227.5,182.5 Z"/></g>
<g><path style="opacity:0.008" fill="#000000" d="M 255.5,183.5 C 256.167,183.5 256.5,183.833 256.5,184.5C 256.167,184.167 255.833,183.833 255.5,183.5 Z"/></g>
<g><path style="opacity:0.008" fill="#000000" d="M 216.5,184.5 C 217.552,184.351 218.552,184.517 219.5,185C 218.251,185.74 217.251,185.573 216.5,184.5 Z"/></g>
<g><path style="opacity:0.008" fill="#000000" d="M 245.5,184.5 C 246.833,185.167 246.833,185.167 245.5,184.5 Z"/></g>
<g><path style="opacity:0.016" fill="#000000" d="M 256.5,184.5 C 257.833,185.167 257.833,185.167 256.5,184.5 Z"/></g>
<g><path style="opacity:0.004" fill="#000000" d="M 292.5,184.5 C 293.833,185.167 293.833,185.167 292.5,184.5 Z"/></g>
</svg>
