<?xml version="1.0" encoding="UTF-8"?>
<!DOCTYPE svg PUBLIC "-//W3C//DTD SVG 1.1//EN" "http://www.w3.org/Graphics/SVG/1.1/DTD/svg11.dtd">
<svg xmlns="http://www.w3.org/2000/svg" version="1.1" width="3096px" height="1512px" style="shape-rendering:geometricPrecision; text-rendering:geometricPrecision; image-rendering:optimizeQuality; fill-rule:evenodd; clip-rule:evenodd" xmlns:xlink="http://www.w3.org/1999/xlink">
<g><path style="opacity:0.987" fill="#000000" d="M 969.5,591.5 C 968.167,591.833 968.167,592.167 969.5,592.5C 970.488,596.789 971.321,601.122 972,605.5C 972.556,603.405 973.056,603.238 973.5,605C 972.164,607.364 972.498,609.531 974.5,611.5C 974.392,612.442 974.059,613.275 973.5,614C 976.252,631.272 975.918,648.438 972.5,665.5C 973.428,666.768 973.595,668.101 973,669.5C 972.667,668.833 972.333,668.167 972,667.5C 971.582,671.934 970.749,676.267 969.5,680.5C 967.244,684.076 965.744,688.41 965,693.5C 956.348,710.228 946.182,725.561 934.5,739.5C 932.133,740.164 930.133,741.497 928.5,743.5C 933.536,756.835 935.869,770.668 935.5,785C 935.521,809.126 930.187,831.626 919.5,852.5C 918.167,852.833 918.167,853.167 919.5,853.5C 890.121,906.016 845.288,933.683 785,936.5C 768.58,935.249 752.414,932.415 736.5,928C 730.966,925.651 725.466,923.151 720,920.5C 705.87,969.273 675.536,1002.94 629,1021.5C 628.676,1023.57 627.842,1023.9 626.5,1022.5C 621.304,1023.7 616.47,1025.7 612,1028.5C 611.439,1027.98 610.772,1027.64 610,1027.5C 603.552,1028.86 597.219,1030.53 591,1032.5C 583.807,1031.58 576.64,1031.42 569.5,1032C 552.081,1063.08 527.581,1087.25 496,1104.5C 491.888,1104.56 488.221,1106.23 485,1109.5C 484.586,1109.04 484.086,1108.71 483.5,1108.5C 480.135,1110.06 476.802,1111.39 473.5,1112.5C 466.465,1113.7 459.632,1115.7 453,1118.5C 451.56,1117.85 450.06,1117.52 448.5,1117.5C 449.555,1122.81 448.888,1127.98 446.5,1133C 447.603,1134.68 447.27,1136.18 445.5,1137.5C 445.709,1138.09 446.043,1138.59 446.5,1139C 444.964,1141.71 443.63,1144.55 442.5,1147.5C 442.709,1148.09 443.043,1148.59 443.5,1149C 440.267,1155.26 436.6,1161.26 432.5,1167C 432.833,1167.33 433.167,1167.67 433.5,1168C 428.414,1173.41 423.747,1179.08 419.5,1185C 414.197,1190.81 408.197,1195.65 401.5,1199.5C 397.248,1202.42 392.914,1205.26 388.5,1208C 387.551,1208.62 386.718,1208.45 386,1207.5C 383.579,1209.11 381.079,1210.45 378.5,1211.5C 378.167,1210.17 377.833,1210.17 377.5,1211.5C 370.92,1212.76 364.586,1214.76 358.5,1217.5C 347.346,1217.48 336.179,1217.48 325,1217.5C 319.104,1215.09 313.104,1213.09 307,1211.5C 306.586,1211.96 306.086,1212.29 305.5,1212.5C 278.633,1201.5 257.967,1183 243.5,1157C 243.833,1156.67 244.167,1156.33 244.5,1156C 242.709,1153.59 241.043,1151.09 239.5,1148.5C 239.709,1147.91 240.043,1147.41 240.5,1147C 235.118,1135 233.118,1122.33 234.5,1109C 232.873,1092.12 236.207,1076.46 244.5,1062C 244.167,1061.67 243.833,1061.33 243.5,1061C 244.667,1059.83 245.833,1058.67 247,1057.5C 248.932,1053.39 251.099,1049.39 253.5,1045.5C 259.815,1037.35 266.982,1030.02 275,1023.5C 275.667,1021.83 275.667,1020.17 275,1018.5C 273.103,1015.87 271.603,1013.04 270.5,1010C 270.957,1009.59 271.291,1009.09 271.5,1008.5C 269.994,1004.46 268.494,1000.46 267,996.5C 266.236,989.381 264.902,982.381 263,975.5C 260.144,951.872 262.977,929.038 271.5,907C 271.043,906.586 270.709,906.086 270.5,905.5C 273.906,897.006 277.74,888.673 282,880.5C 284.96,876.011 287.794,871.344 290.5,866.5C 278.448,848.932 268.781,830.099 261.5,810C 261.645,809.228 261.978,808.561 262.5,808C 259.653,800.105 257.986,791.938 257.5,783.5C 257.527,776.003 257.527,768.503 257.5,761C 263.123,708.074 289.289,667.574 336,639.5C 336.333,639.833 336.667,640.167 337,640.5C 339.08,638.877 341.246,637.377 343.5,636C 351.729,633.093 359.896,629.927 368,626.5C 368.772,626.645 369.439,626.978 370,627.5C 372.951,625.924 376.117,625.257 379.5,625.5C 379.544,617.42 378.378,609.42 376,601.5C 374.383,587.288 375.883,573.455 380.5,560C 379.591,558.211 379.424,556.377 380,554.5C 382.275,550.079 384.109,545.579 385.5,541C 385.043,540.586 384.709,540.086 384.5,539.5C 386.167,536.833 387.833,534.167 389.5,531.5C 388.828,529.14 389.661,527.14 392,525.5C 392.72,520.898 394.887,517.064 398.5,514C 398.167,513.667 397.833,513.333 397.5,513C 400.177,509.957 402.677,506.79 405,503.5C 432.074,465.252 470.24,444.085 519.5,440C 529.772,439.388 539.939,440.221 550,442.5C 551.107,442.415 552.107,442.081 553,441.5C 559.81,444.86 566.977,446.694 574.5,447C 597.672,416.481 628.005,397.481 665.5,390C 664.304,389.346 664.304,388.846 665.5,388.5C 684.833,387.167 704.167,387.167 723.5,388.5C 775.912,400.994 813.079,432.66 835,483.5C 835.49,484.793 835.657,486.127 835.5,487.5C 845.142,487.314 854.476,488.981 863.5,492.5C 864.167,492.167 864.833,491.833 865.5,491.5C 917.254,508.611 951.921,541.944 969.5,591.5 Z"/></g>
<g><path style="opacity:0.004" fill="#000000" d="M 969.5,591.5 C 970.833,592.167 970.833,592.167 969.5,591.5 Z"/></g>
<g><path style="opacity:0.906" fill="#000000" d="M 1686.5,758.5 C 1683.2,761.652 1680.37,765.319 1678,769.5C 1675.92,771.123 1673.75,772.623 1671.5,774C 1672.64,774.741 1672.64,775.575 1671.5,776.5C 1666.67,781.641 1661.67,786.641 1656.5,791.5C 1663.62,800.383 1670.28,810.05 1676.5,820.5C 1677.69,821.853 1679.02,823.02 1680.5,824C 1680.17,824.333 1679.83,824.667 1679.5,825C 1682.91,828.453 1685.41,832.62 1687,837.5C 1687.33,837.167 1687.67,836.833 1688,836.5C 1688.71,839.866 1690.54,842.366 1693.5,844C 1693.17,844.333 1692.83,844.667 1692.5,845C 1693.97,845.71 1694.64,846.876 1694.5,848.5C 1696.94,848.119 1697.61,848.786 1696.5,850.5C 1700.17,855.171 1703.34,860.171 1706,865.5C 1708.83,866.995 1710.99,869.161 1712.5,872C 1712.36,872.772 1712.02,873.439 1711.5,874C 1712.96,875.582 1714.63,876.915 1716.5,878C 1716.82,881.036 1718.49,883.702 1721.5,886C 1721.17,886.333 1720.83,886.667 1720.5,887C 1721.87,888.242 1722.87,889.742 1723.5,891.5C 1725.19,892.228 1726.69,893.228 1728,894.5C 1728.51,896.878 1729.18,899.212 1730,901.5C 1735.04,904.409 1736.88,908.576 1735.5,914C 1732.91,914.226 1730.41,914.726 1728,915.5C 1704.21,914.228 1680.55,914.228 1657,915.5C 1651.58,914.691 1646.08,914.191 1640.5,914C 1637.67,910.5 1634.83,907 1632,903.5C 1631.34,898.66 1628.84,894.993 1624.5,892.5C 1622.93,887.032 1620.1,882.365 1616,878.5C 1614.56,873.944 1611.89,870.278 1608,867.5C 1606.86,865.382 1606.36,863.382 1606.5,861.5C 1604.51,859.344 1602.34,857.344 1600,855.5C 1597.34,857.44 1594.68,859.44 1592,861.5C 1591.63,863.698 1591.13,865.865 1590.5,868C 1590.48,881.587 1590.81,895.253 1591.5,909C 1589.91,912.256 1587.41,914.423 1584,915.5C 1560.84,914.216 1537.17,914.216 1513,915.5C 1509.72,915.081 1506.89,913.747 1504.5,911.5C 1503.33,816.502 1503.17,721.502 1504,626.5C 1504.98,624.113 1506.81,622.946 1509.5,623C 1536.52,622.211 1563.52,622.378 1590.5,623.5C 1590.89,668.041 1591.06,713.041 1591,758.5C 1595.31,752.189 1600.31,746.522 1606,741.5C 1607.67,738.833 1609.33,736.167 1611,733.5C 1611.33,734.167 1611.67,734.833 1612,735.5C 1613.77,732.582 1615.27,729.582 1616.5,726.5C 1619.39,726.78 1620.89,725.447 1621,722.5C 1622.42,721.54 1623.92,720.707 1625.5,720C 1624.83,719.667 1624.17,719.333 1623.5,719C 1627.6,716.955 1630.44,713.788 1632,709.5C 1632.9,708.299 1634.07,707.465 1635.5,707C 1666.83,706.5 1698.16,706.333 1729.5,706.5C 1729.68,708.591 1729.35,710.591 1728.5,712.5C 1725.08,715.907 1722.08,719.574 1719.5,723.5C 1717.87,725.503 1715.87,726.836 1713.5,727.5C 1709.45,734.084 1704.28,740.084 1698,745.5C 1697.52,746.448 1697.35,747.448 1697.5,748.5C 1693.27,751.056 1689.6,754.389 1686.5,758.5 Z"/></g>
<g><path style="opacity:0.925" fill="#000000" d="M 1202.5,701.5 C 1201.86,702.097 1201.53,702.93 1201.5,704C 1204.05,711.581 1207.05,718.914 1210.5,726C 1210.26,726.873 1209.93,727.707 1209.5,728.5C 1209.85,729.696 1210.35,729.696 1211,728.5C 1210.5,732.886 1211.17,737.219 1213,741.5C 1214.53,743.221 1215.53,745.221 1216,747.5C 1216.33,747.167 1216.67,746.833 1217,746.5C 1219,752.46 1220,758.46 1220,764.5C 1221.98,765.543 1222.48,766.877 1221.5,768.5C 1222.9,772.707 1224.9,776.54 1227.5,780C 1226.64,780.689 1225.98,781.522 1225.5,782.5C 1227.19,787.053 1228.69,791.719 1230,796.5C 1230.83,797.333 1231.67,798.167 1232.5,799C 1231.42,800.726 1231.26,802.559 1232,804.5C 1232.33,803.5 1232.67,802.5 1233,801.5C 1233.23,803.78 1234.07,805.78 1235.5,807.5C 1234.44,810.103 1234.27,812.77 1235,815.5C 1236.62,818.291 1237.79,821.291 1238.5,824.5C 1239.92,826.291 1241.26,828.125 1242.5,830C 1241.27,831.587 1241.61,832.921 1243.5,834C 1242.43,834.739 1241.76,835.739 1241.5,837C 1245.63,844.775 1248.97,852.942 1251.5,861.5C 1250.44,864.103 1250.27,866.77 1251,869.5C 1252.67,872.983 1254.67,876.317 1257,879.5C 1256.72,881.679 1256.88,883.679 1257.5,885.5C 1257.21,887.735 1257.54,889.735 1258.5,891.5C 1260.42,897.734 1262.75,903.401 1265.5,908.5C 1264.1,909.842 1264.43,910.676 1266.5,911C 1264.38,913.142 1261.88,914.642 1259,915.5C 1234.49,914.224 1210.16,914.224 1186,915.5C 1180.09,915.986 1175.75,913.652 1173,908.5C 1172.85,904.902 1171.85,901.569 1170,898.5C 1169.66,892.461 1169,886.461 1168,880.5C 1165.88,879.78 1165.38,878.613 1166.5,877C 1143.84,876.5 1121.17,876.333 1098.5,876.5C 1100.37,881.119 1099.7,885.286 1096.5,889C 1098.21,891.722 1097.71,893.889 1095,895.5C 1094.29,898.595 1093.29,901.595 1092,904.5C 1091.28,906.112 1091.45,907.612 1092.5,909C 1090.9,910.066 1089.9,911.566 1089.5,913.5C 1088.67,913.833 1087.83,914.167 1087,914.5C 1061.74,914.525 1036.4,914.858 1011,915.5C 1008.59,914.726 1006.09,914.226 1003.5,914C 1001,902.789 1003.5,892.622 1011,883.5C 1011.69,881.432 1011.52,879.432 1010.5,877.5C 1010.84,874.964 1011.84,872.797 1013.5,871C 1012.45,869.244 1012.45,867.41 1013.5,865.5C 1015.79,863.098 1017.46,860.265 1018.5,857C 1018.36,856.228 1018.02,855.561 1017.5,855C 1019.7,853.631 1020.03,851.798 1018.5,849.5C 1019.53,845.815 1020.86,842.315 1022.5,839C 1022.17,838.667 1021.83,838.333 1021.5,838C 1022.45,837.517 1023.45,837.351 1024.5,837.5C 1024.1,834.956 1024.77,832.789 1026.5,831C 1026.17,830.667 1025.83,830.333 1025.5,830C 1026.57,829.261 1027.24,828.261 1027.5,827C 1026.54,824.88 1026.37,822.713 1027,820.5C 1029.04,814.997 1031.37,809.664 1034,804.5C 1035.23,799.79 1035.9,795.123 1036,790.5C 1041.06,783.759 1043.22,776.259 1042.5,768C 1042.96,765.602 1044.29,763.936 1046.5,763C 1045.59,761.301 1045.26,759.467 1045.5,757.5C 1046.5,757.5 1047.5,757.5 1048.5,757.5C 1049.65,749.244 1051.31,741.078 1053.5,733C 1057.88,728.058 1059.71,722.225 1059,715.5C 1061.63,708.594 1064.46,701.76 1067.5,695C 1066.54,692.88 1066.37,690.713 1067,688.5C 1068.36,681.72 1070.86,675.553 1074.5,670C 1074.25,667.856 1074.25,665.856 1074.5,664C 1076.89,657.221 1079.56,650.554 1082.5,644C 1080.88,641.863 1081.21,640.197 1083.5,639C 1082.41,634.261 1083.75,630.261 1087.5,627C 1117.83,626.5 1148.16,626.333 1178.5,626.5C 1180.8,633.604 1183.3,640.27 1186,646.5C 1186.36,651.635 1187.36,656.635 1189,661.5C 1192.04,664.912 1194.04,668.912 1195,673.5C 1194.79,676.811 1194.79,680.144 1195,683.5C 1197.56,687.473 1199.72,691.64 1201.5,696C 1200.48,697.049 1200.32,698.216 1201,699.5C 1201.33,699.167 1201.67,698.833 1202,698.5C 1202.48,699.448 1202.65,700.448 1202.5,701.5 Z M 1132.5,743.5 C 1132.39,745.903 1133.39,747.736 1135.5,749C 1134.97,751.136 1135.8,752.97 1138,754.5C 1138.64,757.536 1138.47,760.536 1137.5,763.5C 1137.97,766.547 1138.97,769.381 1140.5,772C 1139.62,776.036 1140.79,779.536 1144,782.5C 1145.99,787.409 1146.49,792.409 1145.5,797.5C 1145.98,800.083 1146.65,802.583 1147.5,805C 1137.82,805.832 1128.15,805.665 1118.5,804.5C 1118.07,803.707 1117.74,802.873 1117.5,802C 1120.06,797.949 1121.72,793.449 1122.5,788.5C 1121.24,786.18 1121.9,784.346 1124.5,783C 1123.69,782.692 1123.03,782.192 1122.5,781.5C 1122.93,775.624 1124.93,770.457 1128.5,766C 1128.26,765.127 1127.93,764.293 1127.5,763.5C 1130.53,759.361 1131.53,754.861 1130.5,750C 1130.34,747.456 1131,745.29 1132.5,743.5 Z"/></g>
<g><path style="opacity:0.933" fill="#000000" d="M 1894.5,680.5 C 1893.17,680.833 1893.17,681.167 1894.5,681.5C 1893.84,687.236 1895.51,692.069 1899.5,696C 1898.14,698.575 1898.8,700.575 1901.5,702C 1900.54,704.835 1900.71,707.668 1902,710.5C 1902.33,709.5 1902.67,708.5 1903,707.5C 1902.63,710.38 1902.8,713.213 1903.5,716C 1905.73,720.617 1907.23,725.45 1908,730.5C 1908.81,732.577 1909.97,734.411 1911.5,736C 1910.69,736.308 1910.03,736.808 1909.5,737.5C 1911.01,741.541 1912.51,745.541 1914,749.5C 1914.92,750.047 1915.76,750.713 1916.5,751.5C 1915.52,753.098 1915.35,754.765 1916,756.5C 1916.33,755.5 1916.67,754.5 1917,753.5C 1917.56,757.095 1918.73,760.428 1920.5,763.5C 1918.34,765.093 1918.17,766.76 1920,768.5C 1921.67,765.485 1923.34,762.485 1925,759.5C 1925.39,748.91 1928.39,739.243 1934,730.5C 1934.5,728.473 1934.33,726.473 1933.5,724.5C 1933.68,721.885 1934.68,719.719 1936.5,718C 1935.47,714.33 1936.63,711.497 1940,709.5C 1940.37,707 1941.21,704.667 1942.5,702.5C 1941.97,701.808 1941.31,701.308 1940.5,701C 1942.59,700.047 1942.93,698.714 1941.5,697C 1942.2,691.46 1944.37,686.627 1948,682.5C 1949.2,679.813 1949.36,677.146 1948.5,674.5C 1949.03,673.808 1949.69,673.308 1950.5,673C 1949.28,669.654 1949.94,666.654 1952.5,664C 1951.7,662.251 1952.37,660.918 1954.5,660C 1953.98,659.439 1953.64,658.772 1953.5,658C 1956.85,653.104 1958.35,647.604 1958,641.5C 1959.36,636.082 1961.86,631.249 1965.5,627C 2002.5,626.5 2039.5,626.333 2076.5,626.5C 2076.67,722.167 2076.5,817.834 2076,913.5C 2074,914.167 2072,914.833 2070,915.5C 2045.8,914.548 2021.97,914.548 1998.5,915.5C 1995.36,915.054 1992.69,913.721 1990.5,911.5C 1989.67,879.839 1989.17,848.172 1989,816.5C 1988.67,818.167 1988.33,819.833 1988,821.5C 1987.67,820.5 1987.33,819.5 1987,818.5C 1985.82,823.925 1984.32,829.258 1982.5,834.5C 1981.33,838.531 1981.33,842.531 1982.5,846.5C 1980.24,847.345 1979.57,848.678 1980.5,850.5C 1977.48,856.418 1975.15,862.585 1973.5,869C 1973.57,869.765 1973.9,870.265 1974.5,870.5C 1974.5,871.833 1974.5,873.167 1974.5,874.5C 1971.1,874.633 1970.77,875.633 1973.5,877.5C 1972.97,878.192 1972.31,878.692 1971.5,879C 1972.55,880.388 1972.72,881.888 1972,883.5C 1966.83,891.857 1964.66,900.857 1965.5,910.5C 1964.5,910.5 1963.5,910.5 1962.5,910.5C 1962.34,912.824 1961.17,914.491 1959,915.5C 1937.34,914.83 1916.01,914.83 1895,915.5C 1890.25,914.695 1885.42,914.195 1880.5,914C 1875.96,903.877 1872.29,893.377 1869.5,882.5C 1871.13,880.613 1870.8,879.113 1868.5,878C 1869.59,875.936 1869.76,873.769 1869,871.5C 1867.35,870.221 1866.19,868.555 1865.5,866.5C 1864.55,862.509 1863.21,858.676 1861.5,855C 1863.4,853.192 1863.9,851.025 1863,848.5C 1862.67,849.833 1862.33,851.167 1862,852.5C 1861.55,849.16 1861.05,845.826 1860.5,842.5C 1856.08,834.383 1854.08,825.716 1854.5,816.5C 1853.33,813.791 1852.16,811.125 1851,808.5C 1849.84,843.36 1849.01,878.36 1848.5,913.5C 1847.81,914.025 1847.31,914.692 1847,915.5C 1820.53,915.104 1794.2,915.104 1768,915.5C 1766.03,914.695 1764.53,913.361 1763.5,911.5C 1763.17,864.5 1762.83,817.5 1762.5,770.5C 1762.51,722.395 1763.18,674.395 1764.5,626.5C 1801.84,626.167 1839.17,626.5 1876.5,627.5C 1878.44,634.813 1881.44,641.646 1885.5,648C 1884.17,649.84 1884.33,650.34 1886,649.5C 1886.67,650.833 1886.67,652.167 1886,653.5C 1885.35,652.304 1884.85,652.304 1884.5,653.5C 1886.22,659.714 1888.56,665.714 1891.5,671.5C 1891.29,672.086 1890.96,672.586 1890.5,673C 1891.97,674.098 1892.8,675.598 1893,677.5C 1893.33,677.167 1893.67,676.833 1894,676.5C 1894.49,677.793 1894.66,679.127 1894.5,680.5 Z"/></g>
<g><path style="opacity:0.004" fill="#000000" d="M 2077.5,627.5 C 2078.67,721.666 2078.83,815.999 2078,910.5C 2077.5,816.167 2077.33,721.834 2077.5,627.5 Z"/></g>
<g><path style="opacity:0.004" fill="#000000" d="M 969.5,680.5 C 970.833,681.167 970.833,681.167 969.5,680.5 Z"/></g>
<g><path style="opacity:0.004" fill="#000000" d="M 1894.5,680.5 C 1895.83,681.167 1895.83,681.167 1894.5,680.5 Z"/></g>
<g><path style="opacity:1" fill="#fdfdfc" d="M 504.5,682.5 C 533.84,680.305 552.34,693.305 560,721.5C 561.623,754.373 546.123,772.706 513.5,776.5C 481.824,772.992 466.324,755.326 467,723.5C 470.989,702.012 483.489,688.346 504.5,682.5 Z"/></g>
<g><path style="opacity:1" fill="#fcfdfc" d="M 626.5,682.5 C 654.031,680.249 672.531,691.916 682,717.5C 685.888,745.579 674.721,764.746 648.5,775C 626.456,779.382 608.956,772.549 596,754.5C 583.315,728.258 588.482,706.424 611.5,689C 616.443,686.525 621.443,684.359 626.5,682.5 Z"/></g>
<g><path style="opacity:1" fill="#fdfdfc" d="M 749.5,682.5 C 778.649,680.637 797.149,693.637 805,721.5C 806.623,754.373 791.123,772.706 758.5,776.5C 732.539,774.706 717.039,761.04 712,735.5C 710.703,707.978 723.203,690.311 749.5,682.5 Z"/></g>
<g><path style="opacity:0.004" fill="#000000" d="M 1895.5,687.5 C 1896.83,688.167 1896.83,688.167 1895.5,687.5 Z"/></g>
<g><path style="opacity:0.902" fill="#000000" d="M 1377.5,697.5 C 1378.55,698.53 1379.89,699.197 1381.5,699.5C 1387.43,699.758 1393.43,699.424 1399.5,698.5C 1402.57,698.404 1405.07,699.404 1407,701.5C 1411.13,700.732 1415.13,700.732 1419,701.5C 1422.6,702.754 1426.1,704.254 1429.5,706C 1433.89,706.62 1438.22,707.453 1442.5,708.5C 1443.17,708.167 1443.83,707.833 1444.5,707.5C 1447,708.964 1449.67,710.131 1452.5,711C 1451.83,711.333 1451.17,711.667 1450.5,712C 1451.79,712.49 1453.13,712.657 1454.5,712.5C 1454.34,714.527 1454.5,716.527 1455,718.5C 1455.33,717.167 1455.67,715.833 1456,714.5C 1456.67,736.833 1456.67,759.167 1456,781.5C 1455.67,779.833 1455.33,778.167 1455,776.5C 1455.05,779.941 1453.88,782.774 1451.5,785C 1447.88,784.108 1444.38,782.608 1441,780.5C 1440.23,780.645 1439.56,780.978 1439,781.5C 1432.72,779.719 1426.55,777.552 1420.5,775C 1421.17,774.667 1421.83,774.333 1422.5,774C 1418.83,773.667 1415.17,773.333 1411.5,773C 1411,772.5 1410.5,772 1410,771.5C 1408.58,773.363 1406.75,773.863 1404.5,773C 1405.83,772.667 1407.17,772.333 1408.5,772C 1405,771.664 1401.5,771.831 1398,772.5C 1395.95,772.309 1394.12,771.642 1392.5,770.5C 1386.19,771.208 1379.86,771.874 1373.5,772.5C 1371.06,770.721 1370.06,771.387 1370.5,774.5C 1371.87,774.343 1373.21,774.51 1374.5,775C 1374.17,775.333 1373.83,775.667 1373.5,776C 1377.4,778.76 1381.57,779.594 1386,778.5C 1387.24,780.833 1388.91,781.5 1391,780.5C 1392.73,781.249 1394.57,781.749 1396.5,782C 1395.83,782.333 1395.17,782.667 1394.5,783C 1403.28,784.751 1411.78,787.251 1420,790.5C 1421.39,789.446 1422.89,789.28 1424.5,790C 1426.74,792.404 1429.4,794.237 1432.5,795.5C 1433.88,792.924 1434.72,793.258 1435,796.5C 1435.33,796.167 1435.67,795.833 1436,795.5C 1439.29,798.775 1443.12,801.275 1447.5,803C 1449.69,806.692 1452.69,809.526 1456.5,811.5C 1459.24,815.73 1461.74,820.064 1464,824.5C 1464.33,824.167 1464.67,823.833 1465,823.5C 1466.75,830.67 1468.09,838.003 1469,845.5C 1469.5,846 1470,846.5 1470.5,847C 1469.26,849.618 1469.26,852.285 1470.5,855C 1470.39,856.722 1469.89,856.888 1469,855.5C 1468.43,862.996 1467.1,870.329 1465,877.5C 1462.02,881.439 1459.52,885.772 1457.5,890.5C 1454.8,892.556 1452.13,895.389 1449.5,899C 1445.42,900.371 1441.76,902.204 1438.5,904.5C 1438.5,905.5 1438.5,906.5 1438.5,907.5C 1431.03,908.733 1424.2,911.399 1418,915.5C 1417.13,915.265 1416.29,914.931 1415.5,914.5C 1408.96,916.269 1402.29,917.435 1395.5,918C 1394.87,918.75 1394.37,919.584 1394,920.5C 1388.83,920.482 1383.66,920.149 1378.5,919.5C 1378.17,923.5 1377.83,923.5 1377.5,919.5C 1372.46,920.537 1367.46,920.537 1362.5,919.5C 1361.83,923.5 1361.17,923.5 1360.5,919.5C 1358.53,919.261 1356.7,919.594 1355,920.5C 1342.51,918.309 1329.84,916.309 1317,914.5C 1315.77,914.645 1314.61,914.978 1313.5,915.5C 1306.4,911.848 1298.9,908.848 1291,906.5C 1290.5,881.836 1290.33,857.169 1290.5,832.5C 1297.88,833.017 1304.88,834.85 1311.5,838C 1310.17,838.667 1310.17,839.333 1311.5,840C 1314.82,841.511 1318.16,842.011 1321.5,841.5C 1327.32,843.188 1332.98,845.355 1338.5,848C 1343.92,848.361 1349.26,849.194 1354.5,850.5C 1363.03,849.178 1371.53,849.178 1380,850.5C 1381.33,849.833 1382.67,849.167 1384,848.5C 1384.46,847.256 1383.96,846.423 1382.5,846C 1379.54,844.436 1376.54,844.269 1373.5,845.5C 1364.32,842.177 1355.49,838.843 1347,835.5C 1345.53,835.903 1344.19,836.57 1343,837.5C 1336.71,834.187 1330.38,830.853 1324,827.5C 1323.28,828.451 1322.45,828.617 1321.5,828C 1317.05,824.532 1312.39,821.532 1307.5,819C 1306.14,816.631 1304.47,814.464 1302.5,812.5C 1301.01,812.467 1299.68,811.967 1298.5,811C 1298.83,810.667 1299.17,810.333 1299.5,810C 1295.61,805.779 1292.11,801.279 1289,796.5C 1288.33,795.167 1288.33,793.833 1289,792.5C 1289.65,793.696 1290.15,793.696 1290.5,792.5C 1288.57,789.18 1286.74,785.846 1285,782.5C 1284.3,779.287 1284.46,776.121 1285.5,773C 1283.74,770.733 1283.24,768.233 1284,765.5C 1284.89,766.888 1285.39,766.722 1285.5,765C 1283.8,759.956 1284.46,755.29 1287.5,751C 1287.66,745.019 1289.33,739.519 1292.5,734.5C 1296.26,730.508 1299.93,726.342 1303.5,722C 1304.83,721.333 1306.17,720.667 1307.5,720C 1306.83,719.667 1306.17,719.333 1305.5,719C 1312.56,715.431 1318.06,711.598 1322,707.5C 1328.03,707.713 1333.53,705.879 1338.5,702C 1343.98,701.146 1349.32,699.979 1354.5,698.5C 1359.55,698.548 1364.71,698.881 1370,699.5C 1372.93,699.475 1375.43,698.809 1377.5,697.5 Z"/></g>
<g><path style="opacity:0.917" fill="#000000" d="M 2491.5,698.5 C 2496.87,699.471 2502.2,699.471 2507.5,698.5C 2509.47,699.305 2510.97,700.639 2512,702.5C 2512.67,724.5 2512.67,746.5 2512,768.5C 2511.36,770.303 2510.2,771.636 2508.5,772.5C 2504.54,773.66 2500.54,773.827 2496.5,773C 2498.6,772.444 2498.76,771.944 2497,771.5C 2491.66,773.144 2486.16,773.978 2480.5,774C 2481.83,774.667 2481.83,775.333 2480.5,776C 2474.71,778.294 2468.71,779.961 2462.5,781C 2459.22,784.124 2455.55,786.624 2451.5,788.5C 2448.57,792.288 2445.74,796.288 2443,800.5C 2441.49,804.843 2439.99,809.176 2438.5,813.5C 2439.04,815.523 2438.54,817.523 2437,819.5C 2436.67,850.833 2436.33,882.167 2436,913.5C 2433.33,914.167 2430.67,914.833 2428,915.5C 2404.31,914.497 2380.65,914.497 2357,915.5C 2356.09,914.672 2355.42,913.672 2355,912.5C 2354.33,844.167 2354.33,775.833 2355,707.5C 2382.09,706.505 2409.26,706.172 2436.5,706.5C 2436.33,718.171 2436.5,729.838 2437,741.5C 2438.29,739.208 2439.96,737.208 2442,735.5C 2443.13,733.655 2443.63,731.655 2443.5,729.5C 2444.5,729.5 2445.5,729.5 2446.5,729.5C 2450.65,721.527 2456.98,715.694 2465.5,712C 2465.17,711.667 2464.83,711.333 2464.5,711C 2466.44,709.097 2468.77,708.264 2471.5,708.5C 2471.41,705.402 2471.91,705.068 2473,707.5C 2478.81,703.511 2484.98,700.511 2491.5,698.5 Z"/></g>
<g><path style="opacity:0.904" fill="#000000" d="M 2306.5,748.5 C 2306.82,750.048 2307.82,750.715 2309.5,750.5C 2309.34,753.518 2309.5,756.518 2310,759.5C 2312.02,762.368 2312.86,765.368 2312.5,768.5C 2312.82,771.976 2313.82,775.142 2315.5,778C 2315.04,778.414 2314.71,778.914 2314.5,779.5C 2315.13,783.034 2315.8,786.534 2316.5,790C 2315.68,829.43 2315.68,869.263 2316.5,909.5C 2315.27,910.59 2314.44,911.924 2314,913.5C 2312.33,914.167 2310.67,914.833 2309,915.5C 2285.08,914.584 2261.08,914.584 2237,915.5C 2234.17,915.042 2231.84,913.708 2230,911.5C 2229.67,904.5 2229.33,897.5 2229,890.5C 2221.82,903.67 2210.98,912.504 2196.5,917C 2197.7,917.654 2197.7,918.154 2196.5,918.5C 2195.39,917.978 2194.23,917.645 2193,917.5C 2190.05,918.914 2186.88,919.747 2183.5,920C 2182.13,923.41 2181.46,923.243 2181.5,919.5C 2179.17,919.5 2176.83,919.5 2174.5,919.5C 2174.54,923.243 2173.87,923.41 2172.5,920C 2169.02,920.445 2165.52,919.945 2162,918.5C 2161.67,918.833 2161.33,919.167 2161,919.5C 2159.57,917.213 2157.74,916.88 2155.5,918.5C 2154.3,918.154 2154.3,917.654 2155.5,917C 2149.47,915.514 2144.14,912.847 2139.5,909C 2135.39,908.061 2132.73,905.561 2131.5,901.5C 2129.06,900.197 2126.9,898.53 2125,896.5C 2125.98,894.721 2125.65,893.055 2124,891.5C 2118.79,887.689 2116.63,882.689 2117.5,876.5C 2116.83,875.833 2116.17,875.167 2115.5,874.5C 2116.18,872.412 2116.51,870.412 2116.5,868.5C 2116.14,863.646 2115.14,858.979 2113.5,854.5C 2115.75,852.086 2116.08,849.42 2114.5,846.5C 2115.99,844.193 2116.99,841.693 2117.5,839C 2116.57,838.612 2115.91,837.945 2115.5,837C 2116.77,832.298 2118.44,827.798 2120.5,823.5C 2121.5,823.5 2122.5,823.5 2123.5,823.5C 2123.69,821.436 2124.19,819.436 2125,817.5C 2129.36,814.228 2133.19,810.395 2136.5,806C 2140.94,803.875 2144.78,801.041 2148,797.5C 2149.39,798.554 2150.89,798.72 2152.5,798C 2151.83,797.667 2151.17,797.333 2150.5,797C 2152.79,796.054 2154.95,794.887 2157,793.5C 2157.56,794.022 2158.23,794.355 2159,794.5C 2174.43,789.774 2190.27,788.441 2206.5,790.5C 2206.71,791.086 2207.04,791.586 2207.5,792C 2214.85,792.798 2222.18,793.631 2229.5,794.5C 2229.15,791.572 2228.48,788.738 2227.5,786C 2228.73,784.413 2228.39,783.079 2226.5,782C 2224.94,781.682 2223.77,780.849 2223,779.5C 2220.29,780.219 2217.79,779.552 2215.5,777.5C 2213.05,778.626 2211.05,777.959 2209.5,775.5C 2199.28,775.995 2189.12,776.995 2179,778.5C 2177.56,778.441 2176.23,778.108 2175,777.5C 2172.62,779.744 2169.96,780.077 2167,778.5C 2166.05,780.592 2164.71,780.925 2163,779.5C 2162.5,780 2162,780.5 2161.5,781C 2157.5,781.333 2153.5,781.667 2149.5,782C 2145.23,785.643 2140.57,787.81 2135.5,788.5C 2134.67,787.5 2133.83,786.5 2133,785.5C 2132.79,781.911 2132.29,778.411 2131.5,775C 2132.65,756.494 2132.65,737.827 2131.5,719C 2133.85,715.645 2137.18,713.978 2141.5,714C 2143.89,711.202 2146.73,710.036 2150,710.5C 2152.37,708.883 2155.04,707.883 2158,707.5C 2158.77,707.645 2159.44,707.978 2160,708.5C 2165.72,707.176 2171.55,706.343 2177.5,706C 2181.35,704.187 2185.35,702.854 2189.5,702C 2199.14,701.009 2208.81,700.509 2218.5,700.5C 2225.24,700.522 2231.74,701.188 2238,702.5C 2238.89,701.919 2239.89,701.585 2241,701.5C 2244.64,702.622 2248.14,704.122 2251.5,706C 2256,706.293 2260.16,707.46 2264,709.5C 2266.05,708.577 2267.88,709.077 2269.5,711C 2269.17,711.333 2268.83,711.667 2268.5,712C 2282.03,716.61 2292.53,725.443 2300,738.5C 2300.33,738.167 2300.67,737.833 2301,737.5C 2302.34,741.507 2304.17,745.173 2306.5,748.5 Z M 2215.5,834.5 C 2220.17,834.5 2224.83,834.5 2229.5,834.5C 2229.29,836.144 2229.62,837.644 2230.5,839C 2228.83,841.508 2227.83,844.342 2227.5,847.5C 2228.43,848.768 2228.59,850.101 2228,851.5C 2226.61,855.042 2224.11,857.042 2220.5,857.5C 2217.37,863.39 2212.37,865.556 2205.5,864C 2203.83,862.331 2201.83,861.498 2199.5,861.5C 2199.56,858.951 2198.56,856.951 2196.5,855.5C 2197.8,852.301 2197.8,849.135 2196.5,846C 2198.18,841.611 2201.18,838.611 2205.5,837C 2205.17,836.667 2204.83,836.333 2204.5,836C 2206,835.493 2207.16,835.993 2208,837.5C 2210.48,836.188 2212.98,835.188 2215.5,834.5 Z"/></g>
<g><path style="opacity:0.004" fill="#000000" d="M 1202.5,701.5 C 1203.57,702.251 1203.74,703.251 1203,704.5C 1202.52,703.552 1202.35,702.552 1202.5,701.5 Z"/></g>
<g><path style="opacity:0.917" fill="#000000" d="M 2658.5,761.5 C 2658.59,754.052 2660.76,747.385 2665,741.5C 2665.33,737.5 2665.67,733.5 2666,729.5C 2666.33,730.833 2666.67,732.167 2667,733.5C 2667.5,730.978 2667.33,728.478 2666.5,726C 2667.41,722.184 2668.25,718.351 2669,714.5C 2671.12,713.78 2671.62,712.613 2670.5,711C 2671.69,709.981 2672.69,708.814 2673.5,707.5C 2700.49,706.5 2727.49,706.167 2754.5,706.5C 2754.67,712.509 2754.5,718.509 2754,724.5C 2753.67,722.833 2753.33,721.167 2753,719.5C 2750.16,728.672 2748.16,738.006 2747,747.5C 2746.67,745.5 2746.33,743.5 2746,741.5C 2745.71,743.891 2745.21,746.224 2744.5,748.5C 2745.84,750.375 2745.34,751.708 2743,752.5C 2740.4,758.831 2738.9,765.498 2738.5,772.5C 2737.91,772.291 2737.41,771.957 2737,771.5C 2736.41,772.899 2736.57,774.232 2737.5,775.5C 2736.48,776.354 2735.64,777.354 2735,778.5C 2734.09,782.899 2732.59,787.066 2730.5,791C 2732.46,796.104 2731.29,800.271 2727,803.5C 2724.84,810.393 2723.17,817.393 2722,824.5C 2719.63,825.927 2719.13,827.761 2720.5,830C 2719.33,830.5 2718.5,831.333 2718,832.5C 2717.4,836.353 2716.23,840.02 2714.5,843.5C 2715.11,846.051 2714.95,848.718 2714,851.5C 2713.33,850.167 2712.67,850.167 2712,851.5C 2710.7,857.239 2708.86,862.739 2706.5,868C 2707.55,869.388 2707.72,870.888 2707,872.5C 2706.67,871.833 2706.33,871.167 2706,870.5C 2703.87,875.575 2702.54,880.908 2702,886.5C 2701.33,887.167 2700.67,887.833 2700,888.5C 2699.83,892.211 2699.33,895.878 2698.5,899.5C 2696.37,897.383 2696.04,898.049 2697.5,901.5C 2697.15,902.696 2696.65,902.696 2696,901.5C 2695.69,903.556 2695.19,905.556 2694.5,907.5C 2694.71,908.086 2695.04,908.586 2695.5,909C 2693.32,911.525 2691.66,914.358 2690.5,917.5C 2691.48,919.098 2691.65,920.765 2691,922.5C 2690.67,921.5 2690.33,920.5 2690,919.5C 2689.69,920.766 2689.19,921.933 2688.5,923C 2689.97,923.71 2690.64,924.876 2690.5,926.5C 2689.18,926.33 2688.01,926.663 2687,927.5C 2674.92,955.084 2654.42,972.751 2625.5,980.5C 2599.8,981.824 2574.13,981.824 2548.5,980.5C 2547.17,958.833 2547.17,937.167 2548.5,915.5C 2552.43,912.466 2556.76,911.799 2561.5,913.5C 2562.48,913.023 2563.31,912.357 2564,911.5C 2566.67,912.833 2569.33,912.833 2572,911.5C 2576.2,913.932 2580.7,914.766 2585.5,914C 2586.13,913.25 2586.63,912.416 2587,911.5C 2592.93,914.122 2598.77,913.955 2604.5,911C 2602.37,909.619 2600.03,908.619 2597.5,908C 2594.35,905.399 2593.35,902.232 2594.5,898.5C 2592.53,893.988 2590.36,890.321 2588,887.5C 2586.16,882.138 2585.16,876.805 2585,871.5C 2581.89,868.403 2580.39,864.903 2580.5,861C 2578.88,860.147 2578.54,859.147 2579.5,858C 2577.83,856.433 2577.5,854.766 2578.5,853C 2576.95,847.068 2574.45,841.568 2571,836.5C 2569.63,832.836 2569.3,829.169 2570,825.5C 2567.28,821.31 2564.95,816.976 2563,812.5C 2562.24,810.231 2562.41,808.064 2563.5,806C 2560.13,799.245 2557.13,792.245 2554.5,785C 2556.1,783.093 2555.77,781.593 2553.5,780.5C 2554.37,778.295 2553.71,776.462 2551.5,775C 2552.62,773.387 2552.12,772.22 2550,771.5C 2549.73,769.899 2549.23,768.399 2548.5,767C 2548.83,766.667 2549.17,766.333 2549.5,766C 2548.02,764.116 2546.69,762.116 2545.5,760C 2547.21,758.867 2547.71,757.367 2547,755.5C 2546.67,756.167 2546.33,756.833 2546,757.5C 2545.9,752.962 2544.4,748.962 2541.5,745.5C 2539.38,739.677 2538.05,733.677 2537.5,727.5C 2533.02,721.878 2530.85,715.544 2531,708.5C 2531.33,709.833 2531.67,711.167 2532,712.5C 2532.5,710.527 2532.66,708.527 2532.5,706.5C 2561.17,706.5 2589.83,706.5 2618.5,706.5C 2618.26,711.557 2619.92,715.724 2623.5,719C 2622.69,719.308 2622.03,719.808 2621.5,720.5C 2622.87,723.973 2624.54,727.306 2626.5,730.5C 2624.7,732.205 2624.03,734.038 2624.5,736C 2625.26,738.069 2625.76,740.236 2626,742.5C 2626.33,741.167 2626.67,739.833 2627,738.5C 2627.87,739.108 2628.37,739.941 2628.5,741C 2627.48,743.787 2627.32,746.62 2628,749.5C 2630.05,755.471 2631.88,761.137 2633.5,766.5C 2632.29,768.817 2632.79,770.817 2635,772.5C 2635.24,774.764 2635.74,776.931 2636.5,779C 2635.2,779.804 2634.53,780.971 2634.5,782.5C 2638.65,791.895 2640.82,801.562 2641,811.5C 2641.69,810.975 2642.19,810.308 2642.5,809.5C 2641.67,808.549 2641.51,807.549 2642,806.5C 2643.19,808.623 2643.86,810.957 2644,813.5C 2644.84,811.158 2646.17,809.158 2648,807.5C 2648.25,804.15 2649.08,800.983 2650.5,798C 2650.55,795.902 2650.22,793.736 2649.5,791.5C 2651.26,785.007 2653.59,778.673 2656.5,772.5C 2657.55,770.59 2657.55,768.756 2656.5,767C 2659.41,765.827 2660.08,763.994 2658.5,761.5 Z"/></g>
<g><path style="opacity:0.004" fill="#000000" d="M 1908.5,726.5 C 1909.57,727.251 1909.74,728.251 1909,729.5C 1908.52,728.552 1908.35,727.552 1908.5,726.5 Z"/></g>
<g><path style="opacity:0.004" fill="#000000" d="M 2752.5,726.5 C 2753.83,727.167 2753.83,727.167 2752.5,726.5 Z"/></g>
<g><path style="opacity:0.004" fill="#000000" d="M 2306.5,748.5 C 2306.37,747.761 2306.54,747.094 2307,746.5C 2307.69,747.437 2307.53,748.103 2306.5,748.5 Z"/></g>
<g><path style="opacity:0.004" fill="#000000" d="M 1686.5,758.5 C 1687.83,759.167 1687.83,759.167 1686.5,758.5 Z"/></g>
<g><path style="opacity:0.004" fill="#000000" d="M 2658.5,761.5 C 2658.65,762.552 2658.48,763.552 2658,764.5C 2657.26,763.251 2657.43,762.251 2658.5,761.5 Z"/></g>
<g><path style="opacity:0.004" fill="#000000" d="M 2314.5,771.5 C 2315.53,771.897 2315.69,772.563 2315,773.5C 2314.54,772.906 2314.37,772.239 2314.5,771.5 Z"/></g>
<g><path style="opacity:0.004" fill="#000000" d="M 2314.5,774.5 C 2315.83,775.167 2315.83,775.167 2314.5,774.5 Z"/></g>
<g><path style="opacity:0.004" fill="#000000" d="M 1025.5,826.5 C 1026.83,827.167 1026.83,827.167 1025.5,826.5 Z"/></g>
<g><path style="opacity:0.004" fill="#000000" d="M 1346.5,836.5 C 1347.83,837.167 1347.83,837.167 1346.5,836.5 Z"/></g>
<g><path style="opacity:0.004" fill="#000000" d="M 1243.5,837.5 C 1244.83,838.167 1244.83,838.167 1243.5,837.5 Z"/></g>
<g><path style="opacity:0.004" fill="#000000" d="M 1288.5,837.5 C 1289.83,838.167 1289.83,838.167 1288.5,837.5 Z"/></g>
<g><path style="opacity:0.004" fill="#000000" d="M 1983.5,837.5 C 1984.83,838.167 1984.83,838.167 1983.5,837.5 Z"/></g>
<g><path style="opacity:0.004" fill="#000000" d="M 919.5,852.5 C 920.833,853.167 920.833,853.167 919.5,852.5 Z"/></g>
<g><path style="opacity:0.004" fill="#000000" d="M 2712.5,853.5 C 2713.83,854.167 2713.83,854.167 2712.5,853.5 Z"/></g>
<g><path style="opacity:0.004" fill="#000000" d="M 1288.5,869.5 C 1289.83,870.167 1289.83,870.167 1288.5,869.5 Z"/></g>
<g><path style="opacity:0.004" fill="#000000" d="M 1974.5,869.5 C 1975.83,870.167 1975.83,870.167 1974.5,869.5 Z"/></g>
<g><path style="opacity:0.004" fill="#000000" d="M 1257.5,885.5 C 1257.37,884.761 1257.54,884.094 1258,883.5C 1258.69,884.437 1258.53,885.103 1257.5,885.5 Z"/></g>
<g><path style="opacity:0.004" fill="#000000" d="M 1288.5,885.5 C 1289.83,886.167 1289.83,886.167 1288.5,885.5 Z"/></g>
<g><path style="opacity:0.004" fill="#000000" d="M 1258.5,891.5 C 1258.34,890.127 1258.51,888.793 1259,887.5C 1259.76,889.066 1259.6,890.399 1258.5,891.5 Z"/></g>
<g><path style="opacity:0.004" fill="#000000" d="M 1288.5,893.5 C 1289.83,894.167 1289.83,894.167 1288.5,893.5 Z"/></g>
<g><path style="opacity:0.004" fill="#000000" d="M 1328.5,918.5 C 1328.9,917.475 1329.56,917.308 1330.5,918C 1329.91,918.464 1329.24,918.631 1328.5,918.5 Z"/></g>
<g><path style="opacity:0.004" fill="#000000" d="M 1404.5,918.5 C 1405.6,917.402 1406.93,917.235 1408.5,918C 1407.21,918.49 1405.87,918.657 1404.5,918.5 Z"/></g>
<g><path style="opacity:0.004" fill="#000000" d="M 1400.5,918.5 C 1401.83,919.167 1401.83,919.167 1400.5,918.5 Z"/></g>
<g><path style="opacity:0.004" fill="#000000" d="M 473.5,1112.5 C 474.833,1113.17 474.833,1113.17 473.5,1112.5 Z"/></g>
<g><path style="opacity:0.004" fill="#000000" d="M 401.5,1199.5 C 402.833,1200.17 402.833,1200.17 401.5,1199.5 Z"/></g>
<g><path style="opacity:0.004" fill="#000000" d="M 377.5,1211.5 C 377.833,1211.5 378.167,1211.5 378.5,1211.5C 378.315,1212.17 377.981,1212.17 377.5,1211.5 Z"/></g>
</svg>
