<?xml version="1.0" encoding="UTF-8"?>
<!DOCTYPE svg PUBLIC "-//W3C//DTD SVG 1.1//EN" "http://www.w3.org/Graphics/SVG/1.1/DTD/svg11.dtd">
<svg xmlns="http://www.w3.org/2000/svg" version="1.1" width="1000px" height="1000px" style="shape-rendering:geometricPrecision; text-rendering:geometricPrecision; image-rendering:optimizeQuality; fill-rule:evenodd; clip-rule:evenodd" xmlns:xlink="http://www.w3.org/1999/xlink">
<g><path style="opacity:1" fill="#f1eaea" d="M -0.5,-0.5 C 85.5,-0.5 171.5,-0.5 257.5,-0.5C 257.718,136.829 257.051,274.163 255.5,411.5C 247.596,402.463 237.596,397.297 225.5,396C 199.531,394.577 173.531,394.077 147.5,394.5C 146.502,427.662 146.168,460.996 146.5,494.5C 148.833,494.5 151.167,494.5 153.5,494.5C 153.5,497.167 153.5,499.833 153.5,502.5C 148.833,502.5 144.167,502.5 139.5,502.5C 139.5,503.5 139.5,504.5 139.5,505.5C 143.634,506.485 147.968,506.818 152.5,506.5C 152.172,517.679 152.505,528.679 153.5,539.5C 153.5,545.5 153.5,551.5 153.5,557.5C 158.833,557.5 164.167,557.5 169.5,557.5C 169.5,560.5 169.5,563.5 169.5,566.5C 164.167,566.5 158.833,566.5 153.5,566.5C 153.5,577.167 153.5,587.833 153.5,598.5C 157.5,598.5 161.5,598.5 165.5,598.5C 165.5,599.833 165.5,601.167 165.5,602.5C 183.167,602.5 200.833,602.5 218.5,602.5C 218.5,601.167 218.5,599.833 218.5,598.5C 230.833,598.5 243.167,598.5 255.5,598.5C 254.275,673.833 254.275,749.167 255.5,824.5C 255.099,882.851 254.432,941.184 253.5,999.5C 168.833,999.5 84.1667,999.5 -0.5,999.5C -0.5,666.167 -0.5,332.833 -0.5,-0.5 Z"/></g>
<g><path style="opacity:1" fill="#f3ecec" d="M 257.5,-0.5 C 270.167,-0.5 282.833,-0.5 295.5,-0.5C 294.729,135.495 294.063,271.495 293.5,407.5C 293.5,436.833 293.5,466.167 293.5,495.5C 289.958,495.187 286.625,495.521 283.5,496.5C 283.5,498.167 283.5,499.833 283.5,501.5C 286.833,501.5 290.167,501.5 293.5,501.5C 293.5,535.167 293.5,568.833 293.5,602.5C 292.96,734.853 292.293,867.186 291.5,999.5C 278.833,999.5 266.167,999.5 253.5,999.5C 254.432,941.184 255.099,882.851 255.5,824.5C 254.275,749.167 254.275,673.833 255.5,598.5C 259.5,598.5 263.5,598.5 267.5,598.5C 268.479,595.375 268.813,592.042 268.5,588.5C 264.167,588.5 259.833,588.5 255.5,588.5C 255.5,586.833 255.5,585.167 255.5,583.5C 259.5,583.5 263.5,583.5 267.5,583.5C 267.5,575.833 267.5,568.167 267.5,560.5C 266.167,560.5 264.833,560.5 263.5,560.5C 263.5,548.167 263.5,535.833 263.5,523.5C 269.833,523.5 276.167,523.5 282.5,523.5C 282.5,522.5 282.5,521.5 282.5,520.5C 280.5,520.5 278.5,520.5 276.5,520.5C 274.816,512.634 271.149,505.801 265.5,500C 263.5,499.667 261.5,499.333 259.5,499C 255.513,495.003 250.846,492.003 245.5,490C 254.984,483.195 260.484,474.028 262,462.5C 263.054,448.737 262.388,435.07 260,421.5C 258.214,418.264 256.714,414.93 255.5,411.5C 257.051,274.163 257.718,136.829 257.5,-0.5 Z"/></g>
<g><path style="opacity:1" fill="#f6f0f0" d="M 295.5,-0.5 C 374.167,-0.5 452.833,-0.5 531.5,-0.5C 530.634,149.16 529.967,298.827 529.5,448.5C 521.984,442.492 513.317,439.325 503.5,439C 485.836,438.5 468.17,438.333 450.5,438.5C 449.502,464.661 449.169,490.995 449.5,517.5C 451.167,517.5 452.833,517.5 454.5,517.5C 454.5,519.5 454.5,521.5 454.5,523.5C 451.5,523.5 448.5,523.5 445.5,523.5C 444.566,524.568 444.232,525.901 444.5,527.5C 447.833,527.5 451.167,527.5 454.5,527.5C 454.173,537.348 454.506,547.014 455.5,556.5C 455.5,560.167 455.5,563.833 455.5,567.5C 459.5,567.5 463.5,567.5 467.5,567.5C 467.5,569.833 467.5,572.167 467.5,574.5C 463.5,574.5 459.5,574.5 455.5,574.5C 455.5,582.833 455.5,591.167 455.5,599.5C 458.5,599.5 461.5,599.5 464.5,599.5C 464.5,600.5 464.5,601.5 464.5,602.5C 477.833,602.5 491.167,602.5 504.5,602.5C 504.5,601.5 504.5,600.5 504.5,599.5C 512.833,599.5 521.167,599.5 529.5,599.5C 528.954,732.844 528.287,866.178 527.5,999.5C 448.833,999.5 370.167,999.5 291.5,999.5C 292.293,867.186 292.96,734.853 293.5,602.5C 293.833,602.5 294.167,602.5 294.5,602.5C 305.167,602.5 315.833,602.5 326.5,602.5C 327.498,570.004 327.832,537.338 327.5,504.5C 329.099,504.768 330.432,504.434 331.5,503.5C 331.5,482.5 331.5,461.5 331.5,440.5C 344.5,440.5 357.5,440.5 370.5,440.5C 370.5,494.5 370.5,548.5 370.5,602.5C 381.833,602.5 393.167,602.5 404.5,602.5C 404.5,601.167 404.5,599.833 404.5,598.5C 402.167,598.5 399.833,598.5 397.5,598.5C 397.5,596.833 397.5,595.167 397.5,593.5C 400.833,593.5 404.167,593.5 407.5,593.5C 408.486,589.03 408.819,584.363 408.5,579.5C 414.358,579.822 420.025,579.489 425.5,578.5C 425.5,577.5 425.5,576.5 425.5,575.5C 420.025,574.511 414.358,574.178 408.5,574.5C 408.5,529.833 408.5,485.167 408.5,440.5C 420.833,440.5 433.167,440.5 445.5,440.5C 445.5,429.833 445.5,419.167 445.5,408.5C 395.003,407.501 344.336,407.168 293.5,407.5C 294.063,271.495 294.729,135.495 295.5,-0.5 Z"/></g>
<g><path style="opacity:1" fill="#fefcfc" d="M 723.5,-0.5 C 815.5,-0.5 907.5,-0.5 999.5,-0.5C 999.5,332.833 999.5,666.167 999.5,999.5C 906.5,999.5 813.5,999.5 720.5,999.5C 721.122,867.165 721.788,734.832 722.5,602.5C 733.5,602.5 744.5,602.5 755.5,602.5C 755.5,593.833 755.5,585.167 755.5,576.5C 758.5,576.5 761.5,576.5 764.5,576.5C 764.5,559.833 764.5,543.167 764.5,526.5C 763.167,526.5 761.833,526.5 760.5,526.5C 760.5,525.167 760.5,523.833 760.5,522.5C 764.167,522.5 767.833,522.5 771.5,522.5C 771.768,520.901 771.434,519.568 770.5,518.5C 767.167,518.5 763.833,518.5 760.5,518.5C 759.596,519.209 759.263,520.209 759.5,521.5C 747.167,521.5 734.833,521.5 722.5,521.5C 722.5,520.5 722.5,519.5 722.5,518.5C 731.839,518.666 741.173,518.5 750.5,518C 740.027,510.499 728.694,504.499 716.5,500C 703.795,493.906 699.628,484.072 704,470.5C 705.961,467.865 708.461,466.031 711.5,465C 726.908,461.248 735.241,467.082 736.5,482.5C 744.836,482.218 753.169,481.884 761.5,481.5C 761.496,466.635 756.163,454.135 745.5,444C 738.624,440.281 731.291,438.114 723.5,437.5C 723.193,291.57 723.193,145.57 723.5,-0.5 Z"/></g>
<g><path style="opacity:1" fill="#827e7e" d="M 147.5,394.5 C 147.5,427.5 147.5,460.5 147.5,493.5C 149.735,493.205 151.735,493.539 153.5,494.5C 151.167,494.5 148.833,494.5 146.5,494.5C 146.168,460.996 146.502,427.662 147.5,394.5 Z"/></g>
<g><path style="opacity:1" fill="#000000" d="M 147.5,394.5 C 173.531,394.077 199.531,394.577 225.5,396C 237.596,397.297 247.596,402.463 255.5,411.5C 256.714,414.93 258.214,418.264 260,421.5C 262.388,435.07 263.054,448.737 262,462.5C 260.484,474.028 254.984,483.195 245.5,490C 250.846,492.003 255.513,495.003 259.5,499C 261.5,499.333 263.5,499.667 265.5,500C 271.149,505.801 274.816,512.634 276.5,520.5C 278.5,520.5 280.5,520.5 282.5,520.5C 282.5,521.5 282.5,522.5 282.5,523.5C 276.167,523.5 269.833,523.5 263.5,523.5C 263.5,535.833 263.5,548.167 263.5,560.5C 264.833,560.5 266.167,560.5 267.5,560.5C 267.5,568.167 267.5,575.833 267.5,583.5C 263.5,583.5 259.5,583.5 255.5,583.5C 254.539,585.265 254.205,587.265 254.5,589.5C 258.833,589.5 263.167,589.5 267.5,589.5C 267.5,592.5 267.5,595.5 267.5,598.5C 263.5,598.5 259.5,598.5 255.5,598.5C 243.167,598.5 230.833,598.5 218.5,598.5C 218.5,599.833 218.5,601.167 218.5,602.5C 200.833,602.5 183.167,602.5 165.5,602.5C 165.5,601.167 165.5,599.833 165.5,598.5C 161.5,598.5 157.5,598.5 153.5,598.5C 153.5,587.833 153.5,577.167 153.5,566.5C 158.833,566.5 164.167,566.5 169.5,566.5C 169.5,563.5 169.5,560.5 169.5,557.5C 164.167,557.5 158.833,557.5 153.5,557.5C 153.5,551.5 153.5,545.5 153.5,539.5C 153.5,528.5 153.5,517.5 153.5,506.5C 160.022,506.823 166.355,506.49 172.5,505.5C 172.5,504.5 172.5,503.5 172.5,502.5C 166.167,502.5 159.833,502.5 153.5,502.5C 153.5,499.833 153.5,497.167 153.5,494.5C 151.735,493.539 149.735,493.205 147.5,493.5C 147.5,460.5 147.5,427.5 147.5,394.5 Z"/></g>
<g><path style="opacity:1" fill="#000000" d="M 445.5,408.5 C 445.5,419.167 445.5,429.833 445.5,440.5C 433.167,440.5 420.833,440.5 408.5,440.5C 407.501,484.997 407.168,529.664 407.5,574.5C 403.167,574.5 398.833,574.5 394.5,574.5C 394.5,576.167 394.5,577.833 394.5,579.5C 398.833,579.5 403.167,579.5 407.5,579.5C 407.5,584.167 407.5,588.833 407.5,593.5C 404.167,593.5 400.833,593.5 397.5,593.5C 397.5,595.167 397.5,596.833 397.5,598.5C 399.833,598.5 402.167,598.5 404.5,598.5C 404.5,599.833 404.5,601.167 404.5,602.5C 393.167,602.5 381.833,602.5 370.5,602.5C 370.5,548.5 370.5,494.5 370.5,440.5C 357.5,440.5 344.5,440.5 331.5,440.5C 331.5,461.5 331.5,482.5 331.5,503.5C 329.833,503.5 328.167,503.5 326.5,503.5C 326.5,536.5 326.5,569.5 326.5,602.5C 315.833,602.5 305.167,602.5 294.5,602.5C 294.5,568.833 294.5,535.167 294.5,501.5C 300.5,501.5 306.5,501.5 312.5,501.5C 313.461,499.735 313.795,497.735 313.5,495.5C 307.167,495.5 300.833,495.5 294.5,495.5C 294.5,466.5 294.5,437.5 294.5,408.5C 344.833,408.5 395.167,408.5 445.5,408.5 Z"/></g>
<g><path style="opacity:1" fill="#c4bfbf" d="M 188.5,429.5 C 188.5,446.5 188.5,463.5 188.5,480.5C 193.167,480.5 197.833,480.5 202.5,480.5C 197.695,481.487 192.695,481.821 187.5,481.5C 187.17,463.992 187.503,446.659 188.5,429.5 Z"/></g>
<g><path style="opacity:1" fill="#f0e9e9" d="M 188.5,429.5 C 197.226,429.161 205.893,429.661 214.5,431C 218.165,432.668 220.332,435.501 221,439.5C 223.132,450.247 222.799,460.914 220,471.5C 216.031,477.998 210.198,480.998 202.5,480.5C 197.833,480.5 193.167,480.5 188.5,480.5C 188.5,463.5 188.5,446.5 188.5,429.5 Z"/></g>
<g><path style="opacity:1" fill="#000000" d="M 723.5,437.5 C 731.291,438.114 738.624,440.281 745.5,444C 756.163,454.135 761.496,466.635 761.5,481.5C 753.169,481.884 744.836,482.218 736.5,482.5C 735.241,467.082 726.908,461.248 711.5,465C 708.461,466.031 705.961,467.865 704,470.5C 699.628,484.072 703.795,493.906 716.5,500C 728.694,504.499 740.027,510.499 750.5,518C 741.173,518.5 731.839,518.666 722.5,518.5C 722.5,519.5 722.5,520.5 722.5,521.5C 734.655,522.495 746.989,522.829 759.5,522.5C 759.232,524.099 759.566,525.432 760.5,526.5C 761.833,526.5 763.167,526.5 764.5,526.5C 764.5,543.167 764.5,559.833 764.5,576.5C 761.5,576.5 758.5,576.5 755.5,576.5C 755.5,585.167 755.5,593.833 755.5,602.5C 744.5,602.5 733.5,602.5 722.5,602.5C 709.833,602.5 697.167,602.5 684.5,602.5C 684.5,593.833 684.5,585.167 684.5,576.5C 678.833,576.5 673.167,576.5 667.5,576.5C 667.5,570.833 667.5,565.167 667.5,559.5C 670.833,559.5 674.167,559.5 677.5,559.5C 677.5,557.5 677.5,555.5 677.5,553.5C 674.167,553.5 670.833,553.5 667.5,553.5C 667.5,552.167 667.5,550.833 667.5,549.5C 678.167,549.5 688.833,549.5 699.5,549.5C 699.5,558.5 699.5,567.5 699.5,576.5C 710.833,576.5 722.167,576.5 733.5,576.5C 733.5,562.833 733.5,549.167 733.5,535.5C 725.167,535.5 716.833,535.5 708.5,535.5C 708.5,530.833 708.5,526.167 708.5,521.5C 698.167,521.5 687.833,521.5 677.5,521.5C 677.5,520.5 677.5,519.5 677.5,518.5C 682.511,518.666 687.511,518.499 692.5,518C 676.105,505.498 669.939,488.998 674,468.5C 675.889,455.27 683.056,446.104 695.5,441C 704.666,438.521 714,437.354 723.5,437.5 Z"/></g>
<g><path style="opacity:1" fill="#000000" d="M 806.5,437.5 C 806.5,459.5 806.5,481.5 806.5,503.5C 817.5,503.5 828.5,503.5 839.5,503.5C 839.5,481.5 839.5,459.5 839.5,437.5C 848.167,437.5 856.833,437.5 865.5,437.5C 865.5,468.5 865.5,499.5 865.5,530.5C 861.833,530.5 858.167,530.5 854.5,530.5C 854.5,532.167 854.5,533.833 854.5,535.5C 858.167,535.5 861.833,535.5 865.5,535.5C 865.5,557.833 865.5,580.167 865.5,602.5C 856.833,602.5 848.167,602.5 839.5,602.5C 839.5,578.5 839.5,554.5 839.5,530.5C 828.5,530.5 817.5,530.5 806.5,530.5C 806.5,554.5 806.5,578.5 806.5,602.5C 797.833,602.5 789.167,602.5 780.5,602.5C 780.5,573.833 780.5,545.167 780.5,516.5C 778.833,516.5 777.167,516.5 775.5,516.5C 775.5,490.167 775.5,463.833 775.5,437.5C 785.833,437.5 796.167,437.5 806.5,437.5 Z"/></g>
<g><path style="opacity:1" fill="#adaaaa" d="M 806.5,437.5 C 807.497,458.994 807.831,480.66 807.5,502.5C 817.833,502.5 828.167,502.5 838.5,502.5C 838.169,480.66 838.503,458.994 839.5,437.5C 839.5,459.5 839.5,481.5 839.5,503.5C 828.5,503.5 817.5,503.5 806.5,503.5C 806.5,481.5 806.5,459.5 806.5,437.5 Z"/></g>
<g><path style="opacity:1" fill="#d7d3d4" d="M 865.5,437.5 C 866.498,468.329 866.831,499.329 866.5,530.5C 871.032,530.182 875.366,530.515 879.5,531.5C 874.833,531.5 870.167,531.5 865.5,531.5C 865.5,532.5 865.5,533.5 865.5,534.5C 870.167,534.5 874.833,534.5 879.5,534.5C 875.03,535.486 870.363,535.819 865.5,535.5C 861.833,535.5 858.167,535.5 854.5,535.5C 854.5,533.833 854.5,532.167 854.5,530.5C 858.167,530.5 861.833,530.5 865.5,530.5C 865.5,499.5 865.5,468.5 865.5,437.5 Z"/></g>
<g><path style="opacity:1" fill="#d4cece" d="M 450.5,438.5 C 450.5,464.5 450.5,490.5 450.5,516.5C 452.167,516.5 453.833,516.5 455.5,516.5C 455.5,518.833 455.5,521.167 455.5,523.5C 455.167,523.5 454.833,523.5 454.5,523.5C 454.5,521.5 454.5,519.5 454.5,517.5C 452.833,517.5 451.167,517.5 449.5,517.5C 449.169,490.995 449.502,464.661 450.5,438.5 Z"/></g>
<g><path style="opacity:1" fill="#000000" d="M 450.5,438.5 C 468.17,438.333 485.836,438.5 503.5,439C 513.317,439.325 521.984,442.492 529.5,448.5C 533.581,452.661 536.081,457.661 537,463.5C 538.398,472.797 538.732,482.13 538,491.5C 537.094,500.812 532.927,508.312 525.5,514C 529.183,515.841 532.516,518.174 535.5,521C 538.007,521.093 540.174,521.926 542,523.5C 545.527,527.554 547.694,532.22 548.5,537.5C 550.167,537.5 551.833,537.5 553.5,537.5C 553.5,538.5 553.5,539.5 553.5,540.5C 548.833,540.5 544.167,540.5 539.5,540.5C 539.5,539.5 539.5,538.5 539.5,537.5C 529.833,537.5 520.167,537.5 510.5,537.5C 510.5,534.5 510.5,531.5 510.5,528.5C 500.5,528.5 490.5,528.5 480.5,528.5C 480.17,544.675 480.504,560.675 481.5,576.5C 487.5,576.5 493.5,576.5 499.5,576.5C 499.5,575.5 499.5,574.5 499.5,573.5C 502.833,573.5 506.167,573.5 509.5,573.5C 510.495,562.679 510.828,551.679 510.5,540.5C 519.833,540.5 529.167,540.5 538.5,540.5C 538.173,550.348 538.506,560.014 539.5,569.5C 540.5,569.5 541.5,569.5 542.5,569.5C 542.5,575.5 542.5,581.5 542.5,587.5C 539.167,587.5 535.833,587.5 532.5,587.5C 532.5,589.167 532.5,590.833 532.5,592.5C 535.833,592.5 539.167,592.5 542.5,592.5C 542.5,594.833 542.5,597.167 542.5,599.5C 538.167,599.5 533.833,599.5 529.5,599.5C 521.167,599.5 512.833,599.5 504.5,599.5C 504.5,600.5 504.5,601.5 504.5,602.5C 491.167,602.5 477.833,602.5 464.5,602.5C 464.5,601.5 464.5,600.5 464.5,599.5C 461.5,599.5 458.5,599.5 455.5,599.5C 455.5,591.167 455.5,582.833 455.5,574.5C 459.5,574.5 463.5,574.5 467.5,574.5C 467.5,572.167 467.5,569.833 467.5,567.5C 463.5,567.5 459.5,567.5 455.5,567.5C 455.5,563.833 455.5,560.167 455.5,556.5C 455.5,546.5 455.5,536.5 455.5,526.5C 460.5,526.5 465.5,526.5 470.5,526.5C 470.5,525.5 470.5,524.5 470.5,523.5C 465.5,523.5 460.5,523.5 455.5,523.5C 455.5,521.167 455.5,518.833 455.5,516.5C 453.833,516.5 452.167,516.5 450.5,516.5C 450.5,490.5 450.5,464.5 450.5,438.5 Z"/></g>
<g><path style="opacity:1" fill="#8a8787" d="M 408.5,440.5 C 408.5,485.167 408.5,529.833 408.5,574.5C 414.358,574.178 420.025,574.511 425.5,575.5C 419.833,575.5 414.167,575.5 408.5,575.5C 408.5,576.5 408.5,577.5 408.5,578.5C 414.167,578.5 419.833,578.5 425.5,578.5C 420.025,579.489 414.358,579.822 408.5,579.5C 408.819,584.363 408.486,589.03 407.5,593.5C 407.5,588.833 407.5,584.167 407.5,579.5C 403.167,579.5 398.833,579.5 394.5,579.5C 394.5,577.833 394.5,576.167 394.5,574.5C 398.833,574.5 403.167,574.5 407.5,574.5C 407.168,529.664 407.501,484.997 408.5,440.5 Z"/></g>
<g><path style="opacity:1" fill="#f3eded" d="M 481.5,465.5 C 489.393,465.318 497.06,466.485 504.5,469C 505.717,470.648 506.55,472.481 507,474.5C 507.87,482.897 507.537,491.23 506,499.5C 504.437,502.728 501.937,504.895 498.5,506C 492.877,507.029 487.21,507.529 481.5,507.5C 481.5,493.5 481.5,479.5 481.5,465.5 Z"/></g>
<g><path style="opacity:1" fill="#0a0a0a" d="M 286.5,483.5 C 287.634,485.966 287.801,488.633 287,491.5C 286.764,489.236 286.264,487.069 285.5,485C 286.056,484.617 286.389,484.117 286.5,483.5 Z"/></g>
<g><path style="opacity:1" fill="#000000" d="M 283.5,496.5 C 286.833,496.5 290.167,496.5 293.5,496.5C 293.5,498.167 293.5,499.833 293.5,501.5C 290.167,501.5 286.833,501.5 283.5,501.5C 283.5,499.833 283.5,498.167 283.5,496.5 Z"/></g>
<g><path style="opacity:1" fill="#928e8e" d="M 293.5,407.5 C 344.336,407.168 395.003,407.501 445.5,408.5C 395.167,408.5 344.833,408.5 294.5,408.5C 294.5,437.5 294.5,466.5 294.5,495.5C 300.833,495.5 307.167,495.5 313.5,495.5C 313.795,497.735 313.461,499.735 312.5,501.5C 312.5,499.833 312.5,498.167 312.5,496.5C 306.5,496.5 300.5,496.5 294.5,496.5C 294.5,498.167 294.5,499.833 294.5,501.5C 294.5,535.167 294.5,568.833 294.5,602.5C 294.167,602.5 293.833,602.5 293.5,602.5C 293.5,568.833 293.5,535.167 293.5,501.5C 293.5,499.833 293.5,498.167 293.5,496.5C 290.167,496.5 286.833,496.5 283.5,496.5C 286.625,495.521 289.958,495.187 293.5,495.5C 293.5,466.167 293.5,436.833 293.5,407.5 Z"/></g>
<g><path style="opacity:1" fill="#efe9e9" d="M 312.5,501.5 C 306.5,501.5 300.5,501.5 294.5,501.5C 294.5,499.833 294.5,498.167 294.5,496.5C 300.5,496.5 306.5,496.5 312.5,496.5C 312.5,498.167 312.5,499.833 312.5,501.5 Z"/></g>
<g><path style="opacity:1" fill="#000000" d="M 153.5,502.5 C 153.5,503.5 153.5,504.5 153.5,505.5C 148.833,505.5 144.167,505.5 139.5,505.5C 139.5,504.5 139.5,503.5 139.5,502.5C 144.167,502.5 148.833,502.5 153.5,502.5 Z"/></g>
<g><path style="opacity:1" fill="#f0e9e9" d="M 153.5,502.5 C 159.833,502.5 166.167,502.5 172.5,502.5C 172.5,503.5 172.5,504.5 172.5,505.5C 166.167,505.5 159.833,505.5 153.5,505.5C 153.5,504.5 153.5,503.5 153.5,502.5 Z"/></g>
<g><path style="opacity:1" fill="#b3aeae" d="M 331.5,503.5 C 330.432,504.434 329.099,504.768 327.5,504.5C 327.832,537.338 327.498,570.004 326.5,602.5C 326.5,569.5 326.5,536.5 326.5,503.5C 328.167,503.5 329.833,503.5 331.5,503.5 Z"/></g>
<g><path style="opacity:1" fill="#aca7a7" d="M 139.5,505.5 C 144.167,505.5 148.833,505.5 153.5,505.5C 159.833,505.5 166.167,505.5 172.5,505.5C 166.355,506.49 160.022,506.823 153.5,506.5C 153.5,517.5 153.5,528.5 153.5,539.5C 152.505,528.679 152.172,517.679 152.5,506.5C 147.968,506.818 143.634,506.485 139.5,505.5 Z"/></g>
<g><path style="opacity:1" fill="#7a7676" d="M 285.5,503.5 C 290.383,504.466 291.717,507.299 289.5,512C 287.559,512.743 285.726,512.576 284,511.5C 283.282,508.593 283.782,505.926 285.5,503.5 Z"/></g>
<g><path style="opacity:1" fill="#efe8e8" d="M 285.5,505.5 C 289.35,505.701 290.35,507.534 288.5,511C 287.365,511.749 286.365,511.583 285.5,510.5C 284.465,508.872 284.465,507.205 285.5,505.5 Z"/></g>
<g><path style="opacity:1" fill="#797575" d="M 142.5,507.5 C 147.383,508.466 148.717,511.299 146.5,516C 144.559,516.743 142.726,516.576 141,515.5C 140.282,512.593 140.782,509.926 142.5,507.5 Z"/></g>
<g><path style="opacity:1" fill="#ede6e6" d="M 142.5,509.5 C 146.35,509.701 147.35,511.534 145.5,515C 144.365,515.749 143.365,515.583 142.5,514.5C 141.465,512.872 141.465,511.205 142.5,509.5 Z"/></g>
<g><path style="opacity:1" fill="#9d9898" d="M 263.5,520.5 C 250.833,520.5 238.167,520.5 225.5,520.5C 225.5,521.5 225.5,522.5 225.5,523.5C 225.5,537.5 225.5,551.5 225.5,565.5C 220.833,565.5 216.167,565.5 211.5,565.5C 211.768,567.099 211.434,568.432 210.5,569.5C 210.5,567.833 210.5,566.167 210.5,564.5C 215.167,564.5 219.833,564.5 224.5,564.5C 224.5,550.833 224.5,537.167 224.5,523.5C 224.5,522.5 224.5,521.5 224.5,520.5C 218.167,520.5 211.833,520.5 205.5,520.5C 211.645,519.51 217.978,519.177 224.5,519.5C 224.5,516.167 224.5,512.833 224.5,509.5C 212.167,509.5 199.833,509.5 187.5,509.5C 187.5,529.5 187.5,549.5 187.5,569.5C 186.503,549.34 186.17,529.007 186.5,508.5C 199.5,508.5 212.5,508.5 225.5,508.5C 225.5,512.167 225.5,515.833 225.5,519.5C 238.344,519.171 251.011,519.505 263.5,520.5 Z"/></g>
<g><path style="opacity:1" fill="#f2ebeb" d="M 205.5,520.5 C 205.5,521.5 205.5,522.5 205.5,523.5C 211.833,523.5 218.167,523.5 224.5,523.5C 224.5,537.167 224.5,550.833 224.5,564.5C 219.833,564.5 215.167,564.5 210.5,564.5C 210.5,566.167 210.5,567.833 210.5,569.5C 202.833,569.5 195.167,569.5 187.5,569.5C 187.5,549.5 187.5,529.5 187.5,509.5C 199.833,509.5 212.167,509.5 224.5,509.5C 224.5,512.833 224.5,516.167 224.5,519.5C 217.978,519.177 211.645,519.51 205.5,520.5 Z"/></g>
<g><path style="opacity:1" fill="#000000" d="M 205.5,520.5 C 211.833,520.5 218.167,520.5 224.5,520.5C 224.5,521.5 224.5,522.5 224.5,523.5C 218.167,523.5 211.833,523.5 205.5,523.5C 205.5,522.5 205.5,521.5 205.5,520.5 Z"/></g>
<g><path style="opacity:1" fill="#f3ecec" d="M 263.5,520.5 C 263.5,521.5 263.5,522.5 263.5,523.5C 250.833,523.5 238.167,523.5 225.5,523.5C 225.5,522.5 225.5,521.5 225.5,520.5C 238.167,520.5 250.833,520.5 263.5,520.5 Z"/></g>
<g><path style="opacity:1" fill="#949090" d="M 760.5,518.5 C 760.5,519.5 760.5,520.5 760.5,521.5C 763.833,521.5 767.167,521.5 770.5,521.5C 770.5,520.5 770.5,519.5 770.5,518.5C 771.434,519.568 771.768,520.901 771.5,522.5C 767.833,522.5 764.167,522.5 760.5,522.5C 760.5,523.833 760.5,525.167 760.5,526.5C 759.566,525.432 759.232,524.099 759.5,522.5C 746.989,522.829 734.655,522.495 722.5,521.5C 734.833,521.5 747.167,521.5 759.5,521.5C 759.263,520.209 759.596,519.209 760.5,518.5 Z"/></g>
<g><path style="opacity:1" fill="#000000" d="M 760.5,518.5 C 763.833,518.5 767.167,518.5 770.5,518.5C 770.5,519.5 770.5,520.5 770.5,521.5C 767.167,521.5 763.833,521.5 760.5,521.5C 760.5,520.5 760.5,519.5 760.5,518.5 Z"/></g>
<g><path style="opacity:1" fill="#000000" d="M 445.5,523.5 C 448.5,523.5 451.5,523.5 454.5,523.5C 454.833,523.5 455.167,523.5 455.5,523.5C 455.5,524.5 455.5,525.5 455.5,526.5C 452.167,526.5 448.833,526.5 445.5,526.5C 445.5,525.5 445.5,524.5 445.5,523.5 Z"/></g>
<g><path style="opacity:1" fill="#787575" d="M 268.5,524.5 C 269.777,525.694 270.444,527.36 270.5,529.5C 270.167,531.167 269.833,532.833 269.5,534.5C 268.682,531.893 268.182,529.226 268,526.5C 267.346,527.696 266.846,527.696 266.5,526.5C 267.243,525.818 267.909,525.151 268.5,524.5 Z"/></g>
<g><path style="opacity:1" fill="#ede8e8" d="M 455.5,523.5 C 460.5,523.5 465.5,523.5 470.5,523.5C 470.5,524.5 470.5,525.5 470.5,526.5C 465.5,526.5 460.5,526.5 455.5,526.5C 455.5,525.5 455.5,524.5 455.5,523.5 Z"/></g>
<g><path style="opacity:1" fill="#bab5b5" d="M 445.5,523.5 C 445.5,524.5 445.5,525.5 445.5,526.5C 448.833,526.5 452.167,526.5 455.5,526.5C 455.5,536.5 455.5,546.5 455.5,556.5C 454.506,547.014 454.173,537.348 454.5,527.5C 451.167,527.5 447.833,527.5 444.5,527.5C 444.232,525.901 444.566,524.568 445.5,523.5 Z"/></g>
<g><path style="opacity:1" fill="#f7f1f1" d="M 509.5,537.5 C 504.833,537.5 500.167,537.5 495.5,537.5C 495.5,538.5 495.5,539.5 495.5,540.5C 500.167,540.5 504.833,540.5 509.5,540.5C 509.5,551.5 509.5,562.5 509.5,573.5C 506.167,573.5 502.833,573.5 499.5,573.5C 499.5,574.5 499.5,575.5 499.5,576.5C 493.5,576.5 487.5,576.5 481.5,576.5C 481.5,560.833 481.5,545.167 481.5,529.5C 490.833,529.5 500.167,529.5 509.5,529.5C 509.5,532.167 509.5,534.833 509.5,537.5 Z"/></g>
<g><path style="opacity:1" fill="#000000" d="M 879.5,531.5 C 879.5,532.5 879.5,533.5 879.5,534.5C 874.833,534.5 870.167,534.5 865.5,534.5C 865.5,533.5 865.5,532.5 865.5,531.5C 870.167,531.5 874.833,531.5 879.5,531.5 Z"/></g>
<g><path style="opacity:1" fill="#fbf6f6" d="M 531.5,-0.5 C 595.5,-0.5 659.5,-0.5 723.5,-0.5C 723.193,145.57 723.193,291.57 723.5,437.5C 714,437.354 704.666,438.521 695.5,441C 683.056,446.104 675.889,455.27 674,468.5C 669.939,488.998 676.105,505.498 692.5,518C 687.511,518.499 682.511,518.666 677.5,518.5C 677.5,519.5 677.5,520.5 677.5,521.5C 687.833,521.5 698.167,521.5 708.5,521.5C 708.5,526.167 708.5,530.833 708.5,535.5C 716.833,535.5 725.167,535.5 733.5,535.5C 733.5,549.167 733.5,562.833 733.5,576.5C 722.167,576.5 710.833,576.5 699.5,576.5C 699.5,567.5 699.5,558.5 699.5,549.5C 688.833,549.5 678.167,549.5 667.5,549.5C 667.5,550.833 667.5,552.167 667.5,553.5C 666.167,553.5 664.833,553.5 663.5,553.5C 663.5,544.833 663.5,536.167 663.5,527.5C 661.234,527.859 659.401,527.192 658,525.5C 649.512,496.55 641.179,467.55 633,438.5C 623.917,437.515 614.751,437.182 605.5,437.5C 596.978,468.569 588.144,499.569 579,530.5C 576.196,532.344 573.03,533.011 569.5,532.5C 569.5,547.833 569.5,563.167 569.5,578.5C 565.833,578.5 562.167,578.5 558.5,578.5C 559.114,586.609 558.447,594.442 556.5,602C 565.16,602.5 573.827,602.666 582.5,602.5C 582.5,594.5 582.5,586.5 582.5,578.5C 587.5,578.5 592.5,578.5 597.5,578.5C 597.5,573.833 597.5,569.167 597.5,564.5C 609.833,564.5 622.167,564.5 634.5,564.5C 634.5,575.5 634.5,586.5 634.5,597.5C 644.167,597.5 653.833,597.5 663.5,597.5C 663.5,593.833 663.5,590.167 663.5,586.5C 659.833,586.5 656.167,586.5 652.5,586.5C 652.5,584.833 652.5,583.167 652.5,581.5C 656.167,581.5 659.833,581.5 663.5,581.5C 663.5,574.167 663.5,566.833 663.5,559.5C 664.833,559.5 666.167,559.5 667.5,559.5C 667.5,565.167 667.5,570.833 667.5,576.5C 673.167,576.5 678.833,576.5 684.5,576.5C 684.5,585.167 684.5,593.833 684.5,602.5C 697.167,602.5 709.833,602.5 722.5,602.5C 721.788,734.832 721.122,867.165 720.5,999.5C 656.167,999.5 591.833,999.5 527.5,999.5C 528.287,866.178 528.954,732.844 529.5,599.5C 533.833,599.5 538.167,599.5 542.5,599.5C 542.5,597.167 542.5,594.833 542.5,592.5C 539.167,592.5 535.833,592.5 532.5,592.5C 532.5,590.833 532.5,589.167 532.5,587.5C 535.833,587.5 539.167,587.5 542.5,587.5C 542.5,581.5 542.5,575.5 542.5,569.5C 541.5,569.5 540.5,569.5 539.5,569.5C 539.5,559.833 539.5,550.167 539.5,540.5C 544.167,540.5 548.833,540.5 553.5,540.5C 553.5,539.5 553.5,538.5 553.5,537.5C 551.833,537.5 550.167,537.5 548.5,537.5C 547.694,532.22 545.527,527.554 542,523.5C 540.174,521.926 538.007,521.093 535.5,521C 532.516,518.174 529.183,515.841 525.5,514C 532.927,508.312 537.094,500.812 538,491.5C 538.732,482.13 538.398,472.797 537,463.5C 536.081,457.661 533.581,452.661 529.5,448.5C 529.967,298.827 530.634,149.16 531.5,-0.5 Z"/></g>
<g><path style="opacity:1" fill="#000000" d="M 548.5,527.5 C 555.5,527.5 562.5,527.5 569.5,527.5C 569.5,528.833 569.5,530.167 569.5,531.5C 562.5,531.5 555.5,531.5 548.5,531.5C 548.5,530.167 548.5,528.833 548.5,527.5 Z"/></g>
<g><path style="opacity:1" fill="#000000" d="M 667.5,553.5 C 667.5,555.5 667.5,557.5 667.5,559.5C 666.167,559.5 664.833,559.5 663.5,559.5C 663.5,566.833 663.5,574.167 663.5,581.5C 659.833,581.5 656.167,581.5 652.5,581.5C 652.5,583.167 652.5,584.833 652.5,586.5C 656.167,586.5 659.833,586.5 663.5,586.5C 663.5,590.167 663.5,593.833 663.5,597.5C 653.833,597.5 644.167,597.5 634.5,597.5C 634.5,586.5 634.5,575.5 634.5,564.5C 622.167,564.5 609.833,564.5 597.5,564.5C 597.5,569.167 597.5,573.833 597.5,578.5C 592.5,578.5 587.5,578.5 582.5,578.5C 582.5,586.5 582.5,594.5 582.5,602.5C 573.827,602.666 565.16,602.5 556.5,602C 558.447,594.442 559.114,586.609 558.5,578.5C 562.167,578.5 565.833,578.5 569.5,578.5C 569.5,563.167 569.5,547.833 569.5,532.5C 573.03,533.011 576.196,532.344 579,530.5C 588.144,499.569 596.978,468.569 605.5,437.5C 614.751,437.182 623.917,437.515 633,438.5C 641.179,467.55 649.512,496.55 658,525.5C 659.401,527.192 661.234,527.859 663.5,527.5C 663.5,536.167 663.5,544.833 663.5,553.5C 664.833,553.5 666.167,553.5 667.5,553.5 Z"/></g>
<g><path style="opacity:1" fill="#f5f0f0" d="M 627.5,526.5 C 629.317,532.62 629.984,538.953 629.5,545.5C 621.833,545.5 614.167,545.5 606.5,545.5C 606.5,544.167 606.5,542.833 606.5,541.5C 610.476,522.12 614.643,502.787 619,483.5C 621.997,497.819 624.831,512.153 627.5,526.5 Z"/></g>
<g><path style="opacity:1" fill="#d4cfcf" d="M 510.5,537.5 C 520.167,537.5 529.833,537.5 539.5,537.5C 539.5,538.5 539.5,539.5 539.5,540.5C 539.5,550.167 539.5,559.833 539.5,569.5C 538.506,560.014 538.173,550.348 538.5,540.5C 529.167,540.5 519.833,540.5 510.5,540.5C 510.5,539.5 510.5,538.5 510.5,537.5 Z"/></g>
<g><path style="opacity:1" fill="#797676" d="M 267.5,536.5 C 272.383,537.466 273.717,540.299 271.5,545C 269.559,545.743 267.726,545.576 266,544.5C 265.282,541.593 265.782,538.926 267.5,536.5 Z"/></g>
<g><path style="opacity:1" fill="#efe8e8" d="M 267.5,538.5 C 271.35,538.701 272.35,540.534 270.5,544C 269.365,544.749 268.365,544.583 267.5,543.5C 266.465,541.872 266.465,540.205 267.5,538.5 Z"/></g>
<g><path style="opacity:1" fill="#928f8f" d="M 510.5,537.5 C 510.5,538.5 510.5,539.5 510.5,540.5C 510.828,551.679 510.495,562.679 509.5,573.5C 509.5,562.5 509.5,551.5 509.5,540.5C 509.5,539.5 509.5,538.5 509.5,537.5C 509.5,534.833 509.5,532.167 509.5,529.5C 500.167,529.5 490.833,529.5 481.5,529.5C 481.5,545.167 481.5,560.833 481.5,576.5C 480.504,560.675 480.17,544.675 480.5,528.5C 490.5,528.5 500.5,528.5 510.5,528.5C 510.5,531.5 510.5,534.5 510.5,537.5 Z"/></g>
<g><path style="opacity:1" fill="#000000" d="M 509.5,537.5 C 509.5,538.5 509.5,539.5 509.5,540.5C 504.833,540.5 500.167,540.5 495.5,540.5C 495.5,539.5 495.5,538.5 495.5,537.5C 500.167,537.5 504.833,537.5 509.5,537.5 Z"/></g>
<g><path style="opacity:1" fill="#bab6b6" d="M 627.5,526.5 C 628.15,526.804 628.817,527.137 629.5,527.5C 630.496,533.798 630.83,540.132 630.5,546.5C 622.167,546.5 613.833,546.5 605.5,546.5C 605.216,544.585 605.549,542.919 606.5,541.5C 606.5,542.833 606.5,544.167 606.5,545.5C 614.167,545.5 621.833,545.5 629.5,545.5C 629.984,538.953 629.317,532.62 627.5,526.5 Z"/></g>
<g><path style="opacity:1" fill="#0a0a0a" d="M 268.5,549.5 C 269.634,551.966 269.801,554.633 269,557.5C 268.764,555.236 268.264,553.069 267.5,551C 268.056,550.617 268.389,550.117 268.5,549.5 Z"/></g>
<g><path style="opacity:1" fill="#f2eded" d="M 667.5,553.5 C 670.833,553.5 674.167,553.5 677.5,553.5C 677.5,555.5 677.5,557.5 677.5,559.5C 674.167,559.5 670.833,559.5 667.5,559.5C 667.5,557.5 667.5,555.5 667.5,553.5 Z"/></g>
<g><path style="opacity:1" fill="#0a0a0a" d="M 214.5,553.5 C 215.634,555.966 215.801,558.633 215,561.5C 214.764,559.236 214.264,557.069 213.5,555C 214.056,554.617 214.389,554.117 214.5,553.5 Z"/></g>
<g><path style="opacity:1" fill="#767373" d="M 418.5,563.5 C 420.103,563.312 421.437,563.812 422.5,565C 418.088,564.78 416.588,566.946 418,571.5C 415.992,568.705 416.158,566.038 418.5,563.5 Z"/></g>
<g><path style="opacity:1" fill="#f6f0ef" d="M 395.5,575.5 C 399.5,575.5 403.5,575.5 407.5,575.5C 407.5,576.5 407.5,577.5 407.5,578.5C 403.5,578.5 399.5,578.5 395.5,578.5C 395.5,577.5 395.5,576.5 395.5,575.5 Z"/></g>
<g><path style="opacity:1" fill="#000000" d="M 425.5,575.5 C 425.5,576.5 425.5,577.5 425.5,578.5C 419.833,578.5 414.167,578.5 408.5,578.5C 408.5,577.5 408.5,576.5 408.5,575.5C 414.167,575.5 419.833,575.5 425.5,575.5 Z"/></g>
<g><path style="opacity:1" fill="#7b7878" d="M 418.5,581.5 C 423.383,582.466 424.717,585.299 422.5,590C 420.559,590.743 418.726,590.576 417,589.5C 416.282,586.593 416.782,583.926 418.5,581.5 Z"/></g>
<g><path style="opacity:1" fill="#f2ebeb" d="M 418.5,583.5 C 422.35,583.701 423.35,585.534 421.5,589C 420.365,589.749 419.365,589.583 418.5,588.5C 417.465,586.872 417.465,585.205 418.5,583.5 Z"/></g>
<g><path style="opacity:1" fill="#8d8989" d="M 255.5,583.5 C 255.5,585.167 255.5,586.833 255.5,588.5C 259.833,588.5 264.167,588.5 268.5,588.5C 268.813,592.042 268.479,595.375 267.5,598.5C 267.5,595.5 267.5,592.5 267.5,589.5C 263.167,589.5 258.833,589.5 254.5,589.5C 254.205,587.265 254.539,585.265 255.5,583.5 Z"/></g>
<g><path style="opacity:1" fill="#000000" d="M 634.5,599.5 C 646.167,599.5 657.833,599.5 669.5,599.5C 669.5,600.5 669.5,601.5 669.5,602.5C 657.833,602.5 646.167,602.5 634.5,602.5C 634.5,601.5 634.5,600.5 634.5,599.5 Z"/></g>
</svg>
