<?xml version="1.0" encoding="UTF-8"?>
<!DOCTYPE svg PUBLIC "-//W3C//DTD SVG 1.1//EN" "http://www.w3.org/Graphics/SVG/1.1/DTD/svg11.dtd">
<svg xmlns="http://www.w3.org/2000/svg" version="1.1" width="500px" height="499px" style="shape-rendering:geometricPrecision; text-rendering:geometricPrecision; image-rendering:optimizeQuality; fill-rule:evenodd; clip-rule:evenodd" xmlns:xlink="http://www.w3.org/1999/xlink">
<g><path style="opacity:0.883" fill="#000000" d="M 208.5,195.5 C 249.97,196.04 291.97,196.54 334.5,197C 340.574,200.09 343.907,205.09 344.5,212C 342.762,222.417 336.762,227.75 326.5,228C 322.439,217.105 314.439,211.272 302.5,210.5C 294.273,211.723 288.273,216.057 284.5,223.5C 283.562,224.553 282.395,225.22 281,225.5C 277.407,220.869 273.241,216.702 268.5,213C 259.007,209.535 250.84,211.368 244,218.5C 242.382,221.943 240.215,224.943 237.5,227.5C 235.742,226.872 234.242,225.872 233,224.5C 226.208,212.759 216.708,209.925 204.5,216C 190.837,228.477 188.337,242.977 197,259.5C 201.28,264.059 206.447,267.226 212.5,269C 250.833,269.333 289.167,269.667 327.5,270C 329.848,270.346 331.681,271.513 333,273.5C 334.655,278.937 333.155,283.103 328.5,286C 323.524,286.747 318.524,287.247 313.5,287.5C 276.508,286.712 239.508,286.212 202.5,286C 194.308,284.945 187.808,281.112 183,274.5C 168.318,250.373 169.151,226.873 185.5,204C 192.441,198.848 200.108,196.015 208.5,195.5 Z"/></g>
<g><path style="opacity:0.438" fill="#000000" d="M 191.5,302.5 C 199.171,301.668 202.837,305.168 202.5,313C 202.241,314.261 201.574,315.261 200.5,316C 190.921,319.736 186.421,316.569 187,306.5C 188.397,304.93 189.897,303.596 191.5,302.5 Z M 191.5,307.5 C 194.226,307.264 196.559,308.097 198.5,310C 195.833,313.333 193.167,313.333 190.5,310C 191.252,309.329 191.586,308.496 191.5,307.5 Z"/></g>
<g><path style="opacity:0.494" fill="#000000" d="M 208.5,302.5 C 209.496,302.414 210.329,302.748 211,303.5C 210.392,311.901 213.892,314.401 221.5,311C 223.153,304.006 227.486,301.339 234.5,303C 239.069,305.541 240.569,309.375 239,314.5C 236.694,316.888 233.861,317.888 230.5,317.5C 222.835,317.222 215.168,316.888 207.5,316.5C 205.917,311.595 206.251,306.928 208.5,302.5 Z M 229.5,307.5 C 232.767,307.424 234.101,308.757 233.5,311.5C 231.926,312.631 230.259,312.798 228.5,312C 227.257,310.184 227.59,308.684 229.5,307.5 Z"/></g>
<g><path style="opacity:0.465" fill="#000000" d="M 254.5,302.5 C 255.822,302.33 256.989,302.663 258,303.5C 262.385,314.469 258.552,318.969 246.5,317C 245.667,316.167 244.833,315.333 244,314.5C 243.333,311.167 243.333,307.833 244,304.5C 245.356,303.62 246.856,303.286 248.5,303.5C 247.924,307.122 248.924,310.122 251.5,312.5C 252.086,312.291 252.586,311.957 253,311.5C 253.259,308.413 253.759,305.413 254.5,302.5 Z"/></g>
<g><path style="opacity:0.524" fill="#000000" d="M 265.5,302.5 C 273.025,300.759 278.025,303.425 280.5,310.5C 280.144,313.688 278.477,315.855 275.5,317C 271.722,318.259 268.055,318.259 264.5,317C 262.935,311.963 263.268,307.129 265.5,302.5 Z M 269.5,307.5 C 273.676,306.831 275.009,308.331 273.5,312C 272.207,312.49 270.873,312.657 269.5,312.5C 268.929,310.64 268.929,308.973 269.5,307.5 Z"/></g>
<g><path style="opacity:0.531" fill="#000000" d="M 289.5,302.5 C 297.317,301.318 301.65,304.651 302.5,312.5C 299.376,317.119 295.042,318.619 289.5,317C 281.894,312.313 281.894,307.48 289.5,302.5 Z M 292.5,308.5 C 294.625,309.368 294.791,310.368 293,311.5C 291.317,310.824 291.15,309.824 292.5,308.5 Z"/></g>
<g><path style="opacity:0.558" fill="#000000" d="M 306.5,302.5 C 307.978,302.238 309.311,302.571 310.5,303.5C 311.074,306.177 311.741,308.843 312.5,311.5C 315.452,312.068 318.119,313.234 320.5,315C 319.672,315.915 318.672,316.581 317.5,317C 304.883,319.309 301.216,314.475 306.5,302.5 Z"/></g>
<g><path style="opacity:0.655" fill="#000000" d="M 324.5,302.5 C 327.325,302.081 329.491,303.081 331,305.5C 332.287,302.855 334.453,301.855 337.5,302.5C 337.666,307.179 337.499,311.845 337,316.5C 336.107,317.081 335.107,317.415 334,317.5C 330.524,317.35 327.024,317.017 323.5,316.5C 322.836,311.799 323.169,307.133 324.5,302.5 Z"/></g>
</svg>
