<svg width="25" height="24" viewBox="0 0 25 24" fill="none" xmlns="http://www.w3.org/2000/svg">
<g clip-path="url(#clip0_1043_4)">
<path d="M2.9742 19.6854C1.62588 18.2023 0.816895 16.5843 0.816895 13.8876C0.816895 9.16855 4.18768 4.98877 8.90678 2.83147L10.1203 4.58428C5.67083 7.01124 4.72701 10.1124 4.45734 12.1348C5.1315 11.7303 6.07532 11.5955 7.01914 11.7303C9.44611 12 11.3337 13.8876 11.3337 16.4494C11.3337 17.6629 10.7944 18.8764 9.98543 19.8202C9.04161 20.7641 7.96296 21.1685 6.61465 21.1685C5.1315 21.1685 3.78319 20.4944 2.9742 19.6854ZM16.4573 19.6854C15.109 18.2023 14.3 16.5843 14.3 13.8876C14.3 9.16855 17.6708 4.98877 22.3899 2.83147L23.6034 4.58428C19.154 7.01124 18.2102 10.1124 17.9405 12.1348C18.6146 11.7303 19.5585 11.5955 20.5023 11.7303C22.9293 12 24.8169 14.0225 24.8169 16.4494C24.8169 17.6629 24.2776 18.8764 23.4686 19.8202C22.5248 20.7641 21.4461 21.1685 20.0978 21.1685C18.6146 21.1685 17.2663 20.4944 16.4573 19.6854Z" fill="#241F21"/>
</g>
<defs>
<clipPath id="clip0_1043_4">
<rect width="24" height="24" fill="white" transform="matrix(-1 0 0 -1 24.8169 24)"/>
</clipPath>
</defs>
</svg>
