<svg width="443" height="844" viewBox="0 0 443 844" fill="none" xmlns="http://www.w3.org/2000/svg">
<mask id="mask0_1045_17" style="mask-type:alpha" maskUnits="userSpaceOnUse" x="0" y="0" width="443" height="844">
<rect width="442.118" height="843.396" transform="matrix(1 0 0 -1 0.620117 843.531)" fill="#D9D9D9"/>
</mask>
<g mask="url(#mask0_1045_17)">
<path d="M-73.4906 878.973C155.457 721.549 632.262 281.851 202.201 76.8629C-178.452 -104.575 -551.524 64.6597 -767.004 160.366C-643.323 198.264 -365.902 238.843 -245.664 97.9775C-125.427 -42.8884 -470.916 -287.571 -658.69 -392.304" stroke="#4C39F0"/>
<path d="M-132.505 886.957C96.4422 729.532 573.247 289.834 143.186 84.8463C-237.467 -96.5913 -610.538 72.6431 -826.018 168.349C-702.337 206.247 -424.916 246.827 -304.679 105.961C-184.441 -34.905 -529.93 -279.588 -717.705 -384.321" stroke="#4C39F0"/>
<path d="M-196.084 890.948C32.8636 733.524 509.668 293.826 79.6074 88.8375C-301.045 -92.6001 -674.117 76.6343 -889.597 172.341C-765.916 210.239 -488.495 250.818 -368.258 109.952C-248.02 -30.9138 -593.509 -275.596 -781.283 -380.33" stroke="#4C39F0"/>
<path d="M-255.296 890.948C-26.3489 733.524 450.456 293.826 20.395 88.8375C-360.258 -92.6001 -733.329 76.6343 -948.809 172.341C-825.128 210.239 -547.707 250.818 -427.47 109.952C-307.232 -30.9138 -652.721 -275.596 -840.496 -380.33" stroke="#4C39F0"/>
<path d="M-310.433 890.948C-81.4856 733.524 395.319 293.826 -34.7418 88.8375C-415.394 -92.6001 -788.466 76.6343 -1003.95 172.341C-880.265 210.239 -602.844 250.818 -482.607 109.952C-362.369 -30.9138 -707.858 -275.596 -895.632 -380.33" stroke="#4C39F0"/>
<path d="M-361.194 890.948C-132.246 733.524 344.558 293.826 -85.5025 88.8375C-466.155 -92.6001 -839.227 76.6343 -1054.71 172.341C-931.026 210.239 -653.605 250.818 -533.367 109.952C-413.13 -30.9138 -758.619 -275.596 -946.393 -380.33" stroke="#4C39F0"/>
<path d="M-409.329 890.948C-180.382 733.524 296.423 293.826 -133.638 88.8375C-514.29 -92.6001 -887.362 76.6343 -1102.84 172.341C-979.161 210.239 -701.74 250.818 -581.503 109.952C-461.265 -30.9138 -806.754 -275.596 -994.528 -380.33" stroke="#4C39F0"/>
</g>
</svg>
