<svg width="563" height="1072" viewBox="0 0 563 1072" fill="none" xmlns="http://www.w3.org/2000/svg">
<mask id="mask0_1089_21" style="mask-type:alpha" maskUnits="userSpaceOnUse" x="0" y="0" width="563" height="1072">
<rect x="562.62" y="1071.33" width="562.309" height="1071.14" transform="rotate(180 562.62 1071.33)" fill="#D9D9D9"/>
</mask>
<g mask="url(#mask0_1089_21)">
<path d="M627.507 1157.36C381.476 1028.25 -144.197 428.323 258.46 173.687C614.857 -51.6956 1005.4 72.0107 1230.72 141.435C1112.42 193.761 841.785 267.016 705.661 141.435C569.538 15.8542 883.505 -268.147 1057.5 -394.449" stroke="white" stroke-opacity="0.2"/>
<path d="M703.513 1148.52C457.482 1019.41 -68.1907 419.485 334.466 164.849C690.864 -60.5335 1081.4 63.1729 1306.73 132.597C1188.42 184.923 917.791 258.178 781.667 132.597C645.544 7.01633 959.512 -276.985 1133.51 -403.287" stroke="white" stroke-opacity="0.2"/>
<path d="M786.444 1135.42C540.413 1006.32 14.7405 406.391 417.398 151.754C773.795 -73.6282 1164.33 50.0781 1389.66 119.503C1271.36 171.828 1000.72 245.084 864.599 119.503C728.475 -6.0784 1042.44 -290.079 1216.44 -416.382" stroke="white" stroke-opacity="0.2"/>
<path d="M859.571 1135.42C613.54 1006.32 87.867 406.391 490.524 151.754C846.921 -73.6282 1237.46 50.0781 1462.78 119.503C1344.48 171.828 1073.85 245.084 937.725 119.503C801.601 -6.0784 1115.57 -290.079 1289.57 -416.382" stroke="white" stroke-opacity="0.2"/>
<path d="M927.595 1135.42C681.564 1006.32 155.892 406.391 558.549 151.754C914.946 -73.6282 1305.48 50.0781 1530.81 119.503C1412.51 171.828 1141.87 245.084 1005.75 119.503C869.626 -6.0784 1183.59 -290.079 1357.59 -416.382" stroke="white" stroke-opacity="0.2"/>
<path d="M982.02 1135.42C735.989 1006.32 210.316 406.391 612.973 151.754C969.37 -73.6282 1359.91 50.0781 1585.23 119.503C1466.93 171.828 1196.3 245.084 1060.17 119.503C924.051 -6.0784 1238.02 -290.079 1412.02 -416.382" stroke="white" stroke-opacity="0.2"/>
<path d="M1036.52 1135.42C790.485 1006.32 264.812 406.391 667.469 151.754C1023.87 -73.6282 1414.4 50.0781 1639.73 119.503C1521.43 171.828 1250.79 245.084 1114.67 119.503C978.547 -6.0784 1292.51 -290.079 1466.51 -416.382" stroke="white" stroke-opacity="0.2"/>
<path d="M557.472 1163.16C311.441 1034.05 -214.232 434.126 188.426 179.489C544.823 -45.8929 935.36 77.8135 1160.69 147.238C1042.38 199.563 771.75 272.819 635.626 147.238C499.503 21.657 813.471 -262.344 987.47 -388.647" stroke="white" stroke-opacity="0.2"/>
</g>
</svg>
