w<svg width="170" height="35" viewBox="0 0 170 35" fill="none" xmlns="http://www.w3.org/2000/svg">
<path d="M19.496 4.92411C20.4253 4.92411 21.2413 5.02611 21.944 5.23011C22.6467 5.41144 23.168 5.62677 23.508 5.87611L22.93 9.48011C22.6807 9.32144 22.3973 9.19677 22.08 9.10611C21.7627 9.01544 21.366 8.97011 20.89 8.97011C20.0967 8.97011 19.4393 9.15144 18.918 9.51411C18.4193 9.87677 18.17 10.5114 18.17 11.4181V13.6281L18.51 14.5801V29.6081H12.73V11.0441C12.73 9.95611 12.9 9.02677 13.24 8.25611C13.6027 7.48544 14.1013 6.85077 14.736 6.35211C15.3707 5.85344 16.096 5.49077 16.912 5.26411C17.728 5.03744 18.5893 4.92411 19.496 4.92411ZM23.338 12.6081V16.7221H10.01V12.6081H23.338ZM25.6853 29.6081V12.6081H30.7853L31.0233 16.2801C31.454 15.0108 32.0887 14.0248 32.9273 13.3221C33.7887 12.6194 34.8767 12.2681 36.1913 12.2681C36.622 12.2681 36.9847 12.3021 37.2793 12.3701C37.5967 12.4381 37.846 12.5288 38.0273 12.6421L37.4493 17.4021C37.2227 17.3114 36.928 17.2434 36.5653 17.1981C36.2253 17.1301 35.806 17.0961 35.3073 17.0961C34.6273 17.0961 33.9927 17.2434 33.4033 17.5381C32.814 17.8328 32.338 18.2748 31.9753 18.8641C31.6353 19.4308 31.4653 20.1561 31.4653 21.0401V29.6081H25.6853ZM48.3915 29.9481C46.5102 29.9481 44.8782 29.5968 43.4955 28.8941C42.1355 28.1914 41.0815 27.1828 40.3335 25.8681C39.5855 24.5534 39.2115 22.9668 39.2115 21.1081C39.2115 19.2494 39.5855 17.6628 40.3335 16.3481C41.0815 15.0334 42.1242 14.0248 43.4615 13.3221C44.8215 12.6194 46.3742 12.2681 48.1195 12.2681C49.9102 12.2681 51.4288 12.6194 52.6755 13.3221C53.9448 14.0021 54.9082 14.9541 55.5655 16.1781C56.2228 17.3794 56.5515 18.7621 56.5515 20.3261C56.5515 20.7341 56.5402 21.1421 56.5175 21.5501C56.4948 21.9581 56.4608 22.2981 56.4155 22.5701H42.9515V19.4761H53.8655L51.1115 20.5301C51.1115 19.1701 50.8622 18.1274 50.3635 17.4021C49.8875 16.6768 49.1395 16.3141 48.1195 16.3141C47.3942 16.3141 46.7708 16.4841 46.2495 16.8241C45.7508 17.1641 45.3655 17.6968 45.0935 18.4221C44.8442 19.1474 44.7195 20.0768 44.7195 21.2101C44.7195 22.3208 44.8668 23.2274 45.1615 23.9301C45.4562 24.6101 45.8755 25.1088 46.4195 25.4261C46.9635 25.7208 47.6208 25.8681 48.3915 25.8681C49.2528 25.8681 49.9328 25.6981 50.4315 25.3581C50.9528 25.0181 51.3382 24.5421 51.5875 23.9301L56.2115 25.4601C55.8942 26.4348 55.3388 27.2621 54.5455 27.9421C53.7748 28.5994 52.8455 29.0981 51.7575 29.4381C50.6922 29.7781 49.5702 29.9481 48.3915 29.9481ZM68.0809 29.9481C66.1996 29.9481 64.5676 29.5968 63.1849 28.8941C61.8249 28.1914 60.7709 27.1828 60.0229 25.8681C59.2749 24.5534 58.9009 22.9668 58.9009 21.1081C58.9009 19.2494 59.2749 17.6628 60.0229 16.3481C60.7709 15.0334 61.8136 14.0248 63.1509 13.3221C64.5109 12.6194 66.0636 12.2681 67.8089 12.2681C69.5996 12.2681 71.1183 12.6194 72.3649 13.3221C73.6343 14.0021 74.5976 14.9541 75.2549 16.1781C75.9123 17.3794 76.2409 18.7621 76.2409 20.3261C76.2409 20.7341 76.2296 21.1421 76.2069 21.5501C76.1843 21.9581 76.1503 22.2981 76.1049 22.5701H62.6409V19.4761H73.5549L70.8009 20.5301C70.8009 19.1701 70.5516 18.1274 70.0529 17.4021C69.5769 16.6768 68.8289 16.3141 67.8089 16.3141C67.0836 16.3141 66.4603 16.4841 65.9389 16.8241C65.4403 17.1641 65.0549 17.6968 64.7829 18.4221C64.5336 19.1474 64.4089 20.0768 64.4089 21.2101C64.4089 22.3208 64.5563 23.2274 64.8509 23.9301C65.1456 24.6101 65.5649 25.1088 66.1089 25.4261C66.6529 25.7208 67.3103 25.8681 68.0809 25.8681C68.9423 25.8681 69.6223 25.6981 70.1209 25.3581C70.6423 25.0181 71.0276 24.5421 71.2769 23.9301L75.9009 25.4601C75.5836 26.4348 75.0283 27.2621 74.2349 27.9421C73.4643 28.5994 72.5349 29.0981 71.4469 29.4381C70.3816 29.7781 69.2596 29.9481 68.0809 29.9481ZM85.1864 5.40011V23.8281C85.1864 24.5761 85.3111 25.1088 85.5604 25.4261C85.8097 25.7434 86.2291 25.9021 86.8184 25.9021C87.1584 25.9021 87.4417 25.8794 87.6684 25.8341C87.8951 25.7888 88.1671 25.7208 88.4844 25.6301L88.1104 29.0981C87.7024 29.3474 87.1697 29.5514 86.5124 29.7101C85.8551 29.8688 85.2091 29.9481 84.5744 29.9481C82.7611 29.9481 81.4464 29.5288 80.6304 28.6901C79.8144 27.8514 79.4064 26.4801 79.4064 24.5761V5.40011H85.1864ZM100.349 18.8301C100.349 18.0368 100.122 17.4134 99.6691 16.9601C99.2384 16.4841 98.6491 16.2461 97.9011 16.2461C97.1531 16.2461 96.5071 16.4388 95.9631 16.8241C95.4417 17.1868 95.0791 17.8441 94.8751 18.7961L89.9791 17.6401C90.2964 16.0081 91.1351 14.7048 92.4951 13.7301C93.8551 12.7554 95.7704 12.2681 98.2411 12.2681C99.8957 12.2681 101.301 12.5174 102.457 13.0161C103.636 13.4921 104.531 14.2174 105.143 15.1921C105.778 16.1441 106.095 17.3228 106.095 18.7281V24.9501C106.095 25.8341 106.492 26.2761 107.285 26.2761C107.693 26.2761 108.022 26.2308 108.271 26.1401L107.931 29.4381C107.251 29.7554 106.424 29.9141 105.449 29.9141C104.565 29.9141 103.783 29.7781 103.103 29.5061C102.423 29.2114 101.89 28.7808 101.505 28.2141C101.12 27.6248 100.927 26.8881 100.927 26.0041V25.8001L101.573 25.5621C101.573 26.5368 101.278 27.3528 100.689 28.0101C100.122 28.6674 99.3744 29.1548 98.4451 29.4721C97.5384 29.7894 96.5864 29.9481 95.5891 29.9481C94.4331 29.9481 93.4244 29.7668 92.5631 29.4041C91.7017 29.0414 91.0331 28.5201 90.5571 27.8401C90.1037 27.1374 89.8771 26.2761 89.8771 25.2561C89.8771 24.0321 90.2397 23.0234 90.9651 22.2301C91.7131 21.4141 92.8804 20.8474 94.4671 20.5301L100.893 19.2041L100.859 22.2641L97.5951 22.9441C96.9151 23.0801 96.4051 23.2841 96.0651 23.5561C95.7477 23.8054 95.5891 24.1908 95.5891 24.7121C95.5891 25.2108 95.7704 25.5848 96.1331 25.8341C96.4957 26.0834 96.9264 26.2081 97.4251 26.2081C97.8104 26.2081 98.1731 26.1514 98.5131 26.0381C98.8757 25.9248 99.1931 25.7548 99.4651 25.5281C99.7371 25.2788 99.9524 24.9728 100.111 24.6101C100.27 24.2474 100.349 23.8168 100.349 23.3181V18.8301ZM110.553 29.6081V12.6081H115.721L116.027 18.4561L115.381 17.8101C115.607 16.5861 116.004 15.5661 116.571 14.7501C117.16 13.9341 117.885 13.3221 118.747 12.9141C119.631 12.4834 120.617 12.2681 121.705 12.2681C122.883 12.2681 123.903 12.4948 124.765 12.9481C125.649 13.4014 126.34 14.0701 126.839 14.9541C127.337 15.8381 127.587 16.9488 127.587 18.2861V29.6081H121.807V19.8161C121.807 18.6374 121.58 17.8214 121.127 17.3681C120.673 16.9148 120.095 16.6881 119.393 16.6881C118.849 16.6881 118.339 16.8241 117.863 17.0961C117.387 17.3454 117.013 17.7534 116.741 18.3201C116.469 18.8868 116.333 19.6461 116.333 20.5981V29.6081H110.553ZM139.695 12.2681C141.417 12.2681 142.845 12.5174 143.979 13.0161C145.135 13.4921 146.03 14.1381 146.665 14.9541C147.322 15.7474 147.73 16.6088 147.889 17.5381L142.551 19.3061C142.392 18.3314 142.097 17.6061 141.667 17.1301C141.259 16.6314 140.658 16.3821 139.865 16.3821C139.139 16.3821 138.527 16.5521 138.029 16.8921C137.553 17.2094 137.19 17.7308 136.941 18.4561C136.691 19.1588 136.567 20.0654 136.567 21.1761C136.567 22.2868 136.703 23.1934 136.975 23.8961C137.247 24.5761 137.632 25.0748 138.131 25.3921C138.629 25.6868 139.219 25.8341 139.899 25.8341C140.465 25.8341 140.93 25.7321 141.293 25.5281C141.678 25.3014 141.995 24.9841 142.245 24.5761C142.494 24.1681 142.653 23.6694 142.721 23.0801L147.923 24.7461C147.764 25.7434 147.333 26.6388 146.631 27.4321C145.951 28.2028 145.044 28.8148 143.911 29.2681C142.777 29.7214 141.451 29.9481 139.933 29.9481C138.074 29.9481 136.453 29.6081 135.071 28.9281C133.688 28.2254 132.623 27.2168 131.875 25.9021C131.127 24.5648 130.753 22.9668 130.753 21.1081C130.753 19.2494 131.127 17.6628 131.875 16.3481C132.623 15.0108 133.665 14.0021 135.003 13.3221C136.363 12.6194 137.927 12.2681 139.695 12.2681ZM159.224 29.9481C157.342 29.9481 155.71 29.5968 154.328 28.8941C152.968 28.1914 151.914 27.1828 151.166 25.8681C150.418 24.5534 150.044 22.9668 150.044 21.1081C150.044 19.2494 150.418 17.6628 151.166 16.3481C151.914 15.0334 152.956 14.0248 154.294 13.3221C155.654 12.6194 157.206 12.2681 158.952 12.2681C160.742 12.2681 162.261 12.6194 163.508 13.3221C164.777 14.0021 165.74 14.9541 166.398 16.1781C167.055 17.3794 167.384 18.7621 167.384 20.3261C167.384 20.7341 167.372 21.1421 167.35 21.5501C167.327 21.9581 167.293 22.2981 167.248 22.5701H153.784V19.4761H164.698L161.944 20.5301C161.944 19.1701 161.694 18.1274 161.196 17.4021C160.72 16.6768 159.972 16.3141 158.952 16.3141C158.226 16.3141 157.603 16.4841 157.082 16.8241C156.583 17.1641 156.198 17.6968 155.926 18.4221C155.676 19.1474 155.552 20.0768 155.552 21.2101C155.552 22.3208 155.699 23.2274 155.994 23.9301C156.288 24.6101 156.708 25.1088 157.252 25.4261C157.796 25.7208 158.453 25.8681 159.224 25.8681C160.085 25.8681 160.765 25.6981 161.264 25.3581C161.785 25.0181 162.17 24.5421 162.42 23.9301L167.044 25.4601C166.726 26.4348 166.171 27.2621 165.378 27.9421C164.607 28.5994 163.678 29.0981 162.59 29.4381C161.524 29.7781 160.402 29.9481 159.224 29.9481Z" fill="#241F21"/>
<rect x="0.875488" y="29.3681" width="12.1216" height="5.24" fill="#4C39F0"/>
</svg>
