<?xml version="1.0" encoding="UTF-8"?>
<!DOCTYPE svg PUBLIC "-//W3C//DTD SVG 1.1//EN" "http://www.w3.org/Graphics/SVG/1.1/DTD/svg11.dtd">
<svg xmlns="http://www.w3.org/2000/svg" version="1.1" width="512px" height="512px" style="shape-rendering:geometricPrecision; text-rendering:geometricPrecision; image-rendering:optimizeQuality; fill-rule:evenodd; clip-rule:evenodd" xmlns:xlink="http://www.w3.org/1999/xlink">
<g><path style="opacity:0.972" fill="#000000" d="M 427.5,71.5 C 435.191,71.4035 442.858,71.7368 450.5,72.5C 450.662,74.5273 450.495,76.5273 450,78.5C 433.013,107.779 417.347,137.779 403,168.5C 400.595,176.547 398.095,184.547 395.5,192.5C 390.607,194.082 385.941,196.082 381.5,198.5C 381.167,199.333 380.833,200.167 380.5,201C 383.716,206.431 386.383,212.097 388.5,218C 386.696,222.324 383.529,225.158 379,226.5C 373.029,238.546 368.195,251.046 364.5,264C 357.919,278.073 351.919,292.406 346.5,307C 351.795,315.8 351.795,324.633 346.5,333.5C 367.595,362.386 390.095,390.052 414,416.5C 415.527,422.772 413.694,427.772 408.5,431.5C 401.803,434.607 394.803,436.774 387.5,438C 292.827,442.183 204.16,421.683 121.5,376.5C 97.2891,363.121 77.7891,344.788 63,321.5C 54.6436,298.544 62.1436,283.211 85.5,275.5C 100.217,270.819 115.217,266.986 130.5,264C 144.175,259.564 157.841,255.064 171.5,250.5C 171.473,238.947 173.807,227.947 178.5,217.5C 181.462,216.722 184.296,215.722 187,214.5C 190.644,216.517 194.477,216.85 198.5,215.5C 216.177,196.27 234.177,177.436 252.5,159C 267.713,146.044 283.38,133.544 299.5,121.5C 321.031,108.132 343.364,96.2989 366.5,86C 376.546,83.125 386.546,80.125 396.5,77C 407.024,75.1911 417.357,73.3578 427.5,71.5 Z"/></g>
<g><path style="opacity:1" fill="#fefefe" d="M 183.5,219.5 C 229.941,222.405 270.941,238.572 306.5,268C 322.541,281.033 336.041,296.2 347,313.5C 348.486,333.576 344.153,335.576 334,319.5C 290.593,274.22 237.426,251.553 174.5,251.5C 175.158,242.374 176.658,233.374 179,224.5C 180.025,222.313 181.525,220.646 183.5,219.5 Z"/></g>
</svg>
