<?xml version="1.0" encoding="UTF-8"?>
<!DOCTYPE svg PUBLIC "-//W3C//DTD SVG 1.1//EN" "http://www.w3.org/Graphics/SVG/1.1/DTD/svg11.dtd">
<svg xmlns="http://www.w3.org/2000/svg" version="1.1" width="2208px" height="452px" style="shape-rendering:geometricPrecision; text-rendering:geometricPrecision; image-rendering:optimizeQuality; fill-rule:evenodd; clip-rule:evenodd" xmlns:xlink="http://www.w3.org/1999/xlink">
<g><path style="opacity:0.977" fill="#020101" d="M 205.5,17.5 C 267.742,12.5829 322.409,30.2495 369.5,70.5C 430.77,131.226 450.437,203.559 428.5,287.5C 408.516,345.488 370.85,387.821 315.5,414.5C 240.806,445.329 170.139,437.995 103.5,392.5C 49.7604,350.022 21.7604,294.355 19.5,225.5C 20.316,176.042 35.9827,132.042 66.5,93.5C 69.8333,90.1667 73.1667,86.8333 76.5,83.5C 77.4287,82.3112 77.762,80.9778 77.5,79.5C 81.5,79.5 83.5,77.5 83.5,73.5C 84.9778,73.762 86.3112,73.4287 87.5,72.5C 102.742,57.5402 120.075,45.5402 139.5,36.5C 160.944,27.3149 182.944,20.9815 205.5,17.5 Z"/></g>
<g><path style="opacity:1" fill="#ececea" d="M 360.5,348.5 C 359.624,348.631 358.957,348.298 358.5,347.5C 357.864,345.22 356.864,343.22 355.5,341.5C 352.988,328.229 344.988,322.895 331.5,325.5C 330.662,325.158 330.328,324.492 330.5,323.5C 336.805,320.895 343.138,320.895 349.5,323.5C 352.377,323.619 354.044,322.286 354.5,319.5C 380.217,286.653 390.717,249.32 386,207.5C 375.549,142.718 339.716,98.5515 278.5,75C 231.17,60.596 186.17,65.596 143.5,90C 137.623,94.7167 131.623,99.2167 125.5,103.5C 124.25,103.423 123.417,102.756 123,101.5C 122.163,103.007 120.996,103.507 119.5,103C 120.406,101.301 120.739,99.4672 120.5,97.5C 168.815,58.4421 222.815,47.9421 282.5,66C 338.495,86.9902 374.662,126.157 391,183.5C 402.072,236.463 391.738,285.13 360,329.5C 360.258,335.798 360.425,342.131 360.5,348.5 Z"/></g>
<g><path style="opacity:1" fill="#060402" d="M 354.5,319.5 C 351.466,318.881 348.466,318.047 345.5,317C 347.396,315.935 347.563,315.102 346,314.5C 343.861,315.236 341.861,316.236 340,317.5C 339.626,316.584 339.126,315.75 338.5,315C 340.952,314.71 343.285,314.044 345.5,313C 340.878,312.442 336.545,311.109 332.5,309C 335.308,308.981 337.641,307.981 339.5,306C 337.775,306.409 336.108,306.242 334.5,305.5C 335.833,304.833 337.167,304.167 338.5,303.5C 337.624,302.749 336.624,302.249 335.5,302C 336.833,301 336.833,300 335.5,299C 336.744,298.544 337.577,299.044 338,300.5C 338.167,299.833 338.333,299.167 338.5,298.5C 336.624,296.952 335.624,294.952 335.5,292.5C 337.167,292.5 338.833,292.5 340.5,292.5C 340.64,290.876 339.973,289.71 338.5,289C 341.028,288.331 341.028,287.498 338.5,286.5C 337.833,287.167 337.167,287.833 336.5,288.5C 335.79,284.818 337.456,282.651 341.5,282C 340.692,281.692 340.025,281.192 339.5,280.5C 339.623,278.378 339.623,276.211 339.5,274C 340.549,273.508 341.549,273.674 342.5,274.5C 343.719,273.354 345.052,272.354 346.5,271.5C 345.624,270.749 344.624,270.249 343.5,270C 345.715,268.956 348.048,268.29 350.5,268C 350.167,267.667 349.833,267.333 349.5,267C 350.716,265.26 352.382,264.26 354.5,264C 353.051,262.883 351.384,262.216 349.5,262C 351.285,260.837 353.285,260.17 355.5,260C 356.634,258.984 356.301,258.317 354.5,258C 355.623,256.956 356.956,256.29 358.5,256C 356.731,253.731 356.065,251.398 356.5,249C 355.773,247.601 355.273,246.101 355,244.5C 354.23,245.598 353.397,245.598 352.5,244.5C 354.552,234.448 354.885,224.448 353.5,214.5C 352.794,205.214 349.628,196.881 344,189.5C 339.667,185.167 335.333,180.833 331,176.5C 331.395,134.485 310.895,116.151 269.5,121.5C 269.649,120.448 269.483,119.448 269,118.5C 249.784,98.7653 227.951,94.932 203.5,107C 198.276,111.47 193.276,116.137 188.5,121C 184.249,121.296 180.083,120.796 176,119.5C 168.533,120.771 161.033,122.271 153.5,124C 149.479,126.697 145.479,129.364 141.5,132C 140.361,133.78 139.361,135.614 138.5,137.5C 137.5,137.833 136.833,138.5 136.5,139.5C 130.243,150.917 127.077,163.251 127,176.5C 117.221,185.291 110.221,195.958 106,208.5C 105.502,211.482 105.335,214.482 105.5,217.5C 104.833,217.5 104.5,217.833 104.5,218.5C 103.197,240.55 110.697,259.216 127,274.5C 127.867,285.454 130.034,296.12 133.5,306.5C 132.549,307.919 132.216,309.585 132.5,311.5C 131.07,311.579 129.736,311.246 128.5,310.5C 128.167,310.833 127.833,311.167 127.5,311.5C 128.167,312.167 128.833,312.833 129.5,313.5C 126.087,314.823 122.753,314.656 119.5,313C 126.546,312.574 127.546,310.408 122.5,306.5C 121.571,307.689 121.238,309.022 121.5,310.5C 116.77,309.875 112.103,310.541 107.5,312.5C 105.5,312.167 103.5,311.833 101.5,311.5C 100.167,310.5 100.167,309.5 101.5,308.5C 100.726,307.289 99.8928,307.289 99,308.5C 98.6643,306.926 97.8309,305.592 96.5,304.5C 95.1585,306.005 93.4918,306.672 91.5,306.5C 65.4713,259.267 62.6379,210.601 83,160.5C 87.675,149.157 94.0083,138.823 102,129.5C 102.5,128.5 103,127.5 103.5,126.5C 102.189,125.742 101.689,124.742 102,123.5C 105.446,124.761 107.446,123.428 108,119.5C 113.352,113.648 119.185,108.315 125.5,103.5C 131.623,99.2167 137.623,94.7167 143.5,90C 186.17,65.596 231.17,60.596 278.5,75C 339.716,98.5515 375.549,142.718 386,207.5C 390.717,249.32 380.217,286.653 354.5,319.5 Z"/></g>
<g><path style="opacity:0.974" fill="#000000" d="M 493.5,91.5 C 514.844,91.167 536.177,91.5003 557.5,92.5C 559.833,94.8333 562.167,97.1667 564.5,99.5C 595.993,144.476 625.993,190.476 654.5,237.5C 670.655,258.468 685.322,280.468 698.5,303.5C 701.927,306.256 704.593,309.59 706.5,313.5C 706.858,240.084 707.858,166.75 709.5,93.5C 719.737,92.2674 730.071,91.6007 740.5,91.5C 750.929,91.6007 761.263,92.2674 771.5,93.5C 772.817,148.417 773.483,203.417 773.5,258.5C 773.167,312.167 772.833,365.833 772.5,419.5C 760.99,420.812 749.323,421.479 737.5,421.5C 726.167,421.167 714.833,420.833 703.5,420.5C 702.012,418.423 700.012,417.423 697.5,417.5C 697.129,414.108 695.463,411.442 692.5,409.5C 668.619,371.624 643.952,334.291 618.5,297.5C 608.853,277.868 596.853,259.868 582.5,243.5C 574.5,230.167 566.5,216.833 558.5,203.5C 557.833,275.5 557.167,347.5 556.5,419.5C 545.658,420.811 534.658,421.478 523.5,421.5C 512.342,421.478 501.342,420.811 490.5,419.5C 489.167,311.5 489.167,203.5 490.5,95.5C 491.934,94.4116 492.934,93.0783 493.5,91.5 Z"/></g>
<g><path style="opacity:0.974" fill="#000000" d="M 853.5,91.5 C 872.845,91.1671 892.178,91.5004 911.5,92.5C 915.675,94.0843 919.341,96.4177 922.5,99.5C 969.833,170.833 1017.17,242.167 1064.5,313.5C 1064.86,240.084 1065.86,166.75 1067.5,93.5C 1087.41,91.2664 1107.41,90.9331 1127.5,92.5C 1128.5,93.5 1129.5,94.5 1130.5,95.5C 1131.83,203.5 1131.83,311.5 1130.5,419.5C 1118.99,420.812 1107.32,421.479 1095.5,421.5C 1084.17,421.167 1072.83,420.833 1061.5,420.5C 1060.17,419.833 1058.83,419.167 1057.5,418.5C 1041.42,393.329 1025.08,368.329 1008.5,343.5C 985.674,311.858 964.34,279.191 944.5,245.5C 935.167,232.167 925.833,218.833 916.5,205.5C 915.833,276.833 915.167,348.167 914.5,419.5C 892.329,421.475 869.996,422.141 847.5,421.5C 846.85,312.083 847.517,202.75 849.5,93.5C 851.483,93.8432 852.817,93.1765 853.5,91.5 Z"/></g>
<g><path style="opacity:0.973" fill="#000000" d="M 1211.5,91.5 C 1231.51,91.167 1251.51,91.5004 1271.5,92.5C 1275.07,94.069 1278.07,96.4024 1280.5,99.5C 1302.53,142.229 1324.53,184.896 1346.5,227.5C 1353.17,242.167 1359.83,256.833 1366.5,271.5C 1369.56,278.68 1372.23,286.014 1374.5,293.5C 1376,297.165 1378,300.498 1380.5,303.5C 1384.61,290.616 1389.28,277.949 1394.5,265.5C 1423.08,209.688 1451.74,153.688 1480.5,97.5C 1482.31,95.0971 1484.64,93.4305 1487.5,92.5C 1507.5,91.1667 1527.5,91.1667 1547.5,92.5C 1550.51,95.4814 1552.17,99.1481 1552.5,103.5C 1552.83,155.5 1553.17,207.5 1553.5,259.5C 1553.48,312.916 1552.82,366.249 1551.5,419.5C 1540.26,420.743 1528.93,421.409 1517.5,421.5C 1507.01,421.476 1496.67,420.809 1486.5,419.5C 1485.83,352.167 1485.17,284.833 1484.5,217.5C 1474.5,238.833 1464.5,260.167 1454.5,281.5C 1438.78,310.276 1424.11,339.609 1410.5,369.5C 1408.69,371.903 1406.36,373.57 1403.5,374.5C 1386.83,375.833 1370.17,375.833 1353.5,374.5C 1352.5,373.5 1351.5,372.5 1350.5,371.5C 1332.78,337.382 1316.11,302.716 1300.5,267.5C 1294.18,253.524 1286.85,240.191 1278.5,227.5C 1277.17,223.5 1275.83,219.5 1274.5,215.5C 1273.83,282.833 1273.17,350.167 1272.5,417.5C 1271.5,418.5 1270.5,419.5 1269.5,420.5C 1248.83,421.833 1228.17,421.833 1207.5,420.5C 1206.17,366.642 1205.5,312.642 1205.5,258.5C 1205.52,203.417 1206.18,148.417 1207.5,93.5C 1209.48,93.8432 1210.82,93.1765 1211.5,91.5 Z"/></g>
<g><path style="opacity:0.985" fill="#000000" d="M 1631.5,91.5 C 1700.84,91.1667 1770.17,91.5 1839.5,92.5C 1843.17,93.5 1845.5,95.8333 1846.5,99.5C 1847.83,113.5 1847.83,127.5 1846.5,141.5C 1844.16,144.286 1841.16,145.953 1837.5,146.5C 1790.17,147.5 1742.84,147.833 1695.5,147.5C 1695.5,173.5 1695.5,199.5 1695.5,225.5C 1738.17,225.167 1780.84,225.5 1823.5,226.5C 1824.74,229.638 1825.41,232.972 1825.5,236.5C 1823.92,250.317 1821.59,263.983 1818.5,277.5C 1817,278.752 1815.33,279.752 1813.5,280.5C 1781.14,281.996 1748.81,281.662 1716.5,279.5C 1709.48,280.108 1702.48,280.775 1695.5,281.5C 1695.5,310.167 1695.5,338.833 1695.5,367.5C 1744.84,367.167 1794.17,367.5 1843.5,368.5C 1845.33,369.248 1847,370.248 1848.5,371.5C 1849.83,386.833 1849.83,402.167 1848.5,417.5C 1847,418.752 1845.33,419.752 1843.5,420.5C 1807.83,420.833 1772.17,421.167 1736.5,421.5C 1700.36,421.494 1664.36,420.827 1628.5,419.5C 1627.17,311.5 1627.17,203.5 1628.5,95.5C 1629.93,94.4116 1630.93,93.0783 1631.5,91.5 Z"/></g>
<g><path style="opacity:0.979" fill="#000000" d="M 1909.5,91.5 C 1950.84,91.1668 1992.17,91.5001 2033.5,92.5C 2065.29,93.947 2095.29,101.947 2123.5,116.5C 2132.52,122.007 2141.18,128.007 2149.5,134.5C 2151,135.842 2151.67,137.508 2151.5,139.5C 2152.98,139.238 2154.31,139.571 2155.5,140.5C 2173.9,164.346 2184.9,191.346 2188.5,221.5C 2189.83,243.5 2189.83,265.5 2188.5,287.5C 2180.09,344.017 2149.75,383.684 2097.5,406.5C 2074.88,414.756 2051.55,419.423 2027.5,420.5C 1986.84,421.5 1946.17,421.833 1905.5,421.5C 1905.17,312.831 1905.5,204.165 1906.5,95.5C 1907.93,94.4116 1908.93,93.0783 1909.5,91.5 Z M 1973.5,147.5 C 1998.24,146.87 2022.91,147.87 2047.5,150.5C 2086.73,156.398 2110.4,178.732 2118.5,217.5C 2122.58,246.273 2121.91,274.94 2116.5,303.5C 2112.85,317.818 2105.85,330.151 2095.5,340.5C 2090.17,344.5 2084.83,348.5 2079.5,352.5C 2072.32,355.56 2064.99,358.227 2057.5,360.5C 2029.72,366.546 2001.72,368.213 1973.5,365.5C 1973.5,292.833 1973.5,220.167 1973.5,147.5 Z"/></g>
<g><path style="opacity:1" fill="#dedbd7" d="M 353.5,214.5 C 352.265,216.017 352.265,217.684 353.5,219.5C 353.058,220.739 352.391,221.739 351.5,222.5C 343.35,221.507 335.017,221.174 326.5,221.5C 326.5,220.5 326.5,219.5 326.5,218.5C 334.748,219.469 343.082,219.802 351.5,219.5C 351.497,216.325 350.497,213.492 348.5,211C 344.129,210.172 339.795,210.339 335.5,211.5C 335.291,212.086 334.957,212.586 334.5,213C 331.746,213.272 329.079,213.772 326.5,214.5C 326.187,210.958 326.521,207.625 327.5,204.5C 327.192,206.924 327.526,209.257 328.5,211.5C 329.5,211 330.5,210.5 331.5,210C 337.199,209.688 342.866,209.188 348.5,208.5C 348.326,206.139 347.993,203.806 347.5,201.5C 342.819,201.669 338.152,202.002 333.5,202.5C 333.5,202.167 333.5,201.833 333.5,201.5C 337.024,200.035 340.691,199.035 344.5,198.5C 344.703,196.61 344.037,195.11 342.5,194C 338.134,193.114 333.967,193.614 330,195.5C 329.495,197.518 328.995,199.518 328.5,201.5C 326.444,202.622 325.111,204.289 324.5,206.5C 324.501,201.997 325.334,197.663 327,193.5C 327.667,188.5 327.667,183.5 327,178.5C 316.76,170.963 306.26,163.796 295.5,157C 290,150.833 284.5,144.667 279,138.5C 276.274,134.381 274.107,130.048 272.5,125.5C 262.524,125.129 252.857,126.629 243.5,130C 235.208,131.405 226.875,131.738 218.5,131C 210.321,128.525 201.987,126.692 193.5,125.5C 191.215,125.676 189.215,126.343 187.5,127.5C 186.766,126.122 186.099,124.622 185.5,123C 182.304,122.195 179.304,122.362 176.5,123.5C 175.5,123.5 174.5,123.5 173.5,123.5C 170.636,123.064 168.303,123.897 166.5,126C 167.381,126.708 168.047,127.542 168.5,128.5C 168.672,129.492 168.338,130.158 167.5,130.5C 166.035,129.594 165.035,128.261 164.5,126.5C 162.955,125.548 161.288,125.215 159.5,125.5C 157.525,127.488 157.525,129.322 159.5,131C 159.272,131.399 158.938,131.565 158.5,131.5C 157.173,130.2 155.84,128.867 154.5,127.5C 150.5,128.738 149.833,130.738 152.5,133.5C 151.791,134.404 150.791,134.737 149.5,134.5C 147.099,132.938 145.099,133.271 143.5,135.5C 142.115,136.614 140.615,137.614 139,138.5C 138.601,138.272 138.435,137.938 138.5,137.5C 139.361,135.614 140.361,133.78 141.5,132C 145.479,129.364 149.479,126.697 153.5,124C 161.033,122.271 168.533,120.771 176,119.5C 180.083,120.796 184.249,121.296 188.5,121C 193.276,116.137 198.276,111.47 203.5,107C 227.951,94.932 249.784,98.7653 269,118.5C 269.483,119.448 269.649,120.448 269.5,121.5C 310.895,116.151 331.395,134.485 331,176.5C 335.333,180.833 339.667,185.167 344,189.5C 349.628,196.881 352.794,205.214 353.5,214.5 Z"/></g>
<g><path style="opacity:1" fill="#141212" d="M 292.5,142.5 C 293.82,140.537 295.154,138.537 296.5,136.5C 298.568,133.569 300.901,130.736 303.5,128C 307.111,126.746 308.611,127.912 308,131.5C 303.196,136.975 298.362,142.475 293.5,148C 292.552,148.483 291.552,148.649 290.5,148.5C 290.604,146.297 291.27,144.297 292.5,142.5 Z"/></g>
<g><path style="opacity:1" fill="#13110f" d="M 285.5,123.5 C 287.857,123.337 290.19,123.503 292.5,124C 290.46,127.914 288.293,131.748 286,135.5C 283.667,138.151 281.833,137.984 280.5,135C 282.316,131.204 283.983,127.37 285.5,123.5 Z"/></g>
<g><path style="opacity:1" fill="#10100f" d="M 173.5,123.5 C 175.999,127.832 177.332,132.499 177.5,137.5C 176.448,137.649 175.448,137.483 174.5,137C 173.055,133.73 171.055,130.897 168.5,128.5C 168.047,127.542 167.381,126.708 166.5,126C 168.303,123.897 170.636,123.064 173.5,123.5 Z"/></g>
<g><path style="opacity:1" fill="#64615b" d="M 299.5,125.5 C 297.114,125.259 295.114,125.925 293.5,127.5C 295.114,125.925 297.114,125.259 299.5,125.5 Z"/></g>
<g><path style="opacity:1" fill="#0e0c0a" d="M 273.5,123.5 C 276.898,123.18 280.232,123.513 283.5,124.5C 279.669,132.409 276.336,132.076 273.5,123.5 Z"/></g>
<g><path style="opacity:1" fill="#080708" d="M 257.5,114.5 C 260.563,116.051 263.229,118.218 265.5,121C 263.138,122.731 260.471,123.565 257.5,123.5C 257.5,120.5 257.5,117.5 257.5,114.5 Z"/></g>
<g><path style="opacity:1" fill="#1a1919" d="M 204.5,121.5 C 203.586,118.272 203.253,114.939 203.5,111.5C 205.23,108.892 207.063,108.892 209,111.5C 209.29,115.863 209.79,120.196 210.5,124.5C 210.167,125.167 209.833,125.833 209.5,126.5C 206.788,125.788 205.121,124.121 204.5,121.5 Z"/></g>
<g><path style="opacity:1" fill="#13120f" d="M 201.5,118.5 C 201.366,120.292 201.699,121.958 202.5,123.5C 193.357,124.215 192.19,121.549 199,115.5C 200.31,116.13 201.144,117.13 201.5,118.5 Z"/></g>
<g><path style="opacity:1" fill="#86867d" d="M 203.5,111.5 C 203.253,114.939 203.586,118.272 204.5,121.5C 203.833,122.167 203.167,122.833 202.5,123.5C 201.699,121.958 201.366,120.292 201.5,118.5C 202.167,116.167 202.833,113.833 203.5,111.5 Z"/></g>
<g><path style="opacity:1" fill="#131214" d="M 237.5,104.5 C 239.511,105.417 240.511,107.083 240.5,109.5C 239.692,115.474 239.359,121.474 239.5,127.5C 238.167,127.5 236.833,127.5 235.5,127.5C 234.868,119.427 235.535,111.76 237.5,104.5 Z"/></g>
<g><path style="opacity:1" fill="#0d0c0c" d="M 251.5,110.5 C 252.5,110.5 253.5,110.5 254.5,110.5C 254.666,114.514 254.499,118.514 254,122.5C 250.715,126.851 249.215,126.184 249.5,120.5C 249.701,117.012 250.368,113.679 251.5,110.5 Z"/></g>
<g><path style="opacity:1" fill="#737372" d="M 222.5,104.5 C 223.919,103.549 225.585,103.216 227.5,103.5C 227.5,107.833 227.5,112.167 227.5,116.5C 226.676,112.688 226.176,108.688 226,104.5C 225.829,112.344 225.329,120.011 224.5,127.5C 225.132,119.427 224.465,111.76 222.5,104.5 Z"/></g>
<g><path style="opacity:1" fill="#0e0d0e" d="M 242.5,106.5 C 245.549,105.869 247.882,107.202 249.5,110.5C 247.157,115.539 245.824,120.872 245.5,126.5C 244.264,127.246 242.93,127.579 241.5,127.5C 241.126,121.622 241.792,115.955 243.5,110.5C 243.489,108.955 243.156,107.622 242.5,106.5 Z"/></g>
<g><path style="opacity:1" fill="#999a97" d="M 228.5,103.5 C 229.919,102.549 231.585,102.216 233.5,102.5C 233.664,108.167 233.997,108.5 234.5,103.5C 235.791,103.263 236.791,103.596 237.5,104.5C 235.535,111.76 234.868,119.427 235.5,127.5C 235.135,122.906 234.135,118.573 232.5,114.5C 232.5,110.833 232.5,107.167 232.5,103.5C 231.167,103.5 229.833,103.5 228.5,103.5 Z"/></g>
<g><path style="opacity:1" fill="#131212" d="M 214.5,105.5 C 216.924,112.504 217.924,119.837 217.5,127.5C 216.167,127.5 214.833,127.5 213.5,127.5C 213.32,122.704 212.653,118.037 211.5,113.5C 211.667,111.5 211.833,109.5 212,107.5C 212.995,106.934 213.828,106.267 214.5,105.5 Z"/></g>
<g><path style="opacity:1" fill="#050505" d="M 222.5,104.5 C 224.465,111.76 225.132,119.427 224.5,127.5C 222.833,127.5 221.167,127.5 219.5,127.5C 219.666,121.824 219.499,116.157 219,110.5C 216.553,106.641 217.719,104.641 222.5,104.5 Z"/></g>
<g><path style="opacity:1" fill="#080707" d="M 227.5,103.5 C 227.833,103.5 228.167,103.5 228.5,103.5C 229.833,103.5 231.167,103.5 232.5,103.5C 232.5,107.167 232.5,110.833 232.5,114.5C 231.559,119.07 231.226,123.737 231.5,128.5C 230.167,128.5 228.833,128.5 227.5,128.5C 227.5,124.5 227.5,120.5 227.5,116.5C 227.5,112.167 227.5,107.833 227.5,103.5 Z"/></g>
<g><path style="opacity:1" fill="#141414" d="M 158.5,131.5 C 162.734,136.711 166.067,142.378 168.5,148.5C 167.127,148.657 165.793,148.49 164.5,148C 161.013,142.685 157.013,137.852 152.5,133.5C 149.833,130.738 150.5,128.738 154.5,127.5C 155.84,128.867 157.173,130.2 158.5,131.5 Z"/></g>
<g><path style="opacity:1" fill="#121110" d="M 299.5,125.5 C 300.043,125.56 300.376,125.893 300.5,126.5C 299.063,129.716 297.396,132.716 295.5,135.5C 293.844,137.46 292.177,139.46 290.5,141.5C 288.008,143.092 286.008,142.592 284.5,140C 288.127,136.292 291.127,132.126 293.5,127.5C 295.114,125.925 297.114,125.259 299.5,125.5 Z"/></g>
<g><path style="opacity:1" fill="#9b9995" d="M 295.5,135.5 C 295.5,136.167 295.833,136.5 296.5,136.5C 295.154,138.537 293.82,140.537 292.5,142.5C 292.158,141.662 291.492,141.328 290.5,141.5C 292.177,139.46 293.844,137.46 295.5,135.5 Z"/></g>
<g><path style="opacity:1" fill="#151411" d="M 315.5,139.5 C 319.419,138.746 320.753,140.08 319.5,143.5C 316.108,146.217 313.108,149.384 310.5,153C 307.977,153.518 305.977,154.852 304.5,157C 302.339,157.722 300.672,157.055 299.5,155C 303.88,150.952 308.546,147.285 313.5,144C 314.267,142.53 314.933,141.03 315.5,139.5 Z"/></g>
<g><path style="opacity:1" fill="#0e0e0e" d="M 149.5,134.5 C 153.13,138.631 156.963,142.631 161,146.5C 162.559,148.217 163.392,150.217 163.5,152.5C 155.027,149.033 148.361,143.366 143.5,135.5C 145.099,133.271 147.099,132.938 149.5,134.5 Z"/></g>
<g><path style="opacity:1" fill="#151413" d="M 310.5,132.5 C 313.524,132.364 315.024,133.698 315,136.5C 308.93,141.405 303.43,146.739 298.5,152.5C 295.984,153.949 294.817,153.282 295,150.5C 299.628,144.038 304.795,138.038 310.5,132.5 Z"/></g>
<g><path style="opacity:1" fill="#13110f" d="M 320.5,146.5 C 324.143,147.119 325.143,149.119 323.5,152.5C 319.63,154.27 316.297,156.77 313.5,160C 311.635,161.301 309.635,161.635 307.5,161C 306.549,160.282 306.383,159.449 307,158.5C 311.099,153.892 315.599,149.892 320.5,146.5 Z"/></g>
<g><path style="opacity:1" fill="#d0d0ce" d="M 187.5,127.5 C 179.479,140.026 169.812,151.193 158.5,161C 157.099,161.41 155.766,161.91 154.5,162.5C 154.158,161.662 153.492,161.328 152.5,161.5C 148.854,154.855 143.854,149.522 137.5,145.5C 139.179,142.988 138.845,140.988 136.5,139.5C 136.833,138.5 137.5,137.833 138.5,137.5C 138.435,137.938 138.601,138.272 139,138.5C 140.615,137.614 142.115,136.614 143.5,135.5C 148.361,143.366 155.027,149.033 163.5,152.5C 163.392,150.217 162.559,148.217 161,146.5C 156.963,142.631 153.13,138.631 149.5,134.5C 150.791,134.737 151.791,134.404 152.5,133.5C 157.013,137.852 161.013,142.685 164.5,148C 165.793,148.49 167.127,148.657 168.5,148.5C 166.067,142.378 162.734,136.711 158.5,131.5C 158.938,131.565 159.272,131.399 159.5,131C 157.525,129.322 157.525,127.488 159.5,125.5C 161.334,132.173 164.667,138.006 169.5,143C 171.607,143.854 172.941,143.188 173.5,141C 171.256,137.602 169.256,134.102 167.5,130.5C 168.338,130.158 168.672,129.492 168.5,128.5C 171.055,130.897 173.055,133.73 174.5,137C 175.448,137.483 176.448,137.649 177.5,137.5C 177.332,132.499 175.999,127.832 173.5,123.5C 174.5,123.5 175.5,123.5 176.5,123.5C 179.304,122.362 182.304,122.195 185.5,123C 186.099,124.622 186.766,126.122 187.5,127.5 Z"/></g>
<g><path style="opacity:1" fill="#141415" d="M 140.5,138.5 C 147.269,144.265 153.269,150.598 158.5,157.5C 156.345,157.628 154.345,157.128 152.5,156C 148.776,151.954 144.776,148.121 140.5,144.5C 139.306,142.484 139.306,140.484 140.5,138.5 Z"/></g>
<g><path style="opacity:1" fill="#121212" d="M 159.5,125.5 C 161.288,125.215 162.955,125.548 164.5,126.5C 165.035,128.261 166.035,129.594 167.5,130.5C 169.256,134.102 171.256,137.602 173.5,141C 172.941,143.188 171.607,143.854 169.5,143C 164.667,138.006 161.334,132.173 159.5,125.5 Z"/></g>
<g><path style="opacity:1" fill="#171614" d="M 176.5,123.5 C 179.167,123.5 181.833,123.5 184.5,123.5C 181.853,132.822 179.186,132.822 176.5,123.5 Z"/></g>
<g><path style="opacity:1" fill="#111010" d="M 137.5,145.5 C 143.854,149.522 148.854,154.855 152.5,161.5C 149.445,160.964 146.445,160.131 143.5,159C 141.487,155.931 138.82,154.265 135.5,154C 136.126,154.75 136.626,155.584 137,156.5C 140.485,158.82 143.651,161.487 146.5,164.5C 141.573,165.172 137.073,163.839 133,160.5C 132.783,154.986 134.283,149.986 137.5,145.5 Z"/></g>
<g><path style="opacity:1" fill="#151311" d="M 321.5,164.5 C 319.435,164.517 317.435,164.85 315.5,165.5C 313.804,165.315 312.471,164.481 311.5,163C 316.263,160.721 320.596,157.888 324.5,154.5C 326.5,154.5 327.5,155.5 327.5,157.5C 325.507,159.828 323.507,162.161 321.5,164.5 Z"/></g>
<g><path style="opacity:1" fill="#090603" d="M 324.5,206.5 C 323.167,219.167 323.167,231.833 324.5,244.5C 324.194,247.385 324.527,250.052 325.5,252.5C 327.537,258.932 328.037,265.598 327,272.5C 321.869,276.811 316.369,280.478 310.5,283.5C 305.868,286.143 301.535,289.143 297.5,292.5C 292.202,297.297 287.035,302.297 282,307.5C 279.001,313.502 275.501,319.168 271.5,324.5C 268.216,325.657 264.882,325.824 261.5,325C 246.621,319.814 231.288,318.148 215.5,320C 214.944,320.383 214.611,320.883 214.5,321.5C 214.167,321.5 213.833,321.5 213.5,321.5C 208.41,322.438 203.41,323.605 198.5,325C 195.118,325.824 191.784,325.657 188.5,324.5C 182.123,314.286 174.79,304.786 166.5,296C 155.474,288.156 144.141,280.823 132.5,274C 131.866,271.925 131.532,269.759 131.5,267.5C 132.993,259.262 133.993,250.929 134.5,242.5C 135.487,237.695 135.821,232.695 135.5,227.5C 136.72,225.95 136.72,224.284 135.5,222.5C 135.823,216.31 135.49,210.31 134.5,204.5C 132.679,195.589 131.846,186.589 132,177.5C 139.705,172.595 147.205,167.595 154.5,162.5C 155.766,161.91 157.099,161.41 158.5,161C 169.812,151.193 179.479,140.026 187.5,127.5C 189.215,126.343 191.215,125.676 193.5,125.5C 201.987,126.692 210.321,128.525 218.5,131C 226.875,131.738 235.208,131.405 243.5,130C 252.857,126.629 262.524,125.129 272.5,125.5C 274.107,130.048 276.274,134.381 279,138.5C 284.5,144.667 290,150.833 295.5,157C 306.26,163.796 316.76,170.963 327,178.5C 327.667,183.5 327.667,188.5 327,193.5C 325.334,197.663 324.501,201.997 324.5,206.5 Z"/></g>
<g><path style="opacity:1" fill="#1a1917" d="M 187.5,198.5 C 187.5,225.5 187.5,252.5 187.5,279.5C 186.833,250.331 186.167,220.997 185.5,191.5C 184.264,192.246 182.93,192.579 181.5,192.5C 182.29,191.206 183.29,190.039 184.5,189C 192.805,184.848 200.805,180.181 208.5,175C 214.412,171.876 220.412,169.043 226.5,166.5C 226.917,161.932 224.917,160.432 220.5,162C 206.054,171.222 191.054,179.389 175.5,186.5C 174.957,186.44 174.624,186.107 174.5,185.5C 176.045,184.548 177.712,184.215 179.5,184.5C 179.688,182.897 179.188,181.563 178,180.5C 178.077,181.738 177.911,182.738 177.5,183.5C 176.482,182.807 175.482,182.141 174.5,181.5C 189.228,173.136 204.228,165.303 219.5,158C 226.305,156.019 231.638,157.852 235.5,163.5C 220.838,172.834 205.838,181.667 190.5,190C 187.875,192.196 186.875,195.03 187.5,198.5 Z"/></g>
<g><path style="opacity:1" fill="#a8a19a" d="M 321.5,164.5 C 322.5,164.5 323.5,164.5 324.5,164.5C 322.257,165.132 320.591,166.466 319.5,168.5C 318.128,167.488 316.795,166.488 315.5,165.5C 317.435,164.85 319.435,164.517 321.5,164.5 Z"/></g>
<g><path style="opacity:1" fill="#171512" d="M 324.5,164.5 C 329.17,165.689 330.503,168.522 328.5,173C 327.5,173.667 326.5,173.667 325.5,173C 323.649,171.248 321.649,169.748 319.5,168.5C 320.591,166.466 322.257,165.132 324.5,164.5 Z"/></g>
<g><path style="opacity:1" fill="#13100e" d="M 238.5,168.5 C 237.647,171.363 235.98,173.696 233.5,175.5C 234.325,176.386 235.325,176.719 236.5,176.5C 226.197,182.32 215.864,188.153 205.5,194C 203.963,195.11 203.297,196.61 203.5,198.5C 210.845,197.077 217.845,194.577 224.5,191C 234.634,185.028 244.634,178.862 254.5,172.5C 254.137,171.817 253.804,171.15 253.5,170.5C 255.672,170.837 257.505,171.837 259,173.5C 262.267,172.984 265.434,172.65 268.5,172.5C 248.608,183.275 228.941,194.275 209.5,205.5C 203.307,205.734 197.973,203.734 193.5,199.5C 193.269,196.215 194.603,193.715 197.5,192C 210.932,183.621 224.599,175.788 238.5,168.5 Z"/></g>
<g><path style="opacity:1" fill="#e7e5e2" d="M 136.5,139.5 C 138.845,140.988 139.179,142.988 137.5,145.5C 134.283,149.986 132.783,154.986 133,160.5C 137.073,163.839 141.573,165.172 146.5,164.5C 143.651,161.487 140.485,158.82 137,156.5C 136.626,155.584 136.126,154.75 135.5,154C 138.82,154.265 141.487,155.931 143.5,159C 146.445,160.131 149.445,160.964 152.5,161.5C 153.492,161.328 154.158,161.662 154.5,162.5C 147.205,167.595 139.705,172.595 132,177.5C 131.846,186.589 132.679,195.589 134.5,204.5C 134.822,210.358 134.489,216.025 133.5,221.5C 130.482,221.665 127.482,221.498 124.5,221C 123.584,220.722 122.918,220.222 122.5,219.5C 116.934,218.793 111.268,218.126 105.5,217.5C 105.335,214.482 105.502,211.482 106,208.5C 110.221,195.958 117.221,185.291 127,176.5C 127.077,163.251 130.243,150.917 136.5,139.5 Z"/></g>
<g><path style="opacity:1" fill="#100f0d" d="M 131.5,164.5 C 140.536,166.641 140.703,169.641 132,173.5C 131.502,170.518 131.335,167.518 131.5,164.5 Z"/></g>
<g><path style="opacity:1" fill="#0a0a0a" d="M 331.5,183.5 C 342.823,188.861 342.157,191.528 329.5,191.5C 329.107,188.487 329.774,185.82 331.5,183.5 Z"/></g>
<g><path style="opacity:1" fill="#181613" d="M 129.5,191.5 C 126.558,190.696 123.891,189.362 121.5,187.5C 123.481,185.856 125.481,184.19 127.5,182.5C 128.932,185.327 129.599,188.327 129.5,191.5 Z"/></g>
<g><path style="opacity:1" fill="#cbc7c0" d="M 181.5,192.5 C 180.883,192.611 180.383,192.944 180,193.5C 179.832,219.337 179.332,245.003 178.5,270.5C 178.176,244.122 178.509,217.789 179.5,191.5C 178.758,190.713 177.925,190.047 177,189.5C 176.5,216.165 176.333,242.831 176.5,269.5C 175.502,242.005 175.169,214.338 175.5,186.5C 191.054,179.389 206.054,171.222 220.5,162C 224.917,160.432 226.917,161.932 226.5,166.5C 220.412,169.043 214.412,171.876 208.5,175C 200.805,180.181 192.805,184.848 184.5,189C 183.29,190.039 182.29,191.206 181.5,192.5 Z"/></g>
<g><path style="opacity:1" fill="#e3d9d2" d="M 253.5,170.5 C 253.804,171.15 254.137,171.817 254.5,172.5C 244.634,178.862 234.634,185.028 224.5,191C 217.845,194.577 210.845,197.077 203.5,198.5C 203.297,196.61 203.963,195.11 205.5,194C 215.864,188.153 226.197,182.32 236.5,176.5C 240.357,174.161 244.357,171.994 248.5,170C 250.265,169.36 251.932,169.527 253.5,170.5 Z"/></g>
<g><path style="opacity:1" fill="#c2bdb9" d="M 121.5,187.5 C 123.891,189.362 126.558,190.696 129.5,191.5C 129.167,192.167 128.833,192.833 128.5,193.5C 125.413,191.983 122.079,191.316 118.5,191.5C 119.026,189.77 120.026,188.436 121.5,187.5 Z"/></g>
<g><path style="opacity:1" fill="#dcd3cc" d="M 278.5,172.5 C 277.167,172.5 275.833,172.5 274.5,172.5C 274.67,173.822 274.337,174.989 273.5,176C 277.025,176.179 280.359,176.679 283.5,177.5C 278.156,177.334 272.823,177.501 267.5,178C 258.524,183.825 249.191,189.159 239.5,194C 233.55,197.651 227.717,201.484 222,205.5C 221.5,223.164 221.333,240.83 221.5,258.5C 221.827,267.682 221.493,276.682 220.5,285.5C 220.667,258.498 220.5,231.498 220,204.5C 219.667,205.167 219.333,205.833 219,206.5C 217.559,205.74 216.059,205.074 214.5,204.5C 212.929,205.309 211.262,205.643 209.5,205.5C 228.941,194.275 248.608,183.275 268.5,172.5C 271.936,171.218 275.269,171.218 278.5,172.5 Z"/></g>
<g><path style="opacity:1" fill="#110f0c" d="M 118.5,191.5 C 122.079,191.316 125.413,191.983 128.5,193.5C 130.447,195.216 131.781,197.383 132.5,200C 126.508,200.236 120.842,198.902 115.5,196C 116.053,194.122 117.053,192.622 118.5,191.5 Z"/></g>
<g><path style="opacity:1" fill="#12100e" d="M 333.5,201.5 C 331.833,201.5 330.167,201.5 328.5,201.5C 328.995,199.518 329.495,197.518 330,195.5C 333.967,193.614 338.134,193.114 342.5,194C 344.037,195.11 344.703,196.61 344.5,198.5C 340.691,199.035 337.024,200.035 333.5,201.5 Z"/></g>
<g><path style="opacity:1" fill="#161513" d="M 283.5,177.5 C 285.797,178.835 287.797,180.668 289.5,183C 287.874,185.628 285.874,187.961 283.5,190C 268.672,198.022 254.005,206.189 239.5,214.5C 239.881,213.069 240.881,212.236 242.5,212C 241.016,211.338 239.683,210.504 238.5,209.5C 251.469,201.679 264.469,193.846 277.5,186C 279.063,183.524 278.396,182.024 275.5,181.5C 270.718,183.39 266.052,185.557 261.5,188C 250.729,195.631 239.396,202.131 227.5,207.5C 227.5,234.167 227.5,260.833 227.5,287.5C 226.668,263.337 226.168,239.003 226,214.5C 225.667,235.5 225.333,256.5 225,277.5C 224.667,277.833 224.333,278.167 224,278.5C 223.117,271.692 222.283,265.025 221.5,258.5C 221.333,240.83 221.5,223.164 222,205.5C 227.717,201.484 233.55,197.651 239.5,194C 249.191,189.159 258.524,183.825 267.5,178C 272.823,177.501 278.156,177.334 283.5,177.5 Z"/></g>
<g><path style="opacity:1" fill="#e7e7e6" d="M 120.5,97.5 C 120.739,99.4672 120.406,101.301 119.5,103C 120.996,103.507 122.163,103.007 123,101.5C 123.417,102.756 124.25,103.423 125.5,103.5C 119.185,108.315 113.352,113.648 108,119.5C 107.446,123.428 105.446,124.761 102,123.5C 101.689,124.742 102.189,125.742 103.5,126.5C 103,127.5 102.5,128.5 102,129.5C 94.0083,138.823 87.675,149.157 83,160.5C 62.6379,210.601 65.4713,259.267 91.5,306.5C 96.1792,313.204 100.846,319.871 105.5,326.5C 106.694,327.272 107.694,328.272 108.5,329.5C 107.087,332.661 105.42,335.661 103.5,338.5C 102.114,336.062 102.447,333.729 104.5,331.5C 103.478,330.646 102.645,329.646 102,328.5C 101.667,329.167 101.333,329.833 101,330.5C 100.51,329.207 100.343,327.873 100.5,326.5C 99.1667,326.5 97.8333,326.5 96.5,326.5C 90.7757,318.74 85.2757,310.74 80,302.5C 51.6065,241.327 55.9398,182.66 93,126.5C 101.302,116.03 110.469,106.364 120.5,97.5 Z"/></g>
<g><path style="opacity:1" fill="#f9f9f8" d="M 278.5,172.5 C 286.187,172.419 291.687,175.752 295,182.5C 295.667,210.5 295.667,238.5 295,266.5C 292.833,268.667 290.667,270.833 288.5,273C 274.701,280.734 261.035,288.734 247.5,297C 244.854,297.497 242.187,297.664 239.5,297.5C 239.5,269.833 239.5,242.167 239.5,214.5C 254.005,206.189 268.672,198.022 283.5,190C 285.874,187.961 287.874,185.628 289.5,183C 287.797,180.668 285.797,178.835 283.5,177.5C 280.359,176.679 277.025,176.179 273.5,176C 274.337,174.989 274.67,173.822 274.5,172.5C 275.833,172.5 277.167,172.5 278.5,172.5 Z"/></g>
<g><path style="opacity:1" fill="#100d0b" d="M 112.5,199.5 C 118.566,200.402 124.566,201.735 130.5,203.5C 131.466,205.396 131.799,207.396 131.5,209.5C 129.143,209.337 126.81,209.503 124.5,210C 127.149,210.452 129.649,211.286 132,212.5C 132.758,214.769 132.591,216.936 131.5,219C 124.313,217.759 116.98,217.259 109.5,217.5C 109.5,214.833 109.5,212.167 109.5,209.5C 114.179,209.666 118.845,209.499 123.5,209C 119.3,207.633 114.967,207.133 110.5,207.5C 110.283,204.579 110.949,201.913 112.5,199.5 Z"/></g>
<g><path style="opacity:1" fill="#dedbd6" d="M 238.5,168.5 C 224.599,175.788 210.932,183.621 197.5,192C 194.603,193.715 193.269,196.215 193.5,199.5C 192.761,199.631 192.094,199.464 191.5,199C 192.517,197.951 192.684,196.784 192,195.5C 190.908,197.117 189.408,198.117 187.5,198.5C 186.875,195.03 187.875,192.196 190.5,190C 205.838,181.667 220.838,172.834 235.5,163.5C 231.638,157.852 226.305,156.019 219.5,158C 204.228,165.303 189.228,173.136 174.5,181.5C 171.633,181.369 169.967,182.703 169.5,185.5C 169.5,210.833 169.5,236.167 169.5,261.5C 168.644,264.513 166.811,265.18 164,263.5C 163.333,236.833 163.333,210.167 164,183.5C 181.032,173.062 198.532,163.228 216.5,154C 221.833,153.333 227.167,153.333 232.5,154C 238.675,156.133 241.508,160.3 241,166.5C 240.292,167.381 239.458,168.047 238.5,168.5 Z"/></g>
<g><path style="opacity:1" fill="#120e0a" d="M 327.5,204.5 C 329.5,203.833 331.5,203.167 333.5,202.5C 338.152,202.002 342.819,201.669 347.5,201.5C 347.993,203.806 348.326,206.139 348.5,208.5C 342.866,209.188 337.199,209.688 331.5,210C 330.5,210.5 329.5,211 328.5,211.5C 327.526,209.257 327.192,206.924 327.5,204.5 Z"/></g>
<g><path style="opacity:1" fill="#110e0c" d="M 326.5,218.5 C 326.5,217.167 326.5,215.833 326.5,214.5C 329.079,213.772 331.746,213.272 334.5,213C 334.957,212.586 335.291,212.086 335.5,211.5C 339.795,210.339 344.129,210.172 348.5,211C 350.497,213.492 351.497,216.325 351.5,219.5C 343.082,219.802 334.748,219.469 326.5,218.5 Z"/></g>
<g><path style="opacity:1" fill="#5f5b57" d="M 134.5,204.5 C 135.49,210.31 135.823,216.31 135.5,222.5C 134.833,222.5 134.167,222.5 133.5,222.5C 133.5,222.167 133.5,221.833 133.5,221.5C 134.489,216.025 134.822,210.358 134.5,204.5 Z"/></g>
<g><path style="opacity:1" fill="#fafbfa" d="M 193.5,199.5 C 197.973,203.734 203.307,205.734 209.5,205.5C 211.262,205.643 212.929,205.309 214.5,204.5C 216.059,205.074 217.559,205.74 219,206.5C 219.333,205.833 219.667,205.167 220,204.5C 220.5,231.498 220.667,258.498 220.5,285.5C 217.041,286.363 213.708,287.53 210.5,289C 202.623,288.855 195.29,286.522 188.5,282C 187.748,281.329 187.414,280.496 187.5,279.5C 187.5,252.5 187.5,225.5 187.5,198.5C 189.408,198.117 190.908,197.117 192,195.5C 192.684,196.784 192.517,197.951 191.5,199C 192.094,199.464 192.761,199.631 193.5,199.5 Z"/></g>
<g><path style="opacity:1" fill="#95928b" d="M 104.5,218.5 C 104.5,217.833 104.833,217.5 105.5,217.5C 111.268,218.126 116.934,218.793 122.5,219.5C 117.5,219.5 112.5,219.5 107.5,219.5C 107.5,221.833 107.5,224.167 107.5,226.5C 106.686,224.369 106.186,222.036 106,219.5C 105.617,218.944 105.117,218.611 104.5,218.5 Z"/></g>
<g><path style="opacity:1" fill="#faf8f4" d="M 133.5,222.5 C 134.167,222.5 134.833,222.5 135.5,222.5C 136.72,224.284 136.72,225.95 135.5,227.5C 134.978,229.219 133.978,230.552 132.5,231.5C 129.167,230.833 125.833,230.167 122.5,229.5C 125.85,229.665 129.183,229.498 132.5,229C 133.423,226.959 133.756,224.792 133.5,222.5 Z"/></g>
<g><path style="opacity:1" fill="#908579" d="M 122.5,229.5 C 125.833,230.167 129.167,230.833 132.5,231.5C 128.154,231.666 123.821,231.499 119.5,231C 120.527,230.487 121.527,229.987 122.5,229.5 Z"/></g>
<g><path style="opacity:1" fill="#0c0806" d="M 122.5,219.5 C 122.918,220.222 123.584,220.722 124.5,221C 127.482,221.498 130.482,221.665 133.5,221.5C 133.5,221.833 133.5,222.167 133.5,222.5C 133.756,224.792 133.423,226.959 132.5,229C 129.183,229.498 125.85,229.665 122.5,229.5C 121.527,229.987 120.527,230.487 119.5,231C 123.821,231.499 128.154,231.666 132.5,231.5C 132.5,232.167 132.833,232.5 133.5,232.5C 133.435,234.696 132.768,236.696 131.5,238.5C 128.029,239.097 124.695,239.764 121.5,240.5C 117.566,241.36 113.566,241.693 109.5,241.5C 109.5,238.833 109.5,236.167 109.5,233.5C 121.316,232.519 121.316,231.685 109.5,231C 107.963,229.89 107.297,228.39 107.5,226.5C 107.5,224.167 107.5,221.833 107.5,219.5C 112.5,219.5 117.5,219.5 122.5,219.5 Z"/></g>
<g><path style="opacity:1" fill="#f6f5f0" d="M 178.5,270.5 C 177.508,270.672 176.842,270.338 176.5,269.5C 176.333,242.831 176.5,216.165 177,189.5C 177.925,190.047 178.758,190.713 179.5,191.5C 178.509,217.789 178.176,244.122 178.5,270.5 Z"/></g>
<g><path style="opacity:1" fill="#a3a09c" d="M 135.5,227.5 C 135.821,232.695 135.487,237.695 134.5,242.5C 134.813,238.958 134.479,235.625 133.5,232.5C 132.833,232.5 132.5,232.167 132.5,231.5C 133.978,230.552 134.978,229.219 135.5,227.5 Z"/></g>
<g><path style="opacity:1" fill="#291a1e" d="M 169.5,185.5 C 171.028,198.798 171.695,212.298 171.5,226C 171.238,238.272 171.071,250.439 171,262.5C 170.617,261.944 170.117,261.611 169.5,261.5C 169.5,236.167 169.5,210.833 169.5,185.5 Z"/></g>
<g><path style="opacity:1" fill="#e7e4e1" d="M 328.5,201.5 C 330.167,201.5 331.833,201.5 333.5,201.5C 333.5,201.833 333.5,202.167 333.5,202.5C 331.5,203.167 329.5,203.833 327.5,204.5C 326.521,207.625 326.187,210.958 326.5,214.5C 326.5,215.833 326.5,217.167 326.5,218.5C 326.5,219.5 326.5,220.5 326.5,221.5C 326.39,224.059 327.056,226.392 328.5,228.5C 335.783,229.632 343.117,229.799 350.5,229C 351.423,226.959 351.756,224.792 351.5,222.5C 352.391,221.739 353.058,220.739 353.5,219.5C 352.265,217.684 352.265,216.017 353.5,214.5C 354.885,224.448 354.552,234.448 352.5,244.5C 348.618,255.937 341.785,265.27 332,272.5C 331.994,281.71 330.994,290.71 329,299.5C 327.951,302.187 326.451,304.52 324.5,306.5C 323.833,306.5 323.5,306.167 323.5,305.5C 325.09,302.545 324.757,299.878 322.5,297.5C 322.328,296.508 322.662,295.842 323.5,295.5C 324.5,295.5 325.5,295.5 326.5,295.5C 326.357,293.738 326.691,292.071 327.5,290.5C 324.063,288.906 320.73,287.073 317.5,285C 316.072,284.421 314.738,284.588 313.5,285.5C 312.29,285.068 311.29,284.401 310.5,283.5C 316.369,280.478 321.869,276.811 327,272.5C 328.037,265.598 327.537,258.932 325.5,252.5C 325.263,251.209 325.596,250.209 326.5,249.5C 328.385,251.053 329.385,253.053 329.5,255.5C 333.67,257.229 338.003,257.729 342.5,257C 343.293,255.915 343.96,254.748 344.5,253.5C 339.395,250.016 333.728,248.683 327.5,249.5C 326.233,247.961 325.233,246.294 324.5,244.5C 323.167,231.833 323.167,219.167 324.5,206.5C 325.111,204.289 326.444,202.622 328.5,201.5 Z"/></g>
<g><path style="opacity:1" fill="#0b0907" d="M 327.5,239.5 C 328.5,239.5 329.5,239.5 330.5,239.5C 335.98,241.058 341.647,242.058 347.5,242.5C 348.057,244.718 348.057,247.051 347.5,249.5C 341.433,249.201 335.433,248.368 329.5,247C 327.722,244.865 327.055,242.365 327.5,239.5 Z"/></g>
<g><path style="opacity:1" fill="#84817f" d="M 327.5,236.5 C 329.735,236.205 331.735,236.539 333.5,237.5C 331.801,237.34 330.134,237.506 328.5,238C 329.416,238.278 330.082,238.778 330.5,239.5C 329.5,239.5 328.5,239.5 327.5,239.5C 327.5,238.5 327.5,237.5 327.5,236.5 Z"/></g>
<g><path style="opacity:1" fill="#16120f" d="M 333.5,237.5 C 331.735,236.539 329.735,236.205 327.5,236.5C 326.699,234.958 326.366,233.292 326.5,231.5C 334.84,230.203 343.174,230.203 351.5,231.5C 351.759,234.565 350.759,237.065 348.5,239C 343.28,239.983 338.28,239.483 333.5,237.5 Z"/></g>
<g><path style="opacity:1" fill="#130d0a" d="M 326.5,221.5 C 335.017,221.174 343.35,221.507 351.5,222.5C 351.756,224.792 351.423,226.959 350.5,229C 343.117,229.799 335.783,229.632 328.5,228.5C 327.056,226.392 326.39,224.059 326.5,221.5 Z"/></g>
<g><path style="opacity:1" fill="#706c6a" d="M 234.5,210.5 C 233.842,237.598 233.175,264.598 232.5,291.5C 232.5,291.167 232.5,290.833 232.5,290.5C 232.5,286.5 232.5,282.5 232.5,278.5C 231.844,255.475 232.51,232.809 234.5,210.5 Z"/></g>
<g><path style="opacity:1" fill="#706d6a" d="M 324.5,244.5 C 325.233,246.294 326.233,247.961 327.5,249.5C 327.167,249.5 326.833,249.5 326.5,249.5C 325.596,250.209 325.263,251.209 325.5,252.5C 324.527,250.052 324.194,247.385 324.5,244.5 Z"/></g>
<g><path style="opacity:1" fill="#0e0c0a" d="M 326.5,249.5 C 326.833,249.5 327.167,249.5 327.5,249.5C 333.728,248.683 339.395,250.016 344.5,253.5C 343.96,254.748 343.293,255.915 342.5,257C 338.003,257.729 333.67,257.229 329.5,255.5C 329.385,253.053 328.385,251.053 326.5,249.5 Z"/></g>
<g><path style="opacity:1" fill="#f1f4ed" d="M 232.5,278.5 C 232.5,282.5 232.5,286.5 232.5,290.5C 231.768,289.192 230.934,287.858 230,286.5C 229.667,286.833 229.333,287.167 229,287.5C 228.333,264.833 228.333,242.167 229,219.5C 229.419,220.672 230.085,221.672 231,222.5C 231.168,241.338 231.668,260.004 232.5,278.5 Z"/></g>
<g><path style="opacity:1" fill="#dedbd6" d="M 238.5,209.5 C 237.041,209.433 235.708,209.766 234.5,210.5C 232.51,232.809 231.844,255.475 232.5,278.5C 231.668,260.004 231.168,241.338 231,222.5C 230.085,221.672 229.419,220.672 229,219.5C 228.333,242.167 228.333,264.833 229,287.5C 229.333,287.167 229.667,286.833 230,286.5C 230.934,287.858 231.768,289.192 232.5,290.5C 232.5,290.833 232.5,291.167 232.5,291.5C 229.937,291.269 228.27,289.935 227.5,287.5C 227.5,260.833 227.5,234.167 227.5,207.5C 239.396,202.131 250.729,195.631 261.5,188C 266.052,185.557 270.718,183.39 275.5,181.5C 278.396,182.024 279.063,183.524 277.5,186C 264.469,193.846 251.469,201.679 238.5,209.5 Z"/></g>
<g><path style="opacity:1" fill="#110f0d" d="M 329.5,258.5 C 332.127,259.105 334.793,259.605 337.5,260C 338.428,260.388 339.095,261.055 339.5,262C 332.841,269.014 329.508,267.847 329.5,258.5 Z"/></g>
<g><path style="opacity:1" fill="#636261" d="M 326.5,277.5 C 327.209,276.596 328.209,276.263 329.5,276.5C 329.795,278.735 329.461,280.735 328.5,282.5C 328.923,280.219 328.256,278.552 326.5,277.5 Z"/></g>
<g><path style="opacity:1" fill="#13100e" d="M 326.5,277.5 C 328.256,278.552 328.923,280.219 328.5,282.5C 327.91,283.766 327.41,285.099 327,286.5C 324.11,285.406 321.277,284.24 318.5,283C 321.576,281.757 324.243,279.923 326.5,277.5 Z"/></g>
<g><path style="opacity:1" fill="#131210" d="M 323.5,295.5 C 320.583,292.697 317.25,290.363 313.5,288.5C 312.438,287.575 312.438,286.575 313.5,285.5C 314.738,284.588 316.072,284.421 317.5,285C 320.73,287.073 324.063,288.906 327.5,290.5C 326.691,292.071 326.357,293.738 326.5,295.5C 325.5,295.5 324.5,295.5 323.5,295.5 Z"/></g>
<g><path style="opacity:1" fill="#161412" d="M 322.5,297.5 C 324.757,299.878 325.09,302.545 323.5,305.5C 316.957,301.632 311.291,296.632 306.5,290.5C 308.074,289.369 309.741,289.202 311.5,290C 314.795,293.142 318.461,295.642 322.5,297.5 Z"/></g>
<g><path style="opacity:1" fill="#e2dfdc" d="M 104.5,218.5 C 105.117,218.611 105.617,218.944 106,219.5C 106.186,222.036 106.686,224.369 107.5,226.5C 107.297,228.39 107.963,229.89 109.5,231C 121.316,231.685 121.316,232.519 109.5,233.5C 107.836,238.196 108.503,242.529 111.5,246.5C 111.663,249.183 112.996,250.85 115.5,251.5C 120.273,250.307 124.94,248.807 129.5,247C 131.658,245.688 131.991,244.022 130.5,242C 128.19,241.503 125.857,241.337 123.5,241.5C 122.508,241.672 121.842,241.338 121.5,240.5C 124.695,239.764 128.029,239.097 131.5,238.5C 132.768,236.696 133.435,234.696 133.5,232.5C 134.479,235.625 134.813,238.958 134.5,242.5C 133.993,250.929 132.993,259.262 131.5,267.5C 131.532,269.759 131.866,271.925 132.5,274C 144.141,280.823 155.474,288.156 166.5,296C 174.79,304.786 182.123,314.286 188.5,324.5C 191.784,325.657 195.118,325.824 198.5,325C 203.41,323.605 208.41,322.438 213.5,321.5C 213.5,322.167 213.5,322.833 213.5,323.5C 213.713,326.451 213.046,329.118 211.5,331.5C 210.508,331.672 209.842,331.338 209.5,330.5C 209.421,329.07 209.754,327.736 210.5,326.5C 209.311,325.571 207.978,325.238 206.5,325.5C 205.542,325.953 204.708,326.619 204,327.5C 201.063,326.183 198.23,326.183 195.5,327.5C 194.005,327.415 193.005,328.081 192.5,329.5C 195.009,330.921 197.343,332.588 199.5,334.5C 200.935,333.053 201.935,331.386 202.5,329.5C 202.833,329.5 203.167,329.5 203.5,329.5C 203.18,332.898 203.513,336.232 204.5,339.5C 205.86,340.18 207.193,340.847 208.5,341.5C 209.167,341.833 209.833,342.167 210.5,342.5C 212.042,343.301 213.708,343.634 215.5,343.5C 215.229,341.62 215.896,340.287 217.5,339.5C 216.339,344.175 218.006,346.841 222.5,347.5C 224.017,347.489 225.184,346.823 226,345.5C 226.278,346.416 226.778,347.082 227.5,347.5C 229.5,347.5 231.5,347.5 233.5,347.5C 234.906,347.973 235.573,348.973 235.5,350.5C 216.465,351.314 200.798,344.481 188.5,330C 172.405,332.405 157.739,329.071 144.5,320C 139.833,316.181 136.166,311.681 133.5,306.5C 130.034,296.12 127.867,285.454 127,274.5C 110.697,259.216 103.197,240.55 104.5,218.5 Z"/></g>
<g><path style="opacity:1" fill="#151412" d="M 139.5,305.5 C 135.58,304.11 134.58,301.444 136.5,297.5C 138.984,295.517 141.317,293.35 143.5,291C 146.503,289.69 149.503,289.524 152.5,290.5C 149.148,294.686 145.314,298.353 141,301.5C 140.209,302.745 139.709,304.078 139.5,305.5 Z"/></g>
<g><path style="opacity:1" fill="#181615" d="M 139.5,305.5 C 144.208,302.477 148.542,298.977 152.5,295C 154.677,293.798 157.011,293.298 159.5,293.5C 159.5,294.5 159.5,295.5 159.5,296.5C 158.448,296.351 157.448,296.517 156.5,297C 151.86,301.64 147.194,306.306 142.5,311C 141.552,311.483 140.552,311.649 139.5,311.5C 139.5,309.5 139.5,307.5 139.5,305.5 Z"/></g>
<g><path style="opacity:1" fill="#0e0d0c" d="M 140.5,284.5 C 142.827,284.247 144.827,284.914 146.5,286.5C 141.888,289.608 137.722,293.275 134,297.5C 132.943,295.781 132.11,293.947 131.5,292C 134.232,289.062 137.232,286.562 140.5,284.5 Z"/></g>
<g><path style="opacity:1" fill="#101010" d="M 133.5,278.5 C 140.134,281.656 139.801,284.323 132.5,286.5C 131.844,285.378 131.511,284.045 131.5,282.5C 131.585,280.667 132.252,279.334 133.5,278.5 Z"/></g>
<g><path style="opacity:1" fill="#8d8d90" d="M 133.5,278.5 C 132.252,279.334 131.585,280.667 131.5,282.5C 131.511,284.045 131.844,285.378 132.5,286.5C 132.44,287.043 132.107,287.376 131.5,287.5C 130.341,283.878 130.175,280.211 131,276.5C 131.995,277.066 132.828,277.733 133.5,278.5 Z"/></g>
<g><path style="opacity:1" fill="#171615" d="M 126.5,259.5 C 127.5,259.5 128.5,259.5 129.5,259.5C 129.794,268.89 127.128,269.89 121.5,262.5C 123.36,261.675 125.026,260.675 126.5,259.5 Z"/></g>
<g><path style="opacity:1" fill="#100c0a" d="M 127.5,249.5 C 128.833,249.5 130.167,249.5 131.5,249.5C 132.041,252.652 131.041,255.152 128.5,257C 125.411,257.148 122.578,257.981 120,259.5C 118.299,258.476 116.799,257.142 115.5,255.5C 115.667,255.167 115.833,254.833 116,254.5C 119.785,252.441 123.619,250.775 127.5,249.5 Z"/></g>
<g><path style="opacity:1" fill="#0c0704" d="M 123.5,241.5 C 125.857,241.337 128.19,241.503 130.5,242C 131.991,244.022 131.658,245.688 129.5,247C 124.94,248.807 120.273,250.307 115.5,251.5C 112.996,250.85 111.663,249.183 111.5,246.5C 111.414,245.504 111.748,244.671 112.5,244C 115.5,243.667 118.5,243.333 121.5,243C 122.416,242.722 123.082,242.222 123.5,241.5 Z"/></g>
<g><path style="opacity:1" fill="#b7aea4" d="M 109.5,233.5 C 109.5,236.167 109.5,238.833 109.5,241.5C 113.566,241.693 117.566,241.36 121.5,240.5C 121.842,241.338 122.508,241.672 123.5,241.5C 123.082,242.222 122.416,242.722 121.5,243C 118.5,243.333 115.5,243.667 112.5,244C 111.748,244.671 111.414,245.504 111.5,246.5C 108.503,242.529 107.836,238.196 109.5,233.5 Z"/></g>
<g><path style="opacity:1" fill="#141211" d="M 298.5,304.5 C 297.974,302.77 296.974,301.436 295.5,300.5C 295.5,299.5 295.5,298.5 295.5,297.5C 296.552,297.351 297.552,297.517 298.5,298C 304,303.5 309.5,309 315,314.5C 315.483,315.448 315.649,316.448 315.5,317.5C 313.473,317.662 311.473,317.495 309.5,317C 305.934,312.667 302.267,308.501 298.5,304.5 Z"/></g>
<g><path style="opacity:1" fill="#14100d" d="M 165.5,301.5 C 168.076,301.722 168.91,303.055 168,305.5C 164.002,310.673 160.169,316.006 156.5,321.5C 153.034,323.174 151.201,322.174 151,318.5C 156.79,313.546 161.623,307.879 165.5,301.5 Z"/></g>
<g><path style="opacity:1" fill="#161310" d="M 160.5,297.5 C 162.252,297.418 163.252,298.251 163.5,300C 159.257,306.249 154.257,311.915 148.5,317C 145.478,317.636 143.978,316.47 144,313.5C 149.612,307.713 155.112,302.379 160.5,297.5 Z"/></g>
<g><path style="opacity:1" fill="#cfccc6" d="M 310.5,283.5 C 311.29,284.401 312.29,285.068 313.5,285.5C 312.438,286.575 312.438,287.575 313.5,288.5C 317.25,290.363 320.583,292.697 323.5,295.5C 322.662,295.842 322.328,296.508 322.5,297.5C 318.461,295.642 314.795,293.142 311.5,290C 309.741,289.202 308.074,289.369 306.5,290.5C 311.291,296.632 316.957,301.632 323.5,305.5C 323.5,306.167 323.833,306.5 324.5,306.5C 319.637,318.855 310.637,326.355 297.5,329C 290.174,329.5 282.841,329.666 275.5,329.5C 277.167,328.833 278.833,328.167 280.5,327.5C 281.167,327.5 281.833,327.5 282.5,327.5C 283.272,326.306 284.272,325.306 285.5,324.5C 287.098,327.363 289.431,328.03 292.5,326.5C 290.073,321.971 287.406,317.638 284.5,313.5C 285.492,313.672 286.158,313.338 286.5,312.5C 289.601,316.511 292.601,320.678 295.5,325C 297.259,325.798 298.926,325.631 300.5,324.5C 297.167,319.167 293.833,313.833 290.5,308.5C 289.675,307.614 288.675,307.281 287.5,307.5C 288.209,306.596 289.209,306.263 290.5,306.5C 290.216,304.585 290.549,302.919 291.5,301.5C 291.523,305.542 292.689,309.208 295,312.5C 298.009,315.875 300.842,319.375 303.5,323C 307.111,324.254 308.611,323.088 308,319.5C 304.71,314.378 300.877,309.711 296.5,305.5C 297.167,305.167 297.833,304.833 298.5,304.5C 302.267,308.501 305.934,312.667 309.5,317C 311.473,317.495 313.473,317.662 315.5,317.5C 315.649,316.448 315.483,315.448 315,314.5C 309.5,309 304,303.5 298.5,298C 297.552,297.517 296.552,297.351 295.5,297.5C 295.5,298.5 295.5,299.5 295.5,300.5C 294.566,299.432 294.232,298.099 294.5,296.5C 299.106,296.949 300.106,295.616 297.5,292.5C 301.535,289.143 305.868,286.143 310.5,283.5 Z"/></g>
<g><path style="opacity:1" fill="#0f0e0d" d="M 300.5,293.5 C 304.105,293.799 307.439,294.965 310.5,297C 313.297,300.799 316.464,304.299 320,307.5C 320.089,311.71 318.256,312.543 314.5,310C 308.849,305.195 304.182,299.695 300.5,293.5 Z"/></g>
<g><path style="opacity:1" fill="#100f0d" d="M 291.5,301.5 C 293.775,302.111 295.441,303.445 296.5,305.5C 300.877,309.711 304.71,314.378 308,319.5C 308.611,323.088 307.111,324.254 303.5,323C 300.842,319.375 298.009,315.875 295,312.5C 292.689,309.208 291.523,305.542 291.5,301.5 Z"/></g>
<g><path style="opacity:1" fill="#e6e3de" d="M 297.5,292.5 C 300.106,295.616 299.106,296.949 294.5,296.5C 294.232,298.099 294.566,299.432 295.5,300.5C 296.974,301.436 297.974,302.77 298.5,304.5C 297.833,304.833 297.167,305.167 296.5,305.5C 295.441,303.445 293.775,302.111 291.5,301.5C 290.549,302.919 290.216,304.585 290.5,306.5C 289.209,306.263 288.209,306.596 287.5,307.5C 283.887,308.411 283.554,310.078 286.5,312.5C 286.158,313.338 285.492,313.672 284.5,313.5C 284.167,313.5 283.833,313.5 283.5,313.5C 282.791,312.596 281.791,312.263 280.5,312.5C 280.483,314.565 280.15,316.565 279.5,318.5C 276.975,320.875 274.975,323.709 273.5,327C 275.81,327.497 278.143,327.663 280.5,327.5C 278.833,328.167 277.167,328.833 275.5,329.5C 271.913,327.526 269.746,328.526 269,332.5C 264.584,334.912 260.751,338.078 257.5,342C 252.701,344.735 247.701,346.902 242.5,348.5C 239.918,348.975 237.918,348.308 236.5,346.5C 237.833,346.167 239.167,345.833 240.5,345.5C 242.099,345.768 243.432,345.434 244.5,344.5C 246.755,343.913 248.421,342.58 249.5,340.5C 247.921,335.656 247.088,330.656 247,325.5C 245.416,324.139 243.582,323.472 241.5,323.5C 240.833,324.833 240.167,326.167 239.5,327.5C 239.5,326.167 239.5,324.833 239.5,323.5C 238.167,323.5 236.833,323.5 235.5,323.5C 234.833,325.5 234.167,327.5 233.5,329.5C 232.883,329.389 232.383,329.056 232,328.5C 231.667,326.5 231.333,324.5 231,322.5C 229.989,321.663 228.822,321.33 227.5,321.5C 226.778,321.918 226.278,322.584 226,323.5C 224.989,322.663 223.822,322.33 222.5,322.5C 221.5,322.5 220.5,322.5 219.5,322.5C 217.585,322.784 215.919,322.451 214.5,321.5C 214.611,320.883 214.944,320.383 215.5,320C 231.288,318.148 246.621,319.814 261.5,325C 264.882,325.824 268.216,325.657 271.5,324.5C 275.501,319.168 279.001,313.502 282,307.5C 287.035,302.297 292.202,297.297 297.5,292.5 Z"/></g>
<g><path style="opacity:1" fill="#0b0805" d="M 352.5,244.5 C 353.397,245.598 354.23,245.598 355,244.5C 355.273,246.101 355.773,247.601 356.5,249C 356.065,251.398 356.731,253.731 358.5,256C 356.956,256.29 355.623,256.956 354.5,258C 356.301,258.317 356.634,258.984 355.5,260C 353.285,260.17 351.285,260.837 349.5,262C 351.384,262.216 353.051,262.883 354.5,264C 352.382,264.26 350.716,265.26 349.5,267C 349.833,267.333 350.167,267.667 350.5,268C 348.048,268.29 345.715,268.956 343.5,270C 344.624,270.249 345.624,270.749 346.5,271.5C 345.052,272.354 343.719,273.354 342.5,274.5C 341.549,273.674 340.549,273.508 339.5,274C 339.623,276.211 339.623,278.378 339.5,280.5C 340.025,281.192 340.692,281.692 341.5,282C 337.456,282.651 335.79,284.818 336.5,288.5C 337.167,287.833 337.833,287.167 338.5,286.5C 341.028,287.498 341.028,288.331 338.5,289C 339.973,289.71 340.64,290.876 340.5,292.5C 338.833,292.5 337.167,292.5 335.5,292.5C 335.624,294.952 336.624,296.952 338.5,298.5C 338.333,299.167 338.167,299.833 338,300.5C 337.577,299.044 336.744,298.544 335.5,299C 336.833,300 336.833,301 335.5,302C 336.624,302.249 337.624,302.749 338.5,303.5C 337.167,304.167 335.833,304.833 334.5,305.5C 336.108,306.242 337.775,306.409 339.5,306C 337.641,307.981 335.308,308.981 332.5,309C 336.545,311.109 340.878,312.442 345.5,313C 343.285,314.044 340.952,314.71 338.5,315C 339.126,315.75 339.626,316.584 340,317.5C 341.861,316.236 343.861,315.236 346,314.5C 347.563,315.102 347.396,315.935 345.5,317C 348.466,318.047 351.466,318.881 354.5,319.5C 354.044,322.286 352.377,323.619 349.5,323.5C 343.138,320.895 336.805,320.895 330.5,323.5C 324.933,326.563 320.099,330.563 316,335.5C 315.333,338.167 315.333,340.833 316,343.5C 323.528,350.253 330.361,357.586 336.5,365.5C 335.751,366.531 335.085,367.698 334.5,369C 334.833,369.333 335.167,369.667 335.5,370C 332.527,371.224 331.86,373.224 333.5,376C 332.256,376.456 331.423,375.956 331,374.5C 330.504,376.035 330.67,377.535 331.5,379C 330.445,381.055 329.112,381.555 327.5,380.5C 329.248,378.84 329.748,376.84 329,374.5C 323.373,368.733 318.873,362.233 315.5,355C 316.549,346.716 312.883,343.049 304.5,344C 298.262,347.618 291.928,350.951 285.5,354C 283.131,356.938 282.964,360.104 285,363.5C 289.179,371.194 293.346,378.86 297.5,386.5C 295.012,385.26 293.179,383.26 292,380.5C 290.815,382.844 288.982,383.677 286.5,383C 287.051,381.602 287.384,380.268 287.5,379C 286.956,378.283 286.289,377.783 285.5,377.5C 284.22,371.997 282.554,366.497 280.5,361C 277.793,359.943 274.96,359.443 272,359.5C 267.629,359.482 263.462,360.149 259.5,361.5C 258.021,365.277 257.188,369.277 257,373.5C 254.509,370.01 251.675,366.843 248.5,364C 246.167,363.333 243.833,363.333 241.5,364C 237.645,364.764 234.145,366.264 231,368.5C 231.146,373.123 231.48,377.79 232,382.5C 233.333,389.167 234.667,395.833 236,402.5C 236.662,403.984 237.496,405.317 238.5,406.5C 234.04,405.224 232.373,402.391 233.5,398C 232.109,395.471 230.442,393.137 228.5,391C 228.957,390.586 229.291,390.086 229.5,389.5C 228.149,387.981 226.649,386.648 225,385.5C 224.617,386.056 224.117,386.389 223.5,386.5C 223.328,385.508 223.662,384.842 224.5,384.5C 226.386,379.012 226.386,373.678 224.5,368.5C 224.047,367.542 223.381,366.708 222.5,366C 218.29,365.262 214.124,365.428 210,366.5C 203.291,362.026 195.791,360.359 187.5,361.5C 185.984,367.639 185.15,373.972 185,380.5C 181.753,386.351 180.753,392.684 182,399.5C 183.376,400.705 184.542,402.038 185.5,403.5C 185.565,403.938 185.399,404.272 185,404.5C 182.833,402.333 180.667,400.167 178.5,398C 178.833,397.667 179.167,397.333 179.5,397C 178.897,395.175 178.23,393.341 177.5,391.5C 176.548,393.045 176.215,394.712 176.5,396.5C 175.448,396.649 174.448,396.483 173.5,396C 173.167,395 172.833,394 172.5,393C 171.552,392.517 170.552,392.351 169.5,392.5C 173.673,384.815 177.34,376.815 180.5,368.5C 181.872,367.112 182.872,365.445 183.5,363.5C 183.253,362.287 182.586,361.62 181.5,361.5C 179.157,354.824 174.823,352.824 168.5,355.5C 167.547,353.092 166.213,350.925 164.5,349C 160.888,347.861 157.554,346.194 154.5,344C 150.316,342.835 147.483,344.335 146,348.5C 142.553,357.396 138.553,366.063 134,374.5C 133.252,376.84 133.752,378.84 135.5,380.5C 134.883,380.611 134.383,380.944 134,381.5C 133.167,380 132,378.833 130.5,378C 131.76,376.186 131.76,374.353 130.5,372.5C 129.914,372.709 129.414,373.043 129,373.5C 127.287,372.024 125.453,370.69 123.5,369.5C 125.375,368.591 126.708,367.257 127.5,365.5C 130.553,364.223 133.386,362.556 136,360.5C 142.173,351.113 143.173,341.113 139,330.5C 132.838,323.893 125.338,321.06 116.5,322C 112.907,323.781 109.24,325.281 105.5,326.5C 100.846,319.871 96.1792,313.204 91.5,306.5C 93.4918,306.672 95.1585,306.005 96.5,304.5C 97.8309,305.592 98.6643,306.926 99,308.5C 99.8928,307.289 100.726,307.289 101.5,308.5C 100.167,309.5 100.167,310.5 101.5,311.5C 103.5,311.833 105.5,312.167 107.5,312.5C 112.103,310.541 116.77,309.875 121.5,310.5C 121.238,309.022 121.571,307.689 122.5,306.5C 127.546,310.408 126.546,312.574 119.5,313C 122.753,314.656 126.087,314.823 129.5,313.5C 128.833,312.833 128.167,312.167 127.5,311.5C 127.833,311.167 128.167,310.833 128.5,310.5C 129.736,311.246 131.07,311.579 132.5,311.5C 132.216,309.585 132.549,307.919 133.5,306.5C 136.166,311.681 139.833,316.181 144.5,320C 157.739,329.071 172.405,332.405 188.5,330C 200.798,344.481 216.465,351.314 235.5,350.5C 237.952,349.935 240.285,349.268 242.5,348.5C 247.701,346.902 252.701,344.735 257.5,342C 260.751,338.078 264.584,334.912 269,332.5C 269.746,328.526 271.913,327.526 275.5,329.5C 282.841,329.666 290.174,329.5 297.5,329C 310.637,326.355 319.637,318.855 324.5,306.5C 326.451,304.52 327.951,302.187 329,299.5C 330.994,290.71 331.994,281.71 332,272.5C 341.785,265.27 348.618,255.937 352.5,244.5 Z"/></g>
<g><path style="opacity:1" fill="#14120d" d="M 279.5,318.5 C 281.554,321.008 282.554,324.008 282.5,327.5C 281.833,327.5 281.167,327.5 280.5,327.5C 278.143,327.663 275.81,327.497 273.5,327C 274.975,323.709 276.975,320.875 279.5,318.5 Z"/></g>
<g><path style="opacity:1" fill="#0e0d0c" d="M 178.5,319.5 C 179.552,319.351 180.552,319.517 181.5,320C 187.411,326.637 185.744,329.137 176.5,327.5C 176.963,324.779 177.629,322.112 178.5,319.5 Z"/></g>
<g><path style="opacity:1" fill="#0c0b0a" d="M 241.5,323.5 C 243.582,323.472 245.416,324.139 247,325.5C 247.088,330.656 247.921,335.656 249.5,340.5C 248.421,342.58 246.755,343.913 244.5,344.5C 242.13,337.86 241.13,330.86 241.5,323.5 Z"/></g>
<g><path style="opacity:1" fill="#0c0a08" d="M 219.5,322.5 C 220.5,322.5 221.5,322.5 222.5,322.5C 224.578,329.898 225.078,337.565 224,345.5C 223.283,346.044 222.783,346.711 222.5,347.5C 218.006,346.841 216.339,344.175 217.5,339.5C 219.45,334.265 220.117,328.598 219.5,322.5 Z"/></g>
<g><path style="opacity:1" fill="#100e0b" d="M 283.5,313.5 C 283.833,313.5 284.167,313.5 284.5,313.5C 287.406,317.638 290.073,321.971 292.5,326.5C 289.431,328.03 287.098,327.363 285.5,324.5C 283.404,321.892 282.07,318.892 281.5,315.5C 281.747,314.287 282.414,313.62 283.5,313.5 Z"/></g>
<g><path style="opacity:1" fill="#9d998e" d="M 283.5,313.5 C 282.414,313.62 281.747,314.287 281.5,315.5C 282.07,318.892 283.404,321.892 285.5,324.5C 284.272,325.306 283.272,326.306 282.5,327.5C 282.554,324.008 281.554,321.008 279.5,318.5C 280.15,316.565 280.483,314.565 280.5,312.5C 281.791,312.263 282.791,312.596 283.5,313.5 Z"/></g>
<g><path style="opacity:1" fill="#161411" d="M 174.5,312.5 C 176.89,312.685 177.89,314.018 177.5,316.5C 177.052,320.345 175.719,323.845 173.5,327C 171.527,327.495 169.527,327.662 167.5,327.5C 167.838,325.146 168.338,322.813 169,320.5C 171.47,318.224 173.303,315.557 174.5,312.5 Z"/></g>
<g><path style="opacity:1" fill="#0f0f0c" d="M 287.5,307.5 C 288.675,307.281 289.675,307.614 290.5,308.5C 293.833,313.833 297.167,319.167 300.5,324.5C 298.926,325.631 297.259,325.798 295.5,325C 292.601,320.678 289.601,316.511 286.5,312.5C 283.554,310.078 283.887,308.411 287.5,307.5 Z"/></g>
<g><path style="opacity:1" fill="#151310" d="M 170.5,306.5 C 173.777,308.177 174.277,310.51 172,313.5C 169.363,317.281 166.863,321.115 164.5,325C 162.527,325.495 160.527,325.662 158.5,325.5C 160.513,320.318 163.013,315.318 166,310.5C 167.992,309.672 169.492,308.339 170.5,306.5 Z"/></g>
<g><path style="opacity:1" fill="#171615" d="M 249.5,325.5 C 251.722,325.178 253.556,325.845 255,327.5C 255.667,331.5 255.667,335.5 255,339.5C 253.989,340.337 252.822,340.67 251.5,340.5C 250.098,335.616 249.431,330.616 249.5,325.5 Z"/></g>
<g><path style="opacity:1" fill="#706d6a" d="M 206.5,325.5 C 206.262,327.404 205.262,328.738 203.5,329.5C 203.167,329.5 202.833,329.5 202.5,329.5C 200.721,327.656 198.388,326.99 195.5,327.5C 198.23,326.183 201.063,326.183 204,327.5C 204.708,326.619 205.542,325.953 206.5,325.5 Z"/></g>
<g><path style="opacity:1" fill="#131210" d="M 195.5,327.5 C 198.388,326.99 200.721,327.656 202.5,329.5C 201.935,331.386 200.935,333.053 199.5,334.5C 197.343,332.588 195.009,330.921 192.5,329.5C 193.005,328.081 194.005,327.415 195.5,327.5 Z"/></g>
<g><path style="opacity:1" fill="#a59f95" d="M 213.5,321.5 C 213.833,321.5 214.167,321.5 214.5,321.5C 215.919,322.451 217.585,322.784 219.5,322.5C 220.117,328.598 219.45,334.265 217.5,339.5C 217.5,334.167 217.5,328.833 217.5,323.5C 216.167,323.5 214.833,323.5 213.5,323.5C 213.5,322.833 213.5,322.167 213.5,321.5 Z"/></g>
<g><path style="opacity:1" fill="#0e0c0a" d="M 331.5,325.5 C 344.988,322.895 352.988,328.229 355.5,341.5C 353.557,344.88 352.057,348.547 351,352.5C 346.965,356.2 343.298,360.2 340,364.5C 337.815,363.072 335.815,361.405 334,359.5C 328.657,352.661 323.157,345.995 317.5,339.5C 321.186,333.814 325.853,329.147 331.5,325.5 Z"/></g>
<g><path style="opacity:1" fill="#0e0d0c" d="M 227.5,321.5 C 228.822,321.33 229.989,321.663 231,322.5C 231.333,324.5 231.667,326.5 232,328.5C 232.383,329.056 232.883,329.389 233.5,329.5C 233.5,335.5 233.5,341.5 233.5,347.5C 231.5,347.5 229.5,347.5 227.5,347.5C 227.5,338.833 227.5,330.167 227.5,321.5 Z"/></g>
<g><path style="opacity:1" fill="#161412" d="M 257.5,327.5 C 259.833,327.5 262.167,327.5 264.5,327.5C 264.253,332.076 261.919,334.743 257.5,335.5C 257.5,332.833 257.5,330.167 257.5,327.5 Z"/></g>
<g><path style="opacity:1" fill="#9f9c9b" d="M 227.5,321.5 C 227.5,330.167 227.5,338.833 227.5,347.5C 226.778,347.082 226.278,346.416 226,345.5C 225.184,346.823 224.017,347.489 222.5,347.5C 222.783,346.711 223.283,346.044 224,345.5C 225.078,337.565 224.578,329.898 222.5,322.5C 223.822,322.33 224.989,322.663 226,323.5C 226.278,322.584 226.778,321.918 227.5,321.5 Z"/></g>
<g><path style="opacity:1" fill="#0e0d0c" d="M 235.5,323.5 C 236.833,323.5 238.167,323.5 239.5,323.5C 239.5,324.833 239.5,326.167 239.5,327.5C 239.701,333.509 240.034,339.509 240.5,345.5C 239.167,345.833 237.833,346.167 236.5,346.5C 235.508,339.018 235.175,331.352 235.5,323.5 Z"/></g>
<g><path style="opacity:1" fill="#131210" d="M 213.5,323.5 C 214.833,323.5 216.167,323.5 217.5,323.5C 217.5,328.833 217.5,334.167 217.5,339.5C 215.896,340.287 215.229,341.62 215.5,343.5C 213.708,343.634 212.042,343.301 210.5,342.5C 211.114,338.865 211.448,335.198 211.5,331.5C 213.046,329.118 213.713,326.451 213.5,323.5 Z"/></g>
<g><path style="opacity:1" fill="#b4b2aa" d="M 235.5,323.5 C 235.175,331.352 235.508,339.018 236.5,346.5C 237.918,348.308 239.918,348.975 242.5,348.5C 240.285,349.268 237.952,349.935 235.5,350.5C 235.573,348.973 234.906,347.973 233.5,347.5C 233.5,341.5 233.5,335.5 233.5,329.5C 234.167,327.5 234.833,325.5 235.5,323.5 Z"/></g>
<g><path style="opacity:1" fill="#0f0c0a" d="M 206.5,325.5 C 207.978,325.238 209.311,325.571 210.5,326.5C 209.754,327.736 209.421,329.07 209.5,330.5C 208.518,333.962 208.185,337.629 208.5,341.5C 207.193,340.847 205.86,340.18 204.5,339.5C 203.513,336.232 203.18,332.898 203.5,329.5C 205.262,328.738 206.262,327.404 206.5,325.5 Z"/></g>
<g><path style="opacity:1" fill="#bcb6b2" d="M 241.5,323.5 C 241.13,330.86 242.13,337.86 244.5,344.5C 243.432,345.434 242.099,345.768 240.5,345.5C 240.034,339.509 239.701,333.509 239.5,327.5C 240.167,326.167 240.833,324.833 241.5,323.5 Z"/></g>
<g><path style="opacity:1" fill="#a39c95" d="M 209.5,330.5 C 209.842,331.338 210.508,331.672 211.5,331.5C 211.448,335.198 211.114,338.865 210.5,342.5C 209.833,342.167 209.167,341.833 208.5,341.5C 208.185,337.629 208.518,333.962 209.5,330.5 Z"/></g>
<g><path style="opacity:1" fill="#ece8e1" d="M 331.5,333.5 C 341.287,332.458 346.12,336.791 346,346.5C 345.484,349.034 344.317,351.2 342.5,353C 341.365,353.749 340.365,353.583 339.5,352.5C 336.195,347.696 332.362,343.362 328,339.5C 327.333,338.833 327.333,338.167 328,337.5C 329.376,336.295 330.542,334.962 331.5,333.5 Z"/></g>
<g><path style="opacity:1" fill="#1f1d1a" d="M 335.5,336.5 C 340.975,336.976 343.642,339.976 343.5,345.5C 341.738,345.643 340.071,345.309 338.5,344.5C 337.428,341.796 336.428,339.13 335.5,336.5 Z"/></g>
<g><path style="opacity:1" fill="#e8e1d8" d="M 127.5,365.5 C 122.156,365.666 116.823,365.499 111.5,365C 110.183,363.341 108.517,362.174 106.5,361.5C 105.502,358.836 104.002,356.503 102,354.5C 100.428,347.188 100.095,339.855 101,332.5C 99.668,330.34 98.168,328.34 96.5,326.5C 97.8333,326.5 99.1667,326.5 100.5,326.5C 100.343,327.873 100.51,329.207 101,330.5C 101.333,329.833 101.667,329.167 102,328.5C 102.645,329.646 103.478,330.646 104.5,331.5C 102.447,333.729 102.114,336.062 103.5,338.5C 103.432,352.481 110.432,359.314 124.5,359C 134.844,355.999 139.677,349.166 139,338.5C 136.546,328.88 130.38,324.546 120.5,325.5C 115.648,324.69 111.648,326.024 108.5,329.5C 107.694,328.272 106.694,327.272 105.5,326.5C 109.24,325.281 112.907,323.781 116.5,322C 125.338,321.06 132.838,323.893 139,330.5C 143.173,341.113 142.173,351.113 136,360.5C 133.386,362.556 130.553,364.223 127.5,365.5 Z"/></g>
<g><path style="opacity:1" fill="#0e0a07" d="M 103.5,338.5 C 105.42,335.661 107.087,332.661 108.5,329.5C 111.648,326.024 115.648,324.69 120.5,325.5C 130.38,324.546 136.546,328.88 139,338.5C 139.677,349.166 134.844,355.999 124.5,359C 110.432,359.314 103.432,352.481 103.5,338.5 Z"/></g>
<g><path style="opacity:1" fill="#f1e9db" d="M 117.5,333.5 C 132.351,334.036 134.351,339.536 123.5,350C 115.193,352.663 111.36,349.83 112,341.5C 113.273,338.403 115.107,335.736 117.5,333.5 Z"/></g>
<g><path style="opacity:1" fill="#1c1813" d="M 119.5,339.5 C 125.735,339.223 127.068,341.723 123.5,347C 120.571,347.777 117.737,347.61 115,346.5C 114.333,345.5 114.333,344.5 115,343.5C 116.992,342.672 118.492,341.339 119.5,339.5 Z"/></g>
<g><path style="opacity:1" fill="#dedbd8" d="M 330.5,323.5 C 330.328,324.492 330.662,325.158 331.5,325.5C 325.853,329.147 321.186,333.814 317.5,339.5C 323.157,345.995 328.657,352.661 334,359.5C 335.815,361.405 337.815,363.072 340,364.5C 343.298,360.2 346.965,356.2 351,352.5C 352.057,348.547 353.557,344.88 355.5,341.5C 356.864,343.22 357.864,345.22 358.5,347.5C 358.957,348.298 359.624,348.631 360.5,348.5C 356.149,356.35 349.983,362.35 342,366.5C 340.234,365.767 338.401,365.433 336.5,365.5C 330.361,357.586 323.528,350.253 316,343.5C 315.333,340.833 315.333,338.167 316,335.5C 320.099,330.563 324.933,326.563 330.5,323.5 Z"/></g>
<g><path style="opacity:1" fill="#9c9792" d="M 181.5,361.5 C 182.586,361.62 183.253,362.287 183.5,363.5C 182.872,365.445 181.872,367.112 180.5,368.5C 180.448,366.097 180.781,363.764 181.5,361.5 Z"/></g>
<g><path style="opacity:1" fill="#e5e2dd" d="M 181.5,361.5 C 180.781,363.764 180.448,366.097 180.5,368.5C 177.34,376.815 173.673,384.815 169.5,392.5C 168.026,394.137 166.192,395.137 164,395.5C 158.659,394.797 154.159,392.464 150.5,388.5C 149.571,387.311 149.238,385.978 149.5,384.5C 143.961,386.056 139.295,384.723 135.5,380.5C 133.752,378.84 133.252,376.84 134,374.5C 138.553,366.063 142.553,357.396 146,348.5C 147.483,344.335 150.316,342.835 154.5,344C 157.554,346.194 160.888,347.861 164.5,349C 166.213,350.925 167.547,353.092 168.5,355.5C 174.823,352.824 179.157,354.824 181.5,361.5 Z"/></g>
<g><path style="opacity:1" fill="#0e0b0a" d="M 150.5,345.5 C 153.839,347.64 157.506,349.14 161.5,350C 162.126,350.75 162.626,351.584 163,352.5C 161.963,360.009 161.629,367.676 162,375.5C 164.785,369.427 167.952,363.594 171.5,358C 174.466,357.105 177.133,357.605 179.5,359.5C 174.193,368.913 169.36,378.579 165,388.5C 164.439,389.022 163.772,389.355 163,389.5C 159.738,387.907 156.738,385.907 154,383.5C 153.649,375.151 153.649,366.817 154,358.5C 150.833,364.833 147.667,371.167 144.5,377.5C 143.277,378.614 141.944,378.781 140.5,378C 138.427,377.882 137.093,376.882 136.5,375C 141.317,365.201 145.984,355.368 150.5,345.5 Z"/></g>
<g><path style="opacity:1" fill="#484846" d="M 224.5,368.5 C 226.386,373.678 226.386,379.012 224.5,384.5C 224.5,379.167 224.5,373.833 224.5,368.5 Z"/></g>
<g><path style="opacity:1" fill="#e5e0db" d="M 327.5,380.5 C 320.995,384.139 314.328,387.639 307.5,391C 305.5,391.667 303.5,391.667 301.5,391C 300.267,389.333 298.933,387.833 297.5,386.5C 293.346,378.86 289.179,371.194 285,363.5C 282.964,360.104 283.131,356.938 285.5,354C 291.928,350.951 298.262,347.618 304.5,344C 312.883,343.049 316.549,346.716 315.5,355C 318.873,362.233 323.373,368.733 329,374.5C 329.748,376.84 329.248,378.84 327.5,380.5 Z"/></g>
<g><path style="opacity:1" fill="#0f0c0a" d="M 303.5,347.5 C 305.167,347.5 306.833,347.5 308.5,347.5C 308.66,349.199 308.494,350.866 308,352.5C 303.307,354.521 299.14,357.354 295.5,361C 296.685,362.353 298.019,363.52 299.5,364.5C 302.752,363.566 305.919,362.566 309,361.5C 310.728,361.454 312.228,361.954 313.5,363C 309.693,366.088 306.027,369.422 302.5,373C 304.942,378.482 307.942,378.815 311.5,374C 314.962,371.307 318.629,370.973 322.5,373C 323.705,375.234 323.039,376.901 320.5,378C 314.281,381.043 307.948,383.876 301.5,386.5C 299.207,384.608 297.374,382.275 296,379.5C 292.995,372.998 290.162,366.498 287.5,360C 287.833,358.833 288.167,357.667 288.5,356.5C 293.398,353.223 298.398,350.223 303.5,347.5 Z"/></g>
<g><path style="opacity:1" fill="#e2dfdb" d="M 224.5,368.5 C 224.5,373.833 224.5,379.167 224.5,384.5C 223.662,384.842 223.328,385.508 223.5,386.5C 224.642,394.095 222.975,400.928 218.5,407C 215.5,407.667 212.5,407.667 209.5,407C 207.715,405.837 205.715,405.17 203.5,405C 201.784,401.622 199.451,400.956 196.5,403C 192.848,403.499 189.182,403.665 185.5,403.5C 184.542,402.038 183.376,400.705 182,399.5C 180.753,392.684 181.753,386.351 185,380.5C 185.15,373.972 185.984,367.639 187.5,361.5C 195.791,360.359 203.291,362.026 210,366.5C 214.124,365.428 218.29,365.262 222.5,366C 223.381,366.708 224.047,367.542 224.5,368.5 Z"/></g>
<g><path style="opacity:1" fill="#0f0e0d" d="M 191.5,362.5 C 195.709,364.48 200.042,366.147 204.5,367.5C 206.654,374.315 207.988,381.315 208.5,388.5C 209.086,388.291 209.586,387.957 210,387.5C 210.065,380.458 211.231,373.792 213.5,367.5C 217.07,366.893 219.737,368.06 221.5,371C 221.37,372.059 220.87,372.892 220,373.5C 219.708,382.018 218.708,390.351 217,398.5C 212.608,402.384 208.108,402.384 203.5,398.5C 202.19,389.976 200.356,381.642 198,373.5C 195.21,380.942 193.543,388.609 193,396.5C 191.542,397.747 190.042,397.747 188.5,396.5C 187.325,387.839 187.325,379.172 188.5,370.5C 188.635,367.443 189.635,364.777 191.5,362.5 Z"/></g>
<g><path style="opacity:1" fill="#e3e0dc" d="M 285.5,377.5 C 285.335,382.862 286.002,388.029 287.5,393C 287.861,398.777 285.028,401.61 279,401.5C 275.967,401.481 273.633,400.148 272,397.5C 272.054,400.191 270.887,402.024 268.5,403C 263.676,404.585 259.009,404.419 254.5,402.5C 252.408,403.743 250.408,405.243 248.5,407C 245.112,407.659 241.779,407.492 238.5,406.5C 237.496,405.317 236.662,403.984 236,402.5C 234.667,395.833 233.333,389.167 232,382.5C 231.48,377.79 231.146,373.123 231,368.5C 234.145,366.264 237.645,364.764 241.5,364C 243.833,363.333 246.167,363.333 248.5,364C 251.675,366.843 254.509,370.01 257,373.5C 257.188,369.277 258.021,365.277 259.5,361.5C 263.462,360.149 267.629,359.482 272,359.5C 274.96,359.443 277.793,359.943 280.5,361C 282.554,366.497 284.22,371.997 285.5,377.5 Z"/></g>
<g><path style="opacity:1" fill="#100f0e" d="M 271.5,361.5 C 273.144,361.286 274.644,361.62 276,362.5C 278.455,373.139 280.289,383.806 281.5,394.5C 278.873,395.092 276.206,395.425 273.5,395.5C 273.665,392.482 273.498,389.482 273,386.5C 271.242,381.878 269.576,377.211 268,372.5C 267.992,380.719 266.992,388.719 265,396.5C 262.441,399.349 259.274,400.183 255.5,399C 251.479,391.941 247.646,384.775 244,377.5C 244.68,384.457 245.513,391.457 246.5,398.5C 243.96,401.849 241.127,402.182 238,399.5C 235.958,390.295 234.124,381.128 232.5,372C 232.759,370.739 233.426,369.739 234.5,369C 238.895,366.46 243.561,365.96 248.5,367.5C 251.026,374.885 254.359,381.885 258.5,388.5C 259.555,380.841 260.555,373.174 261.5,365.5C 262.287,364.758 262.953,363.925 263.5,363C 266.365,362.817 269.031,362.317 271.5,361.5 Z"/></g>
</svg>
