<?xml version="1.0" encoding="UTF-8"?>
<!DOCTYPE svg PUBLIC "-//W3C//DTD SVG 1.1//EN" "http://www.w3.org/Graphics/SVG/1.1/DTD/svg11.dtd">
<svg xmlns="http://www.w3.org/2000/svg" version="1.1" width="280px" height="62px" style="shape-rendering:geometricPrecision; text-rendering:geometricPrecision; image-rendering:optimizeQuality; fill-rule:evenodd; clip-rule:evenodd" xmlns:xlink="http://www.w3.org/1999/xlink">
<g><path style="opacity:0.639" fill="#000000" d="M 57.5,5.5 C 61.1468,6.27169 62.3135,8.27169 61,11.5C 64.974,12.8073 67.6406,15.4739 69,19.5C 71.0429,17.5229 73.5429,16.5229 76.5,16.5C 76.477,18.9267 75.977,21.26 75,23.5C 74.6667,23.1667 74.3333,22.8333 74,22.5C 71.5607,24.854 71.0607,27.6873 72.5,31C 72.3437,35.1359 71.177,38.9692 69,42.5C 66.3568,43.9763 64.1901,45.9763 62.5,48.5C 51.8621,53.8038 42.3621,52.1371 34,43.5C 31.6013,43.9724 29.6013,42.9724 28,40.5C 26.5864,28.1487 31.0864,18.3154 41.5,11C 45.4681,10.0582 49.4681,9.2249 53.5,8.5C 54.6243,7.14077 55.9577,6.14077 57.5,5.5 Z M 52.5,12.5 C 55.5954,13.1187 55.9288,14.1187 53.5,15.5C 51.4807,14.8671 51.1474,13.8671 52.5,12.5 Z M 45.5,13.5 C 46.8799,13.9623 47.5466,14.9623 47.5,16.5C 46.7639,21.8035 46.2639,27.1368 46,32.5C 45.7435,29.443 45.2435,26.443 44.5,23.5C 42.604,22.5344 40.604,22.2011 38.5,22.5C 38.6653,26.1817 38.4986,29.8484 38,33.5C 35.6322,32.6314 34.1322,30.9647 33.5,28.5C 34.9146,21.2924 38.9146,16.2924 45.5,13.5 Z M 59.5,15.5 C 61.8306,17.5012 63.8306,19.8345 65.5,22.5C 64.5529,24.4002 63.0529,25.7335 61,26.5C 59.7868,22.855 59.2868,19.1883 59.5,15.5 Z M 51.5,17.5 C 53.0281,17.5173 53.5281,18.184 53,19.5C 52.2828,18.9558 51.7828,18.2891 51.5,17.5 Z M 66.5,30.5 C 67.2702,39.7425 62.9369,44.2425 53.5,44C 58.0367,39.6312 62.3701,35.1312 66.5,30.5 Z M 51.5,43.5 C 52.2674,44.172 52.9341,45.0053 53.5,46C 51.9387,46.1881 51.272,45.3547 51.5,43.5 Z"/></g>
<g><path style="opacity:0.575" fill="#000000" d="M 88.5,18.5 C 99.4022,17.3961 103.402,22.0628 100.5,32.5C 99.5197,33.9814 98.353,35.3147 97,36.5C 94.3012,36.3362 91.4679,36.1695 88.5,36C 83.8451,33.1034 82.3451,28.9367 84,23.5C 85.6336,21.9379 87.1336,20.2713 88.5,18.5 Z M 92.5,22.5 C 95.5531,23.2795 97.2197,25.2795 97.5,28.5C 93.9351,32.6381 90.9351,32.3047 88.5,27.5C 88.8519,24.9542 90.1853,23.2875 92.5,22.5 Z"/></g>
<g><path style="opacity:0.549" fill="#000000" d="M 104.5,18.5 C 108.059,18.2845 111.559,18.6178 115,19.5C 118.58,22.2435 119.247,25.5768 117,29.5C 114.573,31.7457 111.906,32.4124 109,31.5C 107.476,38.9181 105.31,39.2515 102.5,32.5C 103.696,28.3393 103.696,24.506 102.5,21C 103.381,20.2917 104.047,19.4584 104.5,18.5 Z M 110.5,23.5 C 112.337,23.6395 112.67,24.3061 111.5,25.5C 110.702,25.0431 110.369,24.3764 110.5,23.5 Z"/></g>
<g><path style="opacity:0.566" fill="#000000" d="M 153.5,23.5 C 153.479,35.909 147.813,39.409 136.5,34C 134.491,31.0053 133.991,27.8387 135,24.5C 133.954,30.5921 130.621,32.9254 125,31.5C 123.207,39.3209 121.04,39.4875 118.5,32C 119.108,27.6185 119.775,23.2852 120.5,19C 126.512,17.2255 131.345,18.7255 135,23.5C 141.165,16.8805 147.331,16.8805 153.5,23.5 Z M 124.5,23.5 C 129.154,23.3954 129.654,24.7287 126,27.5C 124.812,26.4366 124.312,25.1033 124.5,23.5 Z M 140.5,23.5 C 145.993,22.178 148.493,24.178 148,29.5C 141.271,32.9423 138.771,30.9423 140.5,23.5 Z"/></g>
<g><path style="opacity:0.579" fill="#000000" d="M 153.5,23.5 C 153.751,21.8297 154.418,20.3297 155.5,19C 159.866,18.1145 164.033,18.6145 168,20.5C 168.75,19.8742 169.584,19.3742 170.5,19C 176.104,18.7706 181.604,18.6039 187,18.5C 188.244,21.6382 188.911,24.9716 189,28.5C 190.892,32.1809 193.058,32.3476 195.5,29C 194.99,27.3722 194.99,25.5389 195.5,23.5C 195.598,21.3807 196.431,19.714 198,18.5C 200.289,24.5348 199.789,30.3681 196.5,36C 193.664,36.2523 190.83,36.419 188,36.5C 184.375,32.9632 182.708,28.6299 183,23.5C 180.915,22.3531 179.415,23.0197 178.5,25.5C 178.82,28.7145 178.82,32.0479 178.5,35.5C 177.167,35.5 175.833,35.5 174.5,35.5C 174.167,31.5 173.833,27.5 173.5,23.5C 172.178,23.67 171.011,23.3366 170,22.5C 169.79,25.2342 168.956,27.7342 167.5,30C 170.432,33.2092 169.932,35.3759 166,36.5C 164.337,34.6716 162.504,33.0049 160.5,31.5C 159.756,32.9905 159.09,34.4905 158.5,36C 157.216,36.6838 156.049,36.5171 155,35.5C 155.448,32.5771 155.614,29.7438 155.5,27C 154.915,25.6976 154.249,24.531 153.5,23.5 Z M 162.5,24.5 C 162.304,26.6456 161.304,26.8122 159.5,25C 160.352,23.2716 161.352,23.105 162.5,24.5 Z"/></g>
<g><path style="opacity:0.557" fill="#000000" d="M 213.5,18.5 C 216.253,18.9543 217.92,20.621 218.5,23.5C 221.499,17.2874 224.166,17.2874 226.5,23.5C 227.711,22.7261 227.711,21.8928 226.5,21C 227.167,20.3333 227.833,19.6667 228.5,19C 233.5,18.3333 238.5,18.3333 243.5,19C 245.639,24.4172 248.306,24.7505 251.5,20C 252.944,19.2195 254.277,19.3861 255.5,20.5C 253.667,23.5 251.833,26.5 250,29.5C 249.814,31.9005 249.314,34.2338 248.5,36.5C 247.833,36.1667 247.167,35.8333 246.5,35.5C 246.036,29.7296 243.369,25.3963 238.5,22.5C 236.893,22.637 235.559,23.3036 234.5,24.5C 236.917,24.0166 238.584,25.1833 239.5,28C 237.775,30.4732 235.608,30.9732 233,29.5C 231.461,30.5458 231.295,31.8791 232.5,33.5C 231.166,37.9908 228.999,37.9908 226,33.5C 225.309,36.266 223.809,36.9327 221.5,35.5C 220.016,32.3831 219.016,29.0498 218.5,25.5C 217.243,28.8435 217.243,32.1769 218.5,35.5C 218.192,36.3081 217.692,36.9747 217,37.5C 215.559,36.7402 214.059,36.0736 212.5,35.5C 211.565,32.8975 209.898,30.8975 207.5,29.5C 207.024,32.1841 206.024,34.5175 204.5,36.5C 203.833,36.1667 203.167,35.8333 202.5,35.5C 201.505,30.2079 201.172,24.8746 201.5,19.5C 203.591,19.3184 205.591,19.6518 207.5,20.5C 211.634,28.7156 213.634,28.0489 213.5,18.5 Z M 225.5,25.5 C 227.476,26.4271 227.809,27.7605 226.5,29.5C 225.571,28.3112 225.238,26.9778 225.5,25.5 Z"/></g>
</svg>
