<?xml version="1.0" encoding="UTF-8"?>
<!DOCTYPE svg PUBLIC "-//W3C//DTD SVG 1.1//EN" "http://www.w3.org/Graphics/SVG/1.1/DTD/svg11.dtd">
<svg xmlns="http://www.w3.org/2000/svg" version="1.1" width="255px" height="54px" style="shape-rendering:geometricPrecision; text-rendering:geometricPrecision; image-rendering:optimizeQuality; fill-rule:evenodd; clip-rule:evenodd" xmlns:xlink="http://www.w3.org/1999/xlink">
<g><path style="opacity:0.884" fill="#000000" d="M 12.5,-0.5 C 17.1667,-0.5 21.8333,-0.5 26.5,-0.5C 37.3144,4.79887 41.481,13.4655 39,25.5C 37.6981,29.2743 35.5314,32.441 32.5,35C 27.0934,37.6202 21.4267,39.6202 15.5,41C 10.6389,45.0321 5.97227,49.1988 1.5,53.5C 0.833333,53.5 0.166667,53.5 -0.5,53.5C -0.5,39.8333 -0.5,26.1667 -0.5,12.5C 2.16667,6.5 6.5,2.16667 12.5,-0.5 Z M 17.5,7.5 C 27.6638,8.16432 31.8304,13.4976 30,23.5C 26.4025,29.0478 21.2359,31.5478 14.5,31C 12.3333,33.1667 10.1667,35.3333 8,37.5C 7.1439,29.7682 7.47723,22.1016 9,14.5C 10.8507,10.8432 13.6841,8.50991 17.5,7.5 Z"/></g>
<g><path style="opacity:0.848" fill="#000000" d="M 69.5,2.5 C 72.1667,2.5 74.8333,2.5 77.5,2.5C 77.5,6.16667 77.5,9.83333 77.5,13.5C 80.5184,13.3354 83.5184,13.502 86.5,14C 87.9953,17.8165 89.4953,21.6498 91,25.5C 93.0226,21.7701 94.8559,17.9367 96.5,14C 99.146,13.5026 101.813,13.3359 104.5,13.5C 100.739,24.3616 96.4056,35.0283 91.5,45.5C 88.5541,46.6548 85.5541,46.8214 82.5,46C 83.8953,42.5428 85.5619,39.2095 87.5,36C 83.9298,29.0249 80.7631,21.8583 78,14.5C 77.5003,22.4931 77.3336,30.4931 77.5,38.5C 74.8333,38.5 72.1667,38.5 69.5,38.5C 69.5,26.5 69.5,14.5 69.5,2.5 Z"/></g>
<g><path style="opacity:0.85" fill="#000000" d="M 132.5,2.5 C 135.167,2.5 137.833,2.5 140.5,2.5C 140.5,14.5 140.5,26.5 140.5,38.5C 137.833,38.5 135.167,38.5 132.5,38.5C 132.5,26.5 132.5,14.5 132.5,2.5 Z"/></g>
<g><path style="opacity:0.86" fill="#000000" d="M 172.5,2.5 C 175.167,2.5 177.833,2.5 180.5,2.5C 180.5,6.16667 180.5,9.83333 180.5,13.5C 182.5,13.5 184.5,13.5 186.5,13.5C 186.5,15.8333 186.5,18.1667 186.5,20.5C 184.5,20.5 182.5,20.5 180.5,20.5C 180.335,23.5184 180.502,26.5184 181,29.5C 182.444,31.1554 184.278,31.822 186.5,31.5C 186.5,33.8333 186.5,36.1667 186.5,38.5C 183.482,38.6646 180.482,38.498 177.5,38C 176.069,37.5348 174.903,36.7014 174,35.5C 172.612,30.6278 172.112,25.6278 172.5,20.5C 170.801,20.3398 169.134,20.5065 167.5,21C 169.44,34.7223 163.44,40.3889 149.5,38C 142.111,33.0511 140.278,26.5511 144,18.5C 152.143,10.2538 159.81,10.5872 167,19.5C 167.495,17.5273 167.662,15.5273 167.5,13.5C 169.167,13.5 170.833,13.5 172.5,13.5C 172.5,9.83333 172.5,6.16667 172.5,2.5 Z M 152.5,20.5 C 158.326,20.157 160.826,22.8236 160,28.5C 155.003,32.8906 151.503,31.8906 149.5,25.5C 150.26,23.6396 151.26,21.973 152.5,20.5 Z"/></g>
<g><path style="opacity:0.879" fill="#000000" d="M 188.5,2.5 C 191.898,2.17964 195.232,2.51298 198.5,3.5C 201.577,10.6522 204.91,17.6522 208.5,24.5C 212.09,17.6522 215.423,10.6522 218.5,3.5C 221.428,2.51592 224.428,2.18259 227.5,2.5C 227.5,14.5 227.5,26.5 227.5,38.5C 224.833,38.5 222.167,38.5 219.5,38.5C 219.666,32.4908 219.499,26.4908 219,20.5C 216.5,26.1667 214,31.8333 211.5,37.5C 209.167,38.8333 206.833,38.8333 204.5,37.5C 202,31.8333 199.5,26.1667 197,20.5C 196.501,26.4908 196.334,32.4908 196.5,38.5C 193.833,38.5 191.167,38.5 188.5,38.5C 188.5,26.5 188.5,14.5 188.5,2.5 Z"/></g>
<g><path style="opacity:0.851" fill="#000000" d="M 50.5,12.5 C 62.6517,11.8173 68.1517,17.484 67,29.5C 63.4706,37.8457 57.3039,40.6791 48.5,38C 39.7234,32.006 38.39,24.6727 44.5,16C 46.4319,14.5415 48.4319,13.3748 50.5,12.5 Z M 51.5,20.5 C 58.241,20.3902 60.4077,23.3902 58,29.5C 53.4011,32.4563 50.2345,31.2896 48.5,26C 49.1242,23.9149 50.1242,22.0816 51.5,20.5 Z"/></g>
<g><path style="opacity:0.848" fill="#000000" d="M 111.5,12.5 C 114.883,12.2572 118.049,12.9239 121,14.5C 123.719,13.5562 126.552,13.2229 129.5,13.5C 129.666,22.8393 129.5,32.1726 129,41.5C 126.274,46.2824 122.107,48.6157 116.5,48.5C 111.876,48.5164 107.876,47.0164 104.5,44C 105.622,41.8762 107.122,40.0429 109,38.5C 113.677,42.7084 117.844,42.375 121.5,37.5C 107.294,40.1258 101.461,34.1258 104,19.5C 105.742,16.2543 108.242,13.921 111.5,12.5 Z M 113.5,20.5 C 121.486,19.998 123.486,23.1647 119.5,30C 114.921,31.5772 111.921,30.0772 110.5,25.5C 111.26,23.6396 112.26,21.973 113.5,20.5 Z"/></g>
<g><path style="opacity:0.85" fill="#000000" d="M 254.5,19.5 C 254.5,22.1667 254.5,24.8333 254.5,27.5C 248.794,27.1712 243.128,27.5046 237.5,28.5C 240.811,33.1647 244.478,33.498 248.5,29.5C 250.534,30.5588 252.534,31.5588 254.5,32.5C 254.5,33.1667 254.5,33.8333 254.5,34.5C 249.498,38.256 243.831,39.4227 237.5,38C 229.122,33.0468 227.289,26.2135 232,17.5C 240.254,10.4625 247.754,11.1291 254.5,19.5 Z M 239.5,19.5 C 242.346,19.0301 244.679,19.8634 246.5,22C 243.5,22.6667 240.5,22.6667 237.5,22C 238.381,21.2917 239.047,20.4584 239.5,19.5 Z"/></g>
<g><path style="opacity:0.614" fill="#000000" d="M 11.5,16.5 C 14.7643,16.7264 15.7643,18.2264 14.5,21C 13.2068,21.49 11.8734,21.6567 10.5,21.5C 10.366,19.7085 10.6993,18.0418 11.5,16.5 Z"/></g>
<g><path style="opacity:0.644" fill="#000000" d="M 18.5,16.5 C 21.0838,17.0483 22.0838,18.715 21.5,21.5C 16.5162,21.8558 15.5162,20.1891 18.5,16.5 Z"/></g>
<g><path style="opacity:0.56" fill="#000000" d="M 24.5,16.5 C 27.9103,16.3838 29.2436,18.0504 28.5,21.5C 26.8333,21.5 25.1667,21.5 23.5,21.5C 23.366,19.7085 23.6993,18.0418 24.5,16.5 Z"/></g>
</svg>
