<svg width="563" height="1073" viewBox="0 0 563 1073" fill="none" xmlns="http://www.w3.org/2000/svg">
<mask id="mask0_1045_13" style="mask-type:alpha" maskUnits="userSpaceOnUse" x="0" y="0" width="563" height="1073">
<rect x="562.62" y="1072.08" width="562.309" height="1071.14" transform="rotate(180 562.62 1072.08)" fill="#D9D9D9"/>
</mask>
<g mask="url(#mask0_1045_13)">
<path d="M627.507 1158.11C381.476 1029.01 -144.197 429.078 258.46 174.441C614.857 -50.9407 1005.4 72.7656 1230.72 142.19C1112.42 194.516 841.785 267.771 705.661 142.19C569.538 16.6091 883.505 -267.392 1057.5 -393.695" stroke="#4C39F0"/>
<path d="M703.513 1149.27C457.482 1020.17 -68.1907 420.24 334.466 165.604C690.864 -59.7786 1081.4 63.9277 1306.73 133.352C1188.42 185.678 917.791 258.933 781.667 133.352C645.544 7.77121 959.512 -276.23 1133.51 -402.532" stroke="#4C39F0"/>
<path d="M786.444 1136.18C540.413 1007.07 14.7405 407.145 417.398 152.509C773.795 -72.8733 1164.33 50.833 1389.66 120.258C1271.36 172.583 1000.72 245.839 864.599 120.258C728.475 -5.32352 1042.44 -289.324 1216.44 -415.627" stroke="#4C39F0"/>
<path d="M859.571 1136.18C613.54 1007.07 87.867 407.145 490.524 152.509C846.921 -72.8733 1237.46 50.833 1462.78 120.258C1344.48 172.583 1073.85 245.839 937.725 120.258C801.601 -5.32352 1115.57 -289.324 1289.57 -415.627" stroke="#4C39F0"/>
<path d="M927.595 1136.18C681.564 1007.07 155.892 407.145 558.549 152.509C914.946 -72.8733 1305.48 50.833 1530.81 120.258C1412.51 172.583 1141.87 245.839 1005.75 120.258C869.626 -5.32352 1183.59 -289.324 1357.59 -415.627" stroke="#4C39F0"/>
<path d="M982.02 1136.18C735.989 1007.07 210.316 407.145 612.973 152.509C969.37 -72.8733 1359.91 50.833 1585.23 120.258C1466.93 172.583 1196.3 245.839 1060.17 120.258C924.051 -5.32352 1238.02 -289.324 1412.02 -415.627" stroke="#4C39F0"/>
<path d="M1036.52 1136.18C790.485 1007.07 264.812 407.145 667.469 152.509C1023.87 -72.8733 1414.4 50.833 1639.73 120.258C1521.43 172.583 1250.79 245.839 1114.67 120.258C978.547 -5.32352 1292.51 -289.324 1466.51 -415.627" stroke="#4C39F0"/>
<path d="M557.472 1163.91C311.441 1034.81 -214.232 434.881 188.426 180.244C544.823 -45.138 935.36 78.5684 1160.69 147.993C1042.38 200.318 771.75 273.574 635.626 147.993C499.503 22.4118 813.471 -261.589 987.47 -387.892" stroke="#4C39F0"/>
</g>
</svg>
