<svg width="443" height="844" viewBox="0 0 443 844" fill="none" xmlns="http://www.w3.org/2000/svg">
<mask id="mask0_1089_31" style="mask-type:alpha" maskUnits="userSpaceOnUse" x="0" y="0" width="443" height="844">
<rect width="442.118" height="843.396" transform="matrix(1 0 0 -1 0.620117 843.775)" fill="#D9D9D9"/>
</mask>
<g mask="url(#mask0_1089_31)">
<path d="M-73.4906 879.218C155.457 721.793 632.262 282.095 202.201 77.1071C-178.452 -104.331 -551.524 64.9038 -767.004 160.61C-643.323 198.508 -365.902 239.087 -245.664 98.2216C-125.427 -42.6443 -470.916 -287.327 -658.69 -392.06" stroke="white" stroke-opacity="0.2"/>
<path d="M-132.505 887.201C96.4422 729.776 573.247 290.079 143.186 85.0905C-237.467 -96.3472 -610.538 72.8872 -826.018 168.593C-702.337 206.491 -424.916 247.071 -304.679 106.205C-184.441 -34.6609 -529.93 -279.344 -717.705 -384.077" stroke="white" stroke-opacity="0.2"/>
<path d="M-196.084 891.192C32.8636 733.768 509.668 294.07 79.6074 89.0817C-301.045 -92.356 -674.117 76.8784 -889.597 172.585C-765.916 210.483 -488.495 251.062 -368.258 110.196C-248.02 -30.6697 -593.509 -275.352 -781.283 -380.085" stroke="white" stroke-opacity="0.2"/>
<path d="M-255.296 891.192C-26.3489 733.768 450.456 294.07 20.395 89.0817C-360.258 -92.356 -733.329 76.8784 -948.809 172.585C-825.128 210.483 -547.707 251.062 -427.47 110.196C-307.232 -30.6697 -652.721 -275.352 -840.496 -380.085" stroke="white" stroke-opacity="0.2"/>
<path d="M-310.433 891.192C-81.4856 733.768 395.319 294.07 -34.7418 89.0817C-415.394 -92.356 -788.466 76.8784 -1003.95 172.585C-880.265 210.483 -602.844 251.062 -482.607 110.196C-362.369 -30.6697 -707.858 -275.352 -895.632 -380.085" stroke="white" stroke-opacity="0.2"/>
<path d="M-361.194 891.192C-132.246 733.768 344.558 294.07 -85.5025 89.0817C-466.155 -92.356 -839.227 76.8784 -1054.71 172.585C-931.026 210.483 -653.605 251.062 -533.367 110.196C-413.13 -30.6697 -758.619 -275.352 -946.393 -380.085" stroke="white" stroke-opacity="0.2"/>
<path d="M-409.329 891.192C-180.382 733.768 296.423 294.07 -133.638 89.0817C-514.29 -92.356 -887.362 76.8784 -1102.84 172.585C-979.161 210.483 -701.74 251.062 -581.503 110.196C-461.265 -30.6697 -806.754 -275.352 -994.528 -380.085" stroke="white" stroke-opacity="0.2"/>
</g>
</svg>
