<?xml version="1.0" encoding="UTF-8"?>
<!DOCTYPE svg PUBLIC "-//W3C//DTD SVG 1.1//EN" "http://www.w3.org/Graphics/SVG/1.1/DTD/svg11.dtd">
<svg xmlns="http://www.w3.org/2000/svg" version="1.1" width="410px" height="106px" style="shape-rendering:geometricPrecision; text-rendering:geometricPrecision; image-rendering:optimizeQuality; fill-rule:evenodd; clip-rule:evenodd" xmlns:xlink="http://www.w3.org/1999/xlink">
<g><path style="opacity:0.826" fill="#000000" d="M 51.5,-0.5 C 52.5,-0.5 53.5,-0.5 54.5,-0.5C 71.6728,16.8393 88.6728,34.3393 105.5,52C 88.3394,69.994 71.0061,87.8274 53.5,105.5C 52.5,105.5 51.5,105.5 50.5,105.5C 33.8333,88.1667 16.8333,71.1667 -0.5,54.5C -0.5,53.5 -0.5,52.5 -0.5,51.5C 17.1667,34.5 34.5,17.1667 51.5,-0.5 Z M 51.5,10.5 C 66.2477,23.7449 80.581,37.5782 94.5,52C 80.3333,66.1667 66.1667,80.3333 52,94.5C 37.9859,80.6527 24.1526,66.6527 10.5,52.5C 24.1879,38.4793 37.8546,24.4793 51.5,10.5 Z"/></g>
<g><path style="opacity:0.536" fill="#000000" d="M 236.5,10.5 C 242.167,10.5 247.833,10.5 253.5,10.5C 253.762,11.9778 253.429,13.3112 252.5,14.5C 250.591,13.6518 248.591,13.3184 246.5,13.5C 246.758,18.1251 246.758,22.6251 246.5,27C 250.567,28.9086 250.234,29.7419 245.5,29.5C 244.167,29.1667 242.833,28.8333 241.5,28.5C 241.808,27.6919 242.308,27.0253 243,26.5C 243.499,22.1794 243.666,17.8461 243.5,13.5C 240.786,13.75 238.119,13.9167 235.5,14C 236.337,12.9887 236.67,11.8221 236.5,10.5 Z"/></g>
<g><path style="opacity:0.485" fill="#000000" d="M 255.5,10.5 C 257.924,10.1924 260.257,10.5258 262.5,11.5C 260.896,13.1789 260.229,15.1789 260.5,17.5C 263.5,17.5 266.5,17.5 269.5,17.5C 269.771,15.1789 269.104,13.1789 267.5,11.5C 270.167,10.1667 272.833,10.1667 275.5,11.5C 274.276,14.1313 273.609,16.9646 273.5,20C 273.609,23.0354 274.276,25.8687 275.5,28.5C 272.894,29.6517 270.227,29.8184 267.5,29C 269.314,26.5185 269.98,23.6852 269.5,20.5C 266.5,20.5 263.5,20.5 260.5,20.5C 260.5,22.8333 260.5,25.1667 260.5,27.5C 261.675,27.281 262.675,27.6143 263.5,28.5C 260.833,29.8333 258.167,29.8333 255.5,28.5C 256.025,27.8076 256.692,27.3076 257.5,27C 256.167,22.3333 256.167,17.6667 257.5,13C 256.244,12.5831 255.577,11.7498 255.5,10.5 Z"/></g>
<g><path style="opacity:0.445" fill="#000000" d="M 278.5,10.5 C 282.5,10.5 286.5,10.5 290.5,10.5C 290.762,11.9778 290.429,13.3112 289.5,14.5C 287.929,13.6906 286.262,13.3573 284.5,13.5C 284.5,14.8333 284.5,16.1667 284.5,17.5C 286.5,17.5 288.5,17.5 290.5,17.5C 290.5,19.1667 290.5,20.8333 290.5,22.5C 288.5,21.8333 286.5,21.1667 284.5,20.5C 284.5,22.5 284.5,24.5 284.5,26.5C 286.827,26.7529 288.827,26.0863 290.5,24.5C 291.747,26.0064 291.747,27.5064 290.5,29C 286.5,29.6667 282.5,29.6667 278.5,29C 279,28.5 279.5,28 280,27.5C 280.957,21.6199 280.457,15.9533 278.5,10.5 Z"/></g>
<g><path style="opacity:0.797" fill="#000000" d="M 51.5,16.5 C 56.4194,19.7483 60.7528,23.7483 64.5,28.5C 59.4706,34.3634 53.9706,39.6967 48,44.5C 44.0613,40.8063 40.2279,36.973 36.5,33C 37.628,30.704 39.2946,28.8707 41.5,27.5C 43.8169,29.316 45.9835,31.316 48,33.5C 49.8333,31.6667 51.6667,29.8333 53.5,28C 51.4782,25.9782 49.4782,23.9782 47.5,22C 48.6502,20.019 49.9835,18.1857 51.5,16.5 Z"/></g>
<g><path style="opacity:0.84" fill="#000000" d="M 66.5,31.5 C 68.736,32.3891 70.736,33.7224 72.5,35.5C 73.8333,36.5 73.8333,37.5 72.5,38.5C 60.514,49.9858 48.6807,61.6525 37,73.5C 35.1449,71.6449 33.3116,69.8116 31.5,68C 42.6719,56.8281 53.8386,45.6614 65,34.5C 65.5133,33.4734 66.0133,32.4734 66.5,31.5 Z"/></g>
<g><path style="opacity:0.783" fill="#000000" d="M 31.5,36.5 C 32.552,36.3505 33.552,36.5172 34.5,37C 38.2156,40.3793 41.5489,44.0459 44.5,48C 39.6967,53.9706 34.3634,59.4706 28.5,64.5C 24.1667,60.8333 20.1667,56.8333 16.5,52.5C 17.8707,50.2946 19.704,48.628 22,47.5C 23.6992,49.533 25.6992,51.1996 28,52.5C 30.1124,51.392 31.9458,49.892 33.5,48C 31.316,45.9835 29.316,43.8169 27.5,41.5C 28.8569,39.8144 30.1902,38.1477 31.5,36.5 Z"/></g>
<g><path style="opacity:0.621" fill="#000000" d="M 132.5,38.5 C 137.179,38.3342 141.845,38.5008 146.5,39C 148.291,41.1062 148.958,43.6062 148.5,46.5C 147.5,46.5 146.5,46.5 145.5,46.5C 145.863,44.0885 144.863,42.5885 142.5,42C 132.333,40.1667 128.167,44.3333 130,54.5C 131.554,58.8743 134.721,61.2076 139.5,61.5C 142.97,60.9258 145.97,59.5925 148.5,57.5C 148.679,63.5672 145.679,66.2338 139.5,65.5C 123.746,63.8184 119.412,55.9851 126.5,42C 128.432,40.5415 130.432,39.3748 132.5,38.5 Z"/></g>
<g><path style="opacity:0.59" fill="#000000" d="M 150.5,38.5 C 156.5,38.5 162.5,38.5 168.5,38.5C 168.5,40.5 168.5,42.5 168.5,44.5C 165.664,43.2245 162.664,42.5578 159.5,42.5C 159.5,44.8333 159.5,47.1667 159.5,49.5C 162.066,49.6556 164.566,49.3223 167,48.5C 167.5,48.8333 168,49.1667 168.5,49.5C 167.253,51.0421 167.253,52.5421 168.5,54C 166.125,56.4067 165.125,55.9067 165.5,52.5C 163.5,52.5 161.5,52.5 159.5,52.5C 158.77,61.794 162.103,63.794 169.5,58.5C 169.167,60.5 168.833,62.5 168.5,64.5C 162.463,64.8293 156.463,64.4959 150.5,63.5C 151.325,62.6143 152.325,62.281 153.5,62.5C 153.5,55.5 153.5,48.5 153.5,41.5C 152.5,41.5 151.5,41.5 150.5,41.5C 150.5,40.5 150.5,39.5 150.5,38.5 Z"/></g>
<g><path style="opacity:0.655" fill="#000000" d="M 175.5,38.5 C 181.775,43.6013 187.942,48.9346 194,54.5C 194.499,50.1794 194.666,45.8461 194.5,41.5C 193.5,41.5 192.5,41.5 191.5,41.5C 191.5,40.5 191.5,39.5 191.5,38.5C 194.833,38.5 198.167,38.5 201.5,38.5C 201.5,39.5 201.5,40.5 201.5,41.5C 200.5,41.5 199.5,41.5 198.5,41.5C 198.5,49.1667 198.5,56.8333 198.5,64.5C 197.448,64.6495 196.448,64.4828 195.5,64C 189.946,58.4459 184.446,52.9459 179,47.5C 178.333,51.8333 178.333,56.1667 179,60.5C 179.9,61.7702 181.066,62.7702 182.5,63.5C 178.833,64.8333 175.167,64.8333 171.5,63.5C 172.325,62.6143 173.325,62.281 174.5,62.5C 174.442,54.4792 174.776,46.4792 175.5,38.5 Z"/></g>
<g><path style="opacity:0.6" fill="#000000" d="M 203.5,38.5 C 215.518,38.1677 227.518,38.501 239.5,39.5C 235.866,46.0371 235.533,52.8704 238.5,60C 242.198,62.3248 245.365,61.8248 248,58.5C 248.499,52.8431 248.666,47.1764 248.5,41.5C 247.5,41.5 246.5,41.5 245.5,41.5C 245.5,40.5 245.5,39.5 245.5,38.5C 249.226,38.1774 252.893,38.5108 256.5,39.5C 256.167,40.5 255.5,41.1667 254.5,41.5C 253.865,47.5492 253.032,53.5492 252,59.5C 247.214,65.4854 241.38,66.6521 234.5,63C 232.951,61.786 231.785,60.286 231,58.5C 230.83,52.8042 230.33,47.1376 229.5,41.5C 228.914,41.2907 228.414,40.9574 228,40.5C 227.51,41.7932 227.343,43.1266 227.5,44.5C 224.664,43.2245 221.664,42.5578 218.5,42.5C 218.334,48.8421 218.5,55.1754 219,61.5C 220.205,62.0712 221.372,62.7379 222.5,63.5C 218.167,64.8333 213.833,64.8333 209.5,63.5C 210.242,62.7132 211.075,62.0465 212,61.5C 212.5,55.1754 212.666,48.8421 212.5,42.5C 209.193,42.0632 206.193,42.7298 203.5,44.5C 202.481,42.5405 202.481,40.5405 203.5,38.5 Z"/></g>
<g><path style="opacity:0.64" fill="#000000" d="M 257.5,38.5 C 263.593,38.1392 269.593,38.6392 275.5,40C 279.246,44.3419 278.912,48.5085 274.5,52.5C 277.247,57.5823 281.247,61.249 286.5,63.5C 283.894,64.6517 281.227,64.8184 278.5,64C 274.638,61.1331 271.138,57.9664 268,54.5C 267.5,54.6667 267,54.8333 266.5,55C 267.833,57 267.833,59 266.5,61C 268.002,61.5831 269.335,62.4164 270.5,63.5C 266.5,64.8333 262.5,64.8333 258.5,63.5C 259.242,62.7132 260.075,62.0465 261,61.5C 261.5,54.8417 261.666,48.175 261.5,41.5C 259.027,41.9118 257.694,40.9118 257.5,38.5 Z M 267.5,41.5 C 272.151,42.2395 273.651,44.9062 272,49.5C 270.89,51.0368 269.39,51.7035 267.5,51.5C 267.5,48.1667 267.5,44.8333 267.5,41.5 Z"/></g>
<g><path style="opacity:0.613" fill="#000000" d="M 279.5,38.5 C 282.898,38.1796 286.232,38.513 289.5,39.5C 289.291,40.086 288.957,40.586 288.5,41C 290.458,43.7482 292.291,46.5815 294,49.5C 295.753,46.9952 297.253,44.3286 298.5,41.5C 298.167,40.8333 297.833,40.1667 297.5,39.5C 300.833,38.1667 304.167,38.1667 307.5,39.5C 301.326,43.4738 297.326,49.1405 295.5,56.5C 295.723,59.5339 297.056,61.8672 299.5,63.5C 295.5,64.8333 291.5,64.8333 287.5,63.5C 288.242,62.7132 289.075,62.0465 290,61.5C 290.667,58.8333 290.667,56.1667 290,53.5C 288,50.1667 286,46.8333 284,43.5C 282.89,41.9632 281.39,41.2965 279.5,41.5C 279.5,40.5 279.5,39.5 279.5,38.5 Z"/></g>
<g><path style="opacity:0.618" fill="#000000" d="M 316.5,38.5 C 320.555,38.1758 324.555,38.5091 328.5,39.5C 328.167,40.5 327.5,41.1667 326.5,41.5C 325.336,48.1418 325.169,54.8085 326,61.5C 327.205,62.0712 328.372,62.7379 329.5,63.5C 325.167,64.8333 320.833,64.8333 316.5,63.5C 317.242,62.7132 318.075,62.0465 319,61.5C 319.5,54.8417 319.666,48.175 319.5,41.5C 318.5,41.5 317.5,41.5 316.5,41.5C 316.5,40.5 316.5,39.5 316.5,38.5 Z"/></g>
<g><path style="opacity:0.691" fill="#000000" d="M 331.5,38.5 C 338.921,38.1095 346.254,38.6095 353.5,40C 360.981,44.4453 362.814,50.6119 359,58.5C 357.062,61.1059 354.562,62.9392 351.5,64C 344.833,64.6667 338.167,64.6667 331.5,64C 333.541,62.7582 334.707,60.9249 335,58.5C 335.499,52.8431 335.666,47.1764 335.5,41.5C 334.167,41.5 332.833,41.5 331.5,41.5C 331.5,40.5 331.5,39.5 331.5,38.5 Z M 340.5,41.5 C 353.531,41.5714 357.531,47.5714 352.5,59.5C 348.784,61.6116 344.951,61.9449 341,60.5C 340.5,54.1754 340.334,47.8421 340.5,41.5 Z"/></g>
<g><path style="opacity:0.61" fill="#000000" d="M 409.5,62.5 C 409.5,63.1667 409.5,63.8333 409.5,64.5C 406.102,64.8204 402.768,64.487 399.5,63.5C 399.709,62.914 400.043,62.414 400.5,62C 399.139,60.4157 398.472,58.5824 398.5,56.5C 393.645,55.5167 390.312,57.1833 388.5,61.5C 389.5,62.1667 390.5,62.8333 391.5,63.5C 382.167,64.8333 372.833,64.8333 363.5,63.5C 364.242,62.7132 365.075,62.0465 366,61.5C 366.5,54.8417 366.666,48.175 366.5,41.5C 365.5,41.5 364.5,41.5 363.5,41.5C 363.5,40.5 363.5,39.5 363.5,38.5C 369.5,38.5 375.5,38.5 381.5,38.5C 381.5,40.5 381.5,42.5 381.5,44.5C 378.664,43.2245 375.664,42.5578 372.5,42.5C 372.5,44.8333 372.5,47.1667 372.5,49.5C 374.92,49.7076 377.253,49.3742 379.5,48.5C 380.647,50.7649 380.814,53.0982 380,55.5C 377.959,53.3501 375.459,52.3501 372.5,52.5C 372.223,55.4475 372.556,58.2809 373.5,61C 374.833,61.6667 376.167,61.6667 377.5,61C 378.9,59.5619 380.567,58.7286 382.5,58.5C 382.281,59.675 382.614,60.675 383.5,61.5C 387.363,53.7747 391.196,46.108 395,38.5C 399.651,44.8038 402.984,51.8038 405,59.5C 406.129,61.1412 407.629,62.1412 409.5,62.5 Z M 393.5,47.5 C 394.339,48.6412 395.006,49.9745 395.5,51.5C 394.5,52.8333 393.5,52.8333 392.5,51.5C 393.246,50.2638 393.579,48.9305 393.5,47.5 Z"/></g>
<g><path style="opacity:0.806" fill="#000000" d="M 75.5,40.5 C 80.2597,43.7541 84.593,47.5875 88.5,52C 86.6667,53.8333 84.8333,55.6667 83,57.5C 81.0218,55.5218 79.0218,53.5218 77,51.5C 75.1667,53.3333 73.3333,55.1667 71.5,57C 73.5218,59.0218 75.5218,61.0218 77.5,63C 75.6667,64.8333 73.8333,66.6667 72,68.5C 68.0613,64.8063 64.2279,60.973 60.5,57C 65.3245,51.3421 70.3245,45.8421 75.5,40.5 Z"/></g>
<g><path style="opacity:0.798" fill="#000000" d="M 55.5,60.5 C 56.552,60.3505 57.552,60.5172 58.5,61C 62.2156,64.3793 65.5489,68.0459 68.5,72C 66.6716,73.6629 65.0049,75.4962 63.5,77.5C 61.1831,75.684 59.0165,73.684 57,71.5C 55.1667,73.3333 53.3333,75.1667 51.5,77C 53.5218,79.0218 55.5218,81.0218 57.5,83C 55.6716,84.6629 54.0049,86.4962 52.5,88.5C 48.1667,84.8333 44.1667,80.8333 40.5,76.5C 45.5217,71.1463 50.5217,65.813 55.5,60.5 Z"/></g>
<g><path style="opacity:0.494" fill="#000000" d="M 172.5,72.5 C 175.096,73.2653 177.763,73.5987 180.5,73.5C 180.357,75.2624 180.691,76.9291 181.5,78.5C 180.675,79.3857 179.675,79.719 178.5,79.5C 178.5,78.5 178.5,77.5 178.5,76.5C 168.309,73.8565 164.809,77.5231 168,87.5C 172.761,91.7919 176.927,91.4585 180.5,86.5C 181.231,88.4012 181.231,90.4012 180.5,92.5C 176.116,92.8256 171.783,92.4922 167.5,91.5C 162.089,87.2756 161.255,82.2756 165,76.5C 167.255,74.5012 169.755,73.1679 172.5,72.5 Z"/></g>
<g><path style="opacity:0.523" fill="#000000" d="M 191.5,72.5 C 204.642,75.1817 206.976,81.6817 198.5,92C 194.459,92.8265 190.459,92.6599 186.5,91.5C 180.005,82.9258 181.671,76.5925 191.5,72.5 Z M 190.5,75.5 C 197.632,75.802 200.465,79.4687 199,86.5C 195.098,91.8036 191.098,91.8036 187,86.5C 185.518,81.774 186.685,78.1074 190.5,75.5 Z"/></g>
<g><path style="opacity:0.483" fill="#000000" d="M 233.5,72.5 C 235.435,73.1495 237.435,73.4828 239.5,73.5C 239.785,75.288 239.452,76.9547 238.5,78.5C 236.815,75.1445 234.815,74.8112 232.5,77.5C 234.483,79.9837 236.65,82.3171 239,84.5C 239.944,87.3471 239.444,89.8471 237.5,92C 234.518,92.498 231.518,92.6646 228.5,92.5C 228.5,90.8333 228.5,89.1667 228.5,87.5C 229.552,87.3505 230.552,87.5172 231.5,88C 230.567,89.6077 231.233,90.441 233.5,90.5C 235,90.5472 236,89.8805 236.5,88.5C 234.958,85.6328 232.791,83.2994 230,81.5C 228.665,77.3919 229.832,74.3919 233.5,72.5 Z"/></g>
<g><path style="opacity:0.489" fill="#000000" d="M 341.5,72.5 C 346.438,73.3924 351.438,73.7257 356.5,73.5C 356.959,82.4876 359.292,83.3209 363.5,76C 363.043,75.586 362.709,75.086 362.5,74.5C 364.5,73.1667 366.5,73.1667 368.5,74.5C 364.609,77.6193 362.275,81.6193 361.5,86.5C 361.716,88.3839 362.383,90.0506 363.5,91.5C 360.833,92.8333 358.167,92.8333 355.5,91.5C 357.392,89.1192 357.892,86.4525 357,83.5C 355.062,80.6105 352.895,77.9438 350.5,75.5C 349.833,76.8333 349.167,78.1667 348.5,79.5C 347.614,78.675 347.281,77.675 347.5,76.5C 337.29,73.876 333.79,77.5426 337,87.5C 341.641,91.7406 345.641,91.4072 349,86.5C 349.495,88.4727 349.662,90.4727 349.5,92.5C 345.154,92.6657 340.821,92.499 336.5,92C 331.467,88.1 330.3,83.2667 333,77.5C 335.398,74.8916 338.231,73.2249 341.5,72.5 Z"/></g>
<g><path style="opacity:0.527" fill="#000000" d="M 205.5,74.5 C 206.251,73.4265 207.251,73.2599 208.5,74C 212.333,77.8333 216.167,81.6667 220,85.5C 220.979,81.5768 220.479,77.9101 218.5,74.5C 220.833,73.1667 223.167,73.1667 225.5,74.5C 223.605,80.2761 222.939,86.2761 223.5,92.5C 218.634,89.1474 214.134,85.1474 210,80.5C 209.021,84.4232 209.521,88.0899 211.5,91.5C 209.167,92.8333 206.833,92.8333 204.5,91.5C 205.732,88.6996 206.399,85.6996 206.5,82.5C 206.497,79.6445 206.164,76.9779 205.5,74.5 Z"/></g>
<g><path style="opacity:0.488" fill="#000000" d="M 240.5,73.5 C 243.247,73.1866 245.914,73.52 248.5,74.5C 247.975,75.1924 247.308,75.6924 246.5,76C 246.664,78.6988 246.83,81.5321 247,84.5C 246.936,87.8199 248.436,89.8199 251.5,90.5C 255.615,88.7762 257.282,85.6095 256.5,81C 256.346,78.6209 255.68,76.4542 254.5,74.5C 256.5,73.1667 258.5,73.1667 260.5,74.5C 259.732,78.4452 259.232,82.4452 259,86.5C 258.64,88.4211 257.806,90.0878 256.5,91.5C 252.833,92.8333 249.167,92.8333 245.5,91.5C 243.546,85.5742 241.879,79.5742 240.5,73.5 Z"/></g>
<g><path style="opacity:0.577" fill="#000000" d="M 262.5,73.5 C 265.247,73.1866 267.914,73.52 270.5,74.5C 268.464,79.2702 267.964,84.2702 269,89.5C 271.825,91.0843 273.992,90.4176 275.5,87.5C 276.747,89.0064 276.747,90.5064 275.5,92C 271.459,92.8265 267.459,92.6599 263.5,91.5C 265.379,86.4 266.046,81.0667 265.5,75.5C 263.821,75.7148 262.821,75.0481 262.5,73.5 Z"/></g>
<g><path style="opacity:0.477" fill="#000000" d="M 275.5,73.5 C 280.833,73.5 286.167,73.5 291.5,73.5C 291.966,75.2012 291.966,76.7012 291.5,78C 289.381,76.9798 287.047,76.6465 284.5,77C 285.833,81.3333 285.833,85.6667 284.5,90C 285.624,90.2492 286.624,90.7492 287.5,91.5C 284.833,92.8333 282.167,92.8333 279.5,91.5C 281.37,86.7388 282.037,81.7388 281.5,76.5C 279.409,76.3184 277.409,76.6518 275.5,77.5C 274.374,76.1916 274.374,74.8583 275.5,73.5 Z"/></g>
<g><path style="opacity:0.508" fill="#000000" d="M 297.5,73.5 C 298.675,73.281 299.675,73.6143 300.5,74.5C 302.109,79.6594 304.109,84.6594 306.5,89.5C 307.689,90.4287 309.022,90.762 310.5,90.5C 310.171,84.7945 310.505,79.1278 311.5,73.5C 316.152,77.6513 320.652,81.9847 325,86.5C 325.499,82.8484 325.665,79.1817 325.5,75.5C 324.325,75.719 323.325,75.3857 322.5,74.5C 325.106,73.3483 327.773,73.1816 330.5,74C 330,74.5 329.5,75 329,75.5C 328.501,81.1569 328.334,86.8236 328.5,92.5C 327.448,92.6495 326.448,92.4828 325.5,92C 321.667,88.1667 317.833,84.3333 314,80.5C 313.021,84.4232 313.521,88.0899 315.5,91.5C 311.217,92.4922 306.884,92.8256 302.5,92.5C 302.167,90.5 301.833,88.5 301.5,86.5C 299.5,86.5 297.5,86.5 295.5,86.5C 294.948,88.3307 294.948,89.9974 295.5,91.5C 293.5,92.8333 291.5,92.8333 289.5,91.5C 290.242,90.7132 291.075,90.0465 292,89.5C 293.746,84.0942 295.579,78.7609 297.5,73.5 Z M 298.5,80.5 C 301.481,83.1224 301.148,83.789 297.5,82.5C 297.863,81.8165 298.196,81.1499 298.5,80.5 Z"/></g>
</svg>
